<svg xmlns="http://www.w3.org/2000/svg" xmlns:xlink="http://www.w3.org/1999/xlink" xmlns:inkscape="http://www.inkscape.org/namespaces/inkscape" version="1.1" width="362.835" height="272.126" viewBox="0 0 362.835 272.126">
<defs>
<path id="font_1_37" d="M.60598757 .6263275V.69132998H.033996583V.6263275H.15899658C.17098999 .6263275 .18299866 .6273346 .19499207 .6273346H.27799989V0H.3619995V.6273346H.44499208C.45700074 .6273346 .46899415 .6263275 .48098756 .6263275H.60598757Z"/>
<path id="font_1_45" d="M.41799928 .4296875H.33999635C.25498963 .20075989 .22599793 .107788089 .22399903 .057800294H.22299195C.21998596 .106781009 .17599488 .2267456 .14099121 .31271363L.09399414 .4296875H.0129852299L.18998719-.00018310547C.1789856-.030166626 .16299439-.075149539 .1579895-.08514404 .13598633-.14112854 .12098694-.14112854 .10499573-.14112854 .100997928-.14112854 .068984989-.14013672 .032989503-.12913513L.038986207-.1951294C.06399536-.20013428 .08898926-.203125 .10699463-.203125 .13198853-.203125 .18199158-.203125 .22799683-.08015442L.41799928 .4296875Z"/>
<path id="font_1_31" d="M.44999696 .21632385C.44999696 .33442689 .3899994 .43847657 .3039856 .43847657 .2539978 .43847657 .19400025 .4204712 .14898682 .3844757V.4304657H.07499695V-.19433594H.15098572V.045181276C.18399048 .013183594 .22898865-.0078125 .2769928-.0078125 .36999513-.0078125 .44999696 .08821106 .44999696 .21632385M.37399293 .21632385C.37399293 .11723328 .30599977 .05317688 .23899842 .05317688 .21899414 .05317688 .19799805 .058181764 .17799378 .07519531 .15098572 .099227908 .15098572 .114227298 .15098572 .12825012V.3254242C.15899658 .33743287 .19299317 .37547303 .24798584 .37547303 .31799317 .37547303 .37399293 .30340577 .37399293 .21632385Z"/>
<path id="font_1_25" d="M.66999819 0V.2923584C.66999819 .3594513 .6529999 .43847657 .54100039 .43847657 .46598817 .43847657 .42099 .39146424 .40098573 .36245729 .3829956 .4154663 .34098817 .43847657 .2809906 .43847657 .21299744 .43847657 .16999817 .3994751 .14698792 .37145997V.43347169H.07398987V0H.1499939V.24229431C.1499939 .30137635 .17199707 .37747193 .24299622 .37747193 .33399964 .37747193 .33399964 .313385 .33399964 .28434754V0H.4099884V.24229431C.4099884 .30137635 .43199159 .37747193 .5029907 .37747193 .59399417 .37747193 .59399417 .313385 .59399417 .28434754V0H.66999819Z"/>
<path id="font_1_29" d="M.44198609 .21427918C.44198609 .3423462 .34700013 .4423828 .23498535 .4423828 .11999512 .4423828 .026992798 .33935548 .026992798 .21427918 .026992798 .08720398 .12298584-.0078125 .23399353-.0078125 .34799195-.0078125 .44198609 .0901947 .44198609 .21427918M.3659973 .22227478C.3659973 .10920715 .30099488 .05418396 .23399353 .05418396 .1639862 .05418396 .102996829 .113220218 .102996829 .22227478 .102996829 .3383484 .17399597 .3803711 .23399353 .3803711 .29899598 .3803711 .3659973 .3343506 .3659973 .22227478Z"/>
<path id="font_1_10" d="M.4079895 .00018310547V.69433596H.33399964V.3884735C.30299378 .4144745 .2519989 .43847657 .19599915 .43847657 .10499573 .43847657 .032989503 .33943177 .032989503 .21533203 .032989503 .09121704 .10398865-.0078125 .19299317-.0078125 .2619934-.0078125 .30799867 .029174805 .33198548 .050186159V.00018310547H.4079895M.33198548 .13424683C.33198548 .12023926 .33198548 .10522461 .30099488 .078201297 .2809906 .061187746 .25698854 .05317688 .23399353 .05317688 .17999268 .05317688 .10899353 .09321594 .10899353 .21432495 .10899353 .34043885 .18899536 .37747193 .24398804 .37747193 .2809906 .37747193 .31098939 .3594513 .33198548 .329422V.13424683Z"/>
<path id="font_1_41" d="M.40899659 .00039672853V.4296875H.33299256V.15429688C.33299256 .0803833 .2789917 .05038452 .22200012 .05038452 .1559906 .05038452 .1499939 .072387699 .1499939 .1133728V.4296875H.07398987V.10839844C.07398987 .030181885 .100997928-.0078125 .16999817-.0078125 .20399475-.0078125 .2809906 .00018310547 .33499146 .050186159V.00018310547L.40899659 .00039672853Z"/>
<path id="font_1_23" d="M.147995 0V.69433596H.07398987V0H.147995Z"/>
<path id="font_1_57" d="M.40899659 .00039672853V.4296875H.33299256V.15429688C.33299256 .0803833 .2789917 .05038452 .22200012 .05038452 .1559906 .05038452 .1499939 .072387699 .1499939 .1133728V.4296875H.07398987V.10839844C.07398987 .030181885 .100997928-.0078125 .16999817-.0078125 .20399475-.0078125 .2809906 .00018310547 .33499146 .050186159V.00018310547L.40899659 .00039672853M.2889862 .594635C.2889862 .5636444 .2639923 .55566409 .24198914 .55566409 .22200012 .55566409 .19499207 .5626526 .19499207 .594635 .19499207 .62561038 .21998596 .63360598 .24198914 .63360598 .2619934 .63360598 .2889862 .62661746 .2889862 .594635M.34700013 .594635C.34700013 .64060977 .3019867 .6826172 .24198914 .6826172 .18199158 .6826172 .13699341 .64060977 .13699341 .594635 .13699341 .5486603 .18199158 .50665286 .24198914 .50665286 .3019867 .50665286 .34700013 .5486603 .34700013 .594635Z"/>
<path id="font_1_3" d="M.57299807 .18798828C.57299807 .2639923 .5079956 .34098817 .3909912 .36299134 .5209961 .40098573 .5469971 .47698976 .5469971 .519989 .5469971 .6103058 .44898988 .69433596 .31199647 .69433596H.08898926V0H.33799745C.47399903 0 .57299807 .08999634 .57299807 .18803406V.18798828M.46899415 .5192108C.46899415 .45913697 .40499879 .3910675 .27598573 .3910675H.16999817V.6383209H.2849884C.3880005 .6380768 .46899415 .58506777 .46899415 .5190735V.5192108M.49398805 .18902588C.49398805 .121017459 .42099 .055999757 .30999757 .055999757H.16999817V.33007813H.30299378C.41099549 .32998658 .49398805 .2630005 .49398805 .18899536V.18902588Z"/>
<path id="font_1_12" d="M.3909912 .21940613C.3909912 .2524109 .3889923 .316391 .35699464 .36938478 .32199098 .42637635 .2649994 .4423828 .22200012 .4423828 .117996219 .4423828 .02999878 .34439088 .02999878 .21740723 .02999878 .0932312 .12098694-.0078125 .23599243-.0078125 .2809906-.0078125 .33599855 .0051727297 .38598634 .04118347 .38598634 .045181276 .3829956 .06820679 .3829956 .06820679 .3829956 .06820679 .37998963 .101242069 .37998963 .10525513 .33198548 .06619263 .2769928 .05317688 .23699951 .05317688 .17298889 .05317688 .10398865 .10725403 .100997928 .21940613H.3909912M.32499696 .27441407H.10899353C.12199402 .32939149 .1659851 .38137818 .22200012 .38137818 .23699951 .38137818 .30699159 .37937928 .32499696 .27441407Z"/>
<path id="font_1_27" d="M.40899659 0V.2923584C.40899659 .35543824 .3939972 .43847657 .2809906 .43847657 .21699524 .43847657 .1749878 .4054718 .14698792 .37145997V.43347169H.07398987V0H.1499939V.24229431C.1499939 .30537416 .17399597 .37747193 .24198914 .37747193 .32998658 .37747193 .33299256 .3183899 .33299256 .28434754V0H.40899659Z"/>
<path id="font_1_35" d="M.30599977 .37242127V.43847657C.24198914 .43746949 .18199158 .40545655 .1459961 .35339356V.43347169H.07499695V0H.14898682V.21324158C.14898682 .30734254 .21798706 .37042237 .30599977 .37242127Z"/>
<path id="font_1_20" d="M.17098999 0V.69433596H.08699036V0H.17098999Z"/>
<clipPath id="clip_2">
<path transform="matrix(1,0,0,-1,23.63,64.78601)" d="M0 0H5.632V5.632H0Z"/>
</clipPath>
<path id="font_3_56" d="M.6319885 .69433596H.55599978L.43099977 .36216737C.3909912 .2551117 .34098817 .123046878 .32998658 .074020389H.32899476C.31999208 .11705017 .28799439 .20109558 .2639923 .26512147L.10398865 .69433596H.01399231L.27799989 0H.36799623L.6319885 .69433596Z"/>
<path id="font_3_61" d="M.43299867 .44433595H.35798646C.31199647 .32621766 .23498535 .13005066 .23098755 .057998659H.22999573C.22499085 .11705017 .17199707 .24916077 .1639862 .2691803L.09298706 .44433595H.01399231L.19999695 0 .16499329-.09106445C.14299011-.14109802 .12799073-.1461029 .10998535-.1461029 .09599304-.1461029 .06399536-.14311219 .032989503-.13110352L.038986207-.19610596C.04499817-.19711304 .07798767-.20410156 .10998535-.20410156 .13398743-.20410156 .18099976-.20410156 .22399903-.094070438L.43299867 .44433595Z"/>
<path id="font_3_51" d="M.32598878 .029296875 .31098939 .08729553C.27598573 .056228639 .23899842 .052230836 .22099304 .052230836 .1769867 .052230836 .17098999 .099243167 .17098999 .13424683V.38632203H.30899049V.44433595H.17098999V.57128909H.101989749V.44433595H.017990113V.38632203H.099990848V.117248538C.099990848 .05923462 .11299133-.009765625 .18199158-.009765625 .24899292-.00970459 .29499818 .013290405 .32598878 .029296875Z"/>
<path id="font_3_57" d="M.43299867 .44433595H.35798646C.3039856 .29621888 .33499146 .38227845 .2849884 .24517823 .2679901 .19714356 .23098755 .09106445 .22499085 .054031373H.22399903C.21899414 .08906555 .19898987 .144104 .18399048 .18713379L.09199524 .44433595H.01399231L.1789856 0H.2679901L.43299867 .44433595Z"/>
<path id="font_3_67" d="M.40098573 .00022888184V.29315187C.40098573 .3889923 .33198548 .45898438 .23899842 .45898438 .1789856 .45898438 .13398743 .4449768 .084991458 .41697694L.09098816 .35105897C.1349945 .38301087 .18099976 .40097047 .23899842 .40097047 .2849884 .40097047 .32499696 .36402894 .32499696 .29115296V.25021363C.27999879 .24821472 .21998596 .24520874 .1599884 .22520447 .09298706 .20220948 .053985597 .16522217 .053985597 .115219119 .053985597 .07122803 .07998657-.009765625 .16499329-.009765625 .21998596-.009765625 .2899933 .006225586 .32699586 .037231447V.00022888184H.40098573M.32499696 .13421631C.32499696 .114227298 .32499696 .09022522 .2919922 .07022095 .2649994 .053222658 .23098755 .050231935 .21598816 .050231935 .1619873 .050231935 .125 .07922363 .125 .1162262 .125 .18421936 .2639923 .19921875 .32499696 .19921875V.13421631M.37199403 .69433596H.29599L.1659851 .52734377H.22599793L.37199403 .69433596Z"/>
<path id="font_3_72" d="M.31799317 .38708497V.45410157C.22698975 .45309449 .17399597 .40008546 .14698792 .36106874V.44909669H.07798767V0H.1519928V.21903992C.1519928 .32006837 .22799683 .38607789 .31799317 .38708497M.32199098 .6972656H.2630005L.16699219 .5743408 .070999149 .6972656H.011993408L.13699341 .5253906H.19699097L.32199098 .6972656Z"/>
<path id="font_3_12" d="M.40699769 .22529602C.40699769 .2682953 .40299989 .3291626 .37098695 .38201905 .32998658 .4509735 .2599945 .45898438 .23098755 .45898438 .12298584 .45898438 .032989503 .35508729 .032989503 .22529602 .032989503 .09324646 .1289978-.009765625 .24499512-.009765625 .29100038-.009765625 .34599305 .0032196046 .40098573 .04322815 .40098573 .047225954 .397995 .08023071 .397995 .08023071 .397995 .08023071 .394989 .10324097 .394989 .10725403 .33599855 .057235719 .2769928 .050231935 .24699402 .050231935 .16999817 .050231935 .10398865 .11924744 .101989749 .22529602H.40699769M.34799195 .27929688H.10798645C.125 .3461151 .17199707 .39897157 .23098755 .39897157 .2619934 .39897157 .33099366 .38500978 .34799195 .27929688Z"/>
<path id="font_3_32" d="M.42399598 0V.30107118C.42399598 .36209107 .41099549 .45410157 .2899933 .45410157 .23399353 .45410157 .18598938 .4290924 .147995 .38108827V.44909669H.07699585V0H.15299988V.24905396C.15299988 .31106568 .17599488 .39408876 .2519989 .39408876 .34498597 .39408876 .34799195 .32907105 .34799195 .29406739V0H.42399598Z"/>
<path id="font_3_71" d="M.1519928 0V.44433595H.07798767V0H.1519928M.28399659 .69433596H.20799256L.07798767 .52734377H.13798523L.28399659 .69433596Z"/>
<path id="font_3_20" d="M.47499085 .39309693 .46398927 .45410157C.44499208 .45410157 .3769989 .45309449 .31098939 .4210968 .27799989 .44909669 .23799134 .45410157 .21798706 .45410157 .1309967 .45410157 .06098938 .38108827 .06098938 .29309083 .06098938 .25709535 .07199097 .22409058 .09399414 .1940918 .070999149 .16209412 .06498718 .13209534 .06498718 .10809326 .06498718 .0710907 .07899475 .0460968 .08999634 .033096315 .038986207 .000045776369 .026992798-.042999269 .026992798-.071014408 .026992798-.14407349 .12199402-.20507813 .24398804-.20507813 .3659973-.20507813 .46199037-.14608765 .46199037-.07002258 .46199037 .07003784 .2999878 .07003784 .25898744 .07003784H.17399597C.1599884 .07003784 .116989139 .07003784 .116989139 .12287903 .116989139 .14485169 .12098694 .15084839 .1269989 .15985108 .14399719 .14785767 .1769867 .13085938 .21699524 .13085938 .30299378 .13085938 .37399293 .20187378 .37399293 .292984 .37399293 .32902528 .36099244 .36605836 .34098817 .39408876 .34098817 .39408876 .34298707 .39208985 .34399415 .39009095 .36499024 .39208985 .3869934 .39509584 .42399598 .39509584 .4269867 .39509584 .44999696 .39509584 .47499085 .39309693M.30499269 .292984C.30499269 .20387268 .24899292 .18585205 .21798706 .18585205 .17399597 .1860199 .12998963 .21603394 .12998963 .29205323 .12998963 .38108827 .18598938 .39909364 .21699524 .39909364 .26098634 .39909364 .30499269 .3690796 .30499269 .2930603V.292984M.3919983-.07106018C.3919983-.11708069 .32299806-.15008545 .24499512-.15008545 .16699219-.14996338 .09700012-.11895752 .09700012-.06996155 .09700012-.06695557 .09700012-.001953125 .17298889-.001953125H.2599945C.28199769-.001953125 .3919983-.001953125 .3919983-.07095337V-.07106018Z"/>
<path id="font_3_35" d="M.45899964 .22010803C.45899964 .355011 .3600006 .45898438 .24499512 .45898438 .1269989 .45898438 .02999878 .35301209 .02999878 .22010803 .02999878 .08920288 .12998963-.009765625 .24398804-.009765625 .3619995-.009765625 .45899964 .09120178 .45899964 .22010803M.3829956 .23010254C.3829956 .10719299 .31199647 .052230836 .24499512 .052230836 .17298889 .052230836 .10598755 .11218262 .10598755 .23010254 .10598755 .35101319 .18099976 .39897157 .24398804 .39897157 .31298829 .39897157 .3829956 .34701539 .3829956 .23010254Z"/>
<path id="font_3_30" d="M.69699099 0V.30107118C.69699099 .37008668 .67900088 .45410157 .56199648 .45410157 .47698976 .45410157 .42999269 .39509584 .4149933 .37309266 .39698792 .4360962 .34199525 .45410157 .2899933 .45410157 .20799256 .45410157 .16499329 .40109254 .147995 .38009645V.44909669H.07699585V0H.15299988V.24905396C.15299988 .31507875 .1789856 .39408876 .2519989 .39408876 .34399415 .39408876 .34899903 .33106996 .34899903 .29406739V0H.4249878V.24905396C.4249878 .31507875 .45098878 .39408876 .5239868 .39408876 .6159973 .39408876 .62098696 .33106996 .62098696 .29406739V0H.69699099Z"/>
<path id="font_3_44" d="M.31799317 .38708497V.45410157C.22698975 .45309449 .17399597 .40008546 .14698792 .36106874V.44909669H.07798767V0H.1519928V.21903992C.1519928 .32006837 .22799683 .38607789 .31799317 .38708497Z"/>
<path id="font_3_65" d="M.1519928 0V.44433595H.07798767V0H.1519928M.1579895 .5683594V.6543579H.07199097V.5683594H.1579895Z"/>
<path id="font_3_2" d="M.40098573 .00022888184V.29315187C.40098573 .3889923 .33198548 .45898438 .23899842 .45898438 .1789856 .45898438 .13398743 .4449768 .084991458 .41697694L.09098816 .35105897C.1349945 .38301087 .18099976 .40097047 .23899842 .40097047 .2849884 .40097047 .32499696 .36402894 .32499696 .29115296V.25021363C.27999879 .24821472 .21998596 .24520874 .1599884 .22520447 .09298706 .20220948 .053985597 .16522217 .053985597 .115219119 .053985597 .07122803 .07998657-.009765625 .16499329-.009765625 .21998596-.009765625 .2899933 .006225586 .32699586 .037231447V.00022888184H.40098573M.32499696 .13421631C.32499696 .114227298 .32499696 .09022522 .2919922 .07022095 .2649994 .053222658 .23098755 .050231935 .21598816 .050231935 .1619873 .050231935 .125 .07922363 .125 .1162262 .125 .18421936 .2639923 .19921875 .32499696 .19921875V.13421631Z"/>
<path id="font_3_4" d="M.46598817 .22309876C.46598817 .34609986 .3999939 .45410157 .30699159 .45410157 .27799989 .45410157 .21398926 .4480896 .1519928 .39808656V.69433596H.07798767V.000091552738L.1539917 .00022888184V.04522705C.19999695 .0012207031 .24899292-.009765625 .28399659-.009765625 .3789978-.009765625 .46598817 .08721924 .46598817 .22315979V.22309876M.3899994 .22315979C.3899994 .09321594 .30799867 .050231935 .24699402 .050231935 .21899414 .050231935 .19999695 .06022644 .18199158 .07421875 .1579895 .095214847 .1539917 .113204959 .1539917 .13020325V.33711244C.17199707 .3651123 .20799256 .39408876 .25698854 .39408876 .31799317 .39408876 .3899994 .348114 .3899994 .22315979Z"/>
<path id="font_3_66" d="M.1789856-.058670045V.44433595H.10499573V-.06867981C.10499573-.13511658 .051986696-.14111328 .0309906-.14111328-.013000488-.14111328-.040008546-.1131134-.042007448-.11010742L-.06201172-.17010498C-.030014039-.18910218 .009994507-.20410156 .055999757-.20410156 .11898804-.20401001 .1789856-.15200806 .1789856-.059005739V-.058670045M.1789856 .5683594V.6543579H.09298706V.5683594H.1789856Z"/>
<path id="font_3_26" d="M.45799256 0 .27198792 .27311708 .43598939 .4441986H.34399415L.15098572 .24310303V.69433596H.07798767V0H.147995V.14405823L.22399903 .22299195 .37599183 0H.45799256Z"/>
<path id="font_3_74" d="M.42399598 .00022888184V.44433595H.34799195V.1582489C.34799195 .082229617 .29499818 .04522705 .22999573 .04522705 .1599884 .04522705 .15299988 .07122803 .15299988 .115249637V.44433595H.07699585V.11123657C.07699585 .039230348 .099990848-.009765625 .18199158-.009765625 .20999146-.009765625 .2889862-.004776001 .34999085 .050231935V.00022888184H.42399598M.30099488 .6014862C.30099488 .5704498 .2709961 .5644531 .2519989 .5644531 .24398804 .5644531 .20298767 .5644531 .20298767 .6014862 .20298767 .63253787 .23298645 .63853457 .2519989 .63853457 .2599945 .63853457 .30099488 .63853457 .30099488 .6014862M.36099244 .6004944C.36099244 .64753726 .31298829 .6855469 .2519989 .6855469 .18798828 .6855469 .14299011 .6445465 .14299011 .6024933 .14299011 .55545046 .19099427 .5174408 .2519989 .5174408 .31599427 .5174408 .36099244 .55844119 .36099244 .6004944Z"/>
<path id="font_4_1" d="M.7599945 .22315979C.7749939 .23016358 .7839966 .23516846 .7839966 .25016786 .7839966 .26316834 .7749939 .27116395 .7599945 .27816773L.1539917 .5691681C.15299988 .5691681 .13999939 .5761719 .1329956 .5761719 .10798645 .5761719 .10798645 .5531616 .10798645 .53616335V-.036834718C.10798645-.052841188 .10798645-.07583618 .1329956-.07583618 .13999939-.07583618 .1459961-.0728302 .1519928-.06983948L.7599945 .22315979Z"/>
<path id="font_5_20" d="M.59799197 .038253786V.3002472H.3880005V.23925781H.519989V.07424927C.47799684 .060256959 .43299867 .053253175 .3880005 .053253175 .32299806 .053253175 .2639923 .088256839 .22299195 .13925171 .1769867 .19825745 .15499878 .2722473 .15499878 .347229 .15499878 .42218019 .1769867 .49713136 .22299195 .5560913 .2639923 .6070709 .32299806 .64204409 .3880005 .64204409 .42199708 .64204409 .45498658 .63804629 .4869995 .62605288 .519989 .6150665 .548996 .59606936 .57499697 .5740814L.58999636 .65605166C.5589905 .6730499 .526001 .6860504 .49198915 .6950531 .45799256 .7030487 .4229889 .7060547 .3880005 .7060547 .30099488 .7060547 .21899414 .66604617 .1599884 .6010742 .09799194 .5311127 .06599426 .4401703 .06599426 .347229 .06599426 .2542572 .09799194 .16325379 .1599884 .09425354 .21899414 .029251099 .30099488-.0107421879 .3880005-.0107421879 .46099855-.0107421879 .5329895 .0062561037 .59799197 .038253786Z"/>
<path id="font_5_13" d="M.4139862 .21875C.4139862 .25274659 .41299439 .32781983 .37399293 .38790895 .33299256 .4499359 .27198792 .4609375 .23599243 .4609375 .125 .4609375 .034988405 .3548584 .034988405 .22573853 .034988405 .09411621 .1309967-.0107421879 .25099183-.0107421879 .31399537-.0107421879 .37098695 .013244629 .4099884 .041244508L.4039917 .1060791C.34098817 .054244996 .2749939 .050247194 .2519989 .050247194 .17199707 .050247194 .10798645 .121032718 .10499573 .21875H.4139862M.35699464 .27374269H.10998535C.12599182 .34985353 .1789856 .39993287 .23599243 .39993287 .28799439 .39993287 .34399415 .36587525 .35699464 .27374269Z"/>
<path id="font_5_35" d="M.46899415 .22009278C.46899415 .3539734 .36898805 .4609375 .25 .4609375 .1269989 .4609375 .02999878 .35098268 .02999878 .22009278 .02999878 .08821106 .13198853-.0107421879 .24899292-.0107421879 .36898805-.0107421879 .46899415 .09020996 .46899415 .22009278M.3909912 .23008728C.3909912 .112197879 .32299806 .053253175 .24899292 .053253175 .17999268 .053253175 .10798645 .109191898 .10798645 .23008728 .10798645 .35098268 .18399048 .39993287 .24899292 .39993287 .31900025 .39993287 .3909912 .34797669 .3909912 .23008728Z"/>
<path id="font_5_31" d="M.71299746 0V.29804994C.71299746 .36506654 .69699099 .45507813 .57598879 .45507813 .5159912 .45507813 .46398927 .427063 .4269867 .37306214 .40098573 .44906617 .33099366 .45507813 .29899598 .45507813 .22698975 .45507813 .17999268 .41407777 .15299988 .37806703V.45007325H.08099365V0H.15899658V.2450409C.15899658 .31304933 .18598938 .3940735 .2599945 .3940735 .35299684 .3940735 .35798646 .3290558 .35798646 .29104615V0H.43598939V.2450409C.43598939 .31304933 .46299745 .3940735 .5369873 .3940735 .6299896 .3940735 .6349945 .3290558 .6349945 .29104615V0H.71299746Z"/>
<path id="font_5_47" d="M.33198548 .027252198 .31599427 .086257938C.2899933 .06524658 .2579956 .053253175 .22599793 .053253175 .18899536 .053253175 .1749878 .08325195 .1749878 .13627625V.38632203H.31599427V.44433595H.1749878V.57128909H.10598755V.44433595H.018997193V.38632203H.102996829V.119262699C.102996829 .059249879 .116989139-.0107421879 .18598938-.0107421879 .2559967-.0107421879 .30699159 .014251709 .33198548 .027252198Z"/>
<path id="font_5_43" d="M.32699586 .38806153V.45507813C.23799134 .45407105 .18299866 .4050598 .1519928 .35905458V.45007325H.08198547V0H.15699768V.21403504C.15699768 .31404115 .22898865 .38606263 .32699586 .38806153Z"/>
<path id="font_5_60" d="M.1559906 0V.44433595H.08099365V0H.1559906M.1639862 .5662689V.65527346H.07499695V.5662689H.1639862Z"/>
<path id="font_5_38" d="M.33198548-.25C.28399659-.20201111 .15699768-.073013309 .15699768 .25 .15699768 .30599977 .1599884 .4229889 .20098877 .54100039 .24198914 .6569977 .29899598 .71699526 .33198548 .75H.2709961C.23899842 .7200012 .17199707 .6589966 .12599182 .5359955 .085998538 .42900086 .07899475 .32299806 .07899475 .25 .07899475-.073013309 .22299195-.20600891 .2709961-.25H.33198548Z"/>
<path id="font_5_30" d="M.7739868 0V.69433596H.6599884L.5299988 .35516358C.49499513 .26411439 .44799806 .14006043 .43699647 .09303284H.43598939C.43099977 .11404419 .4189911 .15106201 .4039917 .19308472L.24699402 .60728457 .21299744 .69433596H.099990848V0H.17799378V.62028506H.1789856C.18499756 .5882721 .22499085 .47921754 .25099183 .41119386L.39898683 .022003174H.47200013L.6049957 .37016297 .6529999 .4972229C.6629944 .5262451 .6899872 .59828189 .69499209 .6212921L.69599917 .62028506V0H.7739868Z"/>
<path id="font_5_45" d="M.3600006 .12817383C.3600006 .18313599 .32299806 .21710205 .32099916 .22009278 .28199769 .25506593 .25498963 .26106263 .20498657 .27005006 .1499939 .28103639 .10398865 .29103089 .10398865 .33998109 .10398865 .40193177 .17599488 .40193177 .18899536 .40193177 .22099304 .40193177 .27398683 .39793397 .33099366 .3639679L.34298707 .42892457C.29100038 .45292665 .25 .4609375 .19898987 .4609375 .17399597 .4609375 .032989503 .4609375 .032989503 .32998658 .032989503 .28103639 .06199646 .24906922 .08699036 .23008728 .117996219 .20809937 .13999939 .20411682 .19499207 .19311524 .23098755 .18612671 .2889862 .1741333 .2889862 .1211853 .2889862 .052246095 .20999146 .052246095 .19499207 .052246095 .11399841 .052246095 .057998659 .08921814 .039993287 .10121155L.027999878 .0332489C.05999756 .01725769 .114990238-.0107421879 .19599915-.0107421879 .21398926-.0107421879 .2689972-.0107421879 .31199647 .021255494 .34298707 .04525757 .3600006 .08522034 .3600006 .12817383Z"/>
<path id="font_5_23" d="M.43499757 0V.29804994C.43499757 .36405946 .41999818 .45507813 .2979889 .45507813 .23599243 .45507813 .18798828 .42407228 .1559906 .3830719V.69433596H.08099365V0H.15899658V.2450409C.15899658 .31105042 .18399048 .3940735 .2599945 .3940735 .35598756 .3940735 .35699464 .32305909 .35699464 .29104615V0H.43499757Z"/>
<path id="font_5_39" d="M.30899049 .25C.30899049 .57299807 .16499329 .70599368 .116989139 .75H.055999757C.10398865 .70199587 .23098755 .57299807 .23098755 .25 .23098755 .19400025 .22799683 .07699585 .18699646-.041000368 .1459961-.15701294 .08898926-.2170105 .055999757-.25H.116989139C.14898682-.22000122 .21598816-.15901184 .2619934-.036010744 .3019867 .070999149 .30899049 .1769867 .30899049 .25Z"/>
<path id="font_5_26" d="M.651001 0 .36898805 .42019654 .6369934 .69433596H.5439911L.18099976 .32315064V.69433596H.09599304V0H.18099976V.22709656L.31399537 .36416627 .5589905 0H.651001Z"/>
<path id="font_5_67" d="M.32699586 .38806153V.45507813C.23799134 .45407105 .18299866 .4050598 .1519928 .35905458V.45007325H.08198547V0H.15699768V.21403504C.15699768 .31404115 .22898865 .38606263 .32699586 .38806153M.32598878 .6972656H.2669983L.17098999 .5743408 .07499695 .6972656H.015991211L.14099121 .5253906H.20098877L.32598878 .6972656Z"/>
<path id="font_5_54" d="M.44599916 .44433595H.37098695L.2919922 .23617554C.2709961 .18113709 .23999024 .10006714 .23199463 .05303955H.23098755C.22499085 .08906555 .19898987 .15811157 .18899536 .18513489L.09199524 .44433595H.01399231L.18598938 0H.27398683L.44599916 .44433595Z"/>
<path id="font_5_27" d="M.47099305 0 .2809906 .27212525 .44898988 .4441986H.35899354L.1559906 .23609925V.69433596H.083999637V0H.15299988V.1410675L.23298645 .22410584 .3889923 0H.47099305Z"/>
<path id="font_5_57" d="M.44599916 .44433595H.37098695C.24099732 .12605286 .23899842 .08001709 .23799134 .056991579H.23699951C.23098755 .124053958 .15098572 .31021119 .14698792 .31921388L.09298706 .44433595H.01399231L.20799256 0 .17199707-.09005737C.1459961-.14808655 .1289978-.14808655 .114990238-.14808655 .09899902-.14808655 .066986087-.14408875 .036987306-.13208008L.042999269-.19708252C.06498718-.2020874 .09298706-.20507813 .114990238-.20507813 .1499939-.20483399 .18699646-.19282532 .22799683-.09082031L.44599916 .44433595Z"/>
<path id="font_5_34" d="M.67900088 .34466554C.67900088 .5547638 .5339966 .7158203 .36799623 .7158203 .19799805 .7158203 .055999757 .5527649 .055999757 .34466554 .055999757 .13256836 .20399475-.022460938 .36698915-.022460938 .5339966-.022460938 .67900088 .13456726 .67900088 .34466554M.58999636 .35968019C.58999636 .1645813 .48199464 .042526246 .36799623 .042526246 .25 .042526246 .14498902 .16758728 .14498902 .35968019 .14498902 .5427704 .25498963 .6518097 .36698915 .6518097 .48298646 .6518097 .58999636 .5387573 .58999636 .35968019Z"/>
<path id="font_5_4" d="M.47999574 .22306824C.47999574 .34707643 .4119873 .45507813 .31799317 .45507813 .2789917 .45503236 .21699524 .44500733 .15699768 .39595033V.69433596H.08198547V-.000045776369L.1599884 .00024414063V.04624939C.18399048 .024246216 .22698975-.0107421879 .2939911-.0107421879 .3939972-.0107421879 .47999574 .08920288 .47999574 .22306824M.4019928 .22306824C.4019928 .09320068 .31799317 .050247194 .25698854 .050247194 .21798706 .050247194 .18499756 .068237308 .1599884 .11418152V.33496095C.17599488 .35906983 .21199036 .3940735 .2669983 .3940735 .32598878 .3940735 .4019928 .35107423 .4019928 .22306824Z"/>
<path id="font_5_61" d="M.18399048-.058670045V.44433595H.10899353V-.06867981C.10899353-.13609314 .051986696-.14108277 .033996583-.14108277 .005996704-.14108277-.018005372-.13108826-.040008546-.11009216L-.06100464-.17108155C-.013000488-.19908142 .032989503-.20507813 .05899048-.20507813 .12199402-.20500183 .18399048-.15301514 .18399048-.059005739V-.058670045M.18399048 .5662689V.65527346H.09498596V.5662689H.18399048Z"/>
<path id="font_5_33" d="M.43499757 0V.29804994C.43499757 .36405946 .41999818 .45507813 .2979889 .45507813 .20799256 .45507813 .15899658 .3870697 .15299988 .3790741V.45007325H.08099365V0H.15899658V.2450409C.15899658 .31105042 .18399048 .3940735 .2599945 .3940735 .35598756 .3940735 .35699464 .32305909 .35699464 .29104615V0H.43499757Z"/>
<path id="font_5_62" d="M.40899659 .00024414063V.28903199C.40899659 .39094544 .33599855 .4609375 .24398804 .4609375 .1789856 .4609375 .13398743 .44493104 .08699036 .41792298L.09298706 .3519745C.14498902 .38894654 .19499207 .40193177 .24398804 .40193177 .29100038 .40193177 .33099366 .361969 .33099366 .2880249V.24505615C.18099976 .24305725 .053985597 .20106507 .053985597 .11317444 .053985597 .07022095 .08099365-.0107421879 .16799927-.0107421879 .18199158-.0107421879 .27598573-.008743286 .33399964 .036254884V.00024414063H.40899659M.33099366 .13214112C.33099366 .11317444 .33099366 .0881958 .29699708 .069229129 .2679901 .051254274 .22999573 .050247194 .21899414 .050247194 .17098999 .050247194 .12599182 .07322693 .12599182 .11515808 .12599182 .18507385 .28799439 .19206238 .33099366 .19406128V.13214112M.3809967 .69433596H.30299378L.16999817 .52734377H.23098755L.3809967 .69433596Z"/>
<path id="font_5_66" d="M.1559906 0V.44433595H.08099365V0H.1559906M.2919922 .69433596H.21398926L.08099365 .52734377H.14199829L.2919922 .69433596Z"/>
<path id="font_5_29" d="M.1559906 0V.69433596H.08099365V0H.1559906Z"/>
<path id="font_5_71" d="M.4019928 0V.06199646H.25498963C.24299622 .06199646 .23098755 .06098938 .21899414 .06098938H.13398743L.3999939 .40533448V.44433595H.041992189V.3853302H.18099976C.19299317 .3853302 .20498657 .38632203 .21699524 .38632203H.29499818L.027999878 .040985109V0H.4019928M.37199403 .6972656H.31298829L.21699524 .5743408 .12098694 .6972656H.06199646L.18699646 .5253906H.24699402L.37199403 .6972656Z"/>
<path id="font_5_65" d="M.4139862 .21875C.4139862 .25274659 .41299439 .32781983 .37399293 .38790895 .33299256 .4499359 .27198792 .4609375 .23599243 .4609375 .125 .4609375 .034988405 .3548584 .034988405 .22573853 .034988405 .09411621 .1309967-.0107421879 .25099183-.0107421879 .31399537-.0107421879 .37098695 .013244629 .4099884 .041244508L.4039917 .1060791C.34098817 .054244996 .2749939 .050247194 .2519989 .050247194 .17199707 .050247194 .10798645 .121032718 .10499573 .21875H.4139862M.35699464 .27374269H.10998535C.12599182 .34985353 .1789856 .39993287 .23599243 .39993287 .28799439 .39993287 .34399415 .36587525 .35699464 .27374269M.3769989 .6972656H.31799317L.22200012 .5743408 .12599182 .6972656H.066986087L.19198609 .5253906H.2519989L.3769989 .6972656Z"/>
<path id="font_5_68" d="M.3600006 .12817383C.3600006 .18313599 .32299806 .21710205 .32099916 .22009278 .28199769 .25506593 .25498963 .26106263 .20498657 .27005006 .1499939 .28103639 .10398865 .29103089 .10398865 .33998109 .10398865 .40193177 .17599488 .40193177 .18899536 .40193177 .22099304 .40193177 .27398683 .39793397 .33099366 .3639679L.34298707 .42892457C.29100038 .45292665 .25 .4609375 .19898987 .4609375 .17399597 .4609375 .032989503 .4609375 .032989503 .32998658 .032989503 .28103639 .06199646 .24906922 .08699036 .23008728 .117996219 .20809937 .13999939 .20411682 .19499207 .19311524 .23098755 .18612671 .2889862 .1741333 .2889862 .1211853 .2889862 .052246095 .20999146 .052246095 .19499207 .052246095 .11399841 .052246095 .057998659 .08921814 .039993287 .10121155L.027999878 .0332489C.05999756 .01725769 .114990238-.0107421879 .19599915-.0107421879 .21398926-.0107421879 .2689972-.0107421879 .31199647 .021255494 .34298707 .04525757 .3600006 .08522034 .3600006 .12817383M.34700013 .6972656H.28799439L.19198609 .5743408 .09599304 .6972656H.036987306L.1619873 .5253906H.22200012L.34700013 .6972656Z"/>
<path id="font_5_8" d="M.4149933 .040252687 .40899659 .10719299C.35798646 .067230228 .3039856 .053253175 .25299073 .053253175 .16999817 .053253175 .11399841 .1251831 .11399841 .2230835 .11399841 .3010254 .15098572 .39692689 .25698854 .39692689 .30899049 .39692689 .34298707 .38893128 .397995 .3529663L.4099884 .41792298C.35099793 .4519348 .31698609 .4609375 .2559967 .4609375 .116989139 .4609375 .035995485 .33998109 .035995485 .22209168 .035995485 .09820557 .1269989-.0107421879 .2519989-.0107421879 .30599977-.0107421879 .36099244 .003250122 .4149933 .040252687Z"/>
<path id="font_5_51" d="M.43499757 .00024414063V.44433595H.35699464V.15426636C.35699464 .07925415 .30099488 .04425049 .23699951 .04425049 .1659851 .04425049 .15899658 .070251468 .15899658 .11326599V.44433595H.08099365V.10926819C.08099365 .037246705 .10398865-.0107421879 .18699646-.0107421879 .23999024-.0107421879 .31098939 .0052490236 .3600006 .04824829V.00024414063H.43499757Z"/>
<clipPath id="clip_6">
<path transform="matrix(1,0,0,-1,23.63,137.513)" d="M0 0H5.632V5.632H0Z"/>
</clipPath>
<path id="font_3_29" d="M.7539978 0V.69433596H.6399994L.526001 .3861847C.47399903 .24610901 .43499757 .1410675 .4249878 .09503174H.42399598C.42099 .11204529 .4079895 .14906311 .394989 .18807984 .3769989 .2421112 .3769989 .2441101 .36099244 .28512574L.20899964 .69433596H.09498596V0H.17199707V.6172943H.17298889C.18699646 .5492554 .34899903 .12104797 .3869934 .020996094H.45999146C.49299623 .107040408 .6579895 .54325869 .6759949 .61828616H.6769867V0H.7539978Z"/>
<path id="font_3_38" d="M.46598817 .22315979C.46598817 .3441162 .4019928 .45410157 .30899049 .45410157 .2679901 .45410157 .20399475 .44110108 .1519928 .39709474V.4440918H.07798767V-.19335938H.1539917V.04522705C.18798828 .014221191 .22999573-.009765625 .28399659-.009765625 .37998963-.009765625 .46598817 .08721924 .46598817 .22315979M.3899994 .22216797C.3899994 .12219238 .32099916 .050231935 .24699402 .050231935 .21899414 .050231935 .19999695 .06022644 .18199158 .07421875 .15699768 .096206668 .1539917 .11419678 .1539917 .13020325V.3361206C.1769867 .37010194 .21499634 .39208985 .2559967 .39208985 .32998658 .39208985 .3899994 .3171234 .3899994 .22216797Z"/>
<path id="font_3_55" d="M.42399598 .00022888184V.44433595H.34799195V.1582489C.34799195 .082229617 .29499818 .04522705 .22999573 .04522705 .1599884 .04522705 .15299988 .07122803 .15299988 .115249637V.44433595H.07699585V.11123657C.07699585 .039230348 .099990848-.009765625 .18199158-.009765625 .20999146-.009765625 .2889862-.004776001 .34999085 .050231935V.00022888184H.42399598Z"/>
<path id="font_3_28" d="M.1519928 0V.69433596H.07798767V0H.1519928Z"/>
<path id="font_3_6" d="M.40699769 .04222107C.40699769 .04522705 .4039917 .07620239 .40299989 .080200199L.40098573 .108184818C.35499574 .07121277 .3039856 .052230836 .24798584 .052230836 .16499329 .052230836 .11099243 .12617493 .11099243 .22309876 .11099243 .30604554 .15098572 .39697267 .25099183 .39697267 .31799317 .39697267 .34599305 .38098146 .3889923 .352005L.40098573 .41697694C.34298707 .4509735 .30999757 .45898438 .25099183 .45898438 .11299133 .45898438 .034988405 .33702088 .034988405 .22309876 .034988405 .095199588 .1269989-.009765625 .24699402-.009765625 .29599-.009765625 .35198976 .0022277833 .40699769 .04222107Z"/>
<path id="font_3_46" d="M.35198976 .12687683C.35198976 .17788697 .32099916 .20988465 .31698609 .21488953 .27999879 .2528839 .25 .25888063 .18899536 .27088929 .15299988 .2778778 .101989749 .28788758 .101989749 .33789063 .101989749 .39988709 .17199707 .39988709 .18499756 .39988709 .23799134 .39988709 .27999879 .38787843 .32398988 .36288453L.33599855 .42788697C.27198792 .4579773 .21798706 .45898438 .19499207 .45898438 .17199707 .45898438 .032989503 .45898438 .032989503 .32902528 .032989503 .2850647 .056991579 .25508119 .07199097 .24108887 .10798645 .21011353 .1329956 .2051239 .19198609 .1931305 .22499085 .18612671 .2829895 .1741333 .2829895 .121170047 .2829895 .052230836 .20498657 .052230836 .19099427 .052230836 .15098572 .052230836 .09298706 .06321716 .038986207 .10218811L.026992798 .034225465C.03199768 .031219483 .099990848-.009765625 .19198609-.009765625 .32099916-.009765625 .35198976 .068222049 .35198976 .12716675V.12687683Z"/>
<path id="font_5_11" d="M.43399049-.0001373291V.69433596H.35899354V.39985658C.30599977 .44407655 .25 .45507813 .21299744 .45507813 .11399841 .45507813 .035995485 .35107423 .035995485 .22210694 .035995485 .09111023 .11299133-.0107421879 .20799256-.0107421879 .24099732-.0107421879 .2999878-.0017547608 .35598756 .052246095V.00024414063L.43399049-.0001373291M.35598756 .13911438C.35598756 .12512207 .35499574 .1071167 .32299806 .078125 .2999878 .05821228 .2749939 .050247194 .24899292 .050247194 .18699646 .050247194 .11399841 .09712219 .11399841 .22109986 .11399841 .35307313 .19999695 .3940735 .25898744 .3940735 .3039856 .39385987 .33399964 .37086488 .35598756 .3388672V.13911438Z"/>
<path id="font_5_17" d="M.45700074 .6123047V.6953125H.37399293V.6123047H.45700074M.45298768 0V.44433595H.37799073V0H.45298768M.2939911 .38632203V.44433595H.17298889V.5654297C.17298889 .629364 .20899964 .6440735 .23399353 .6440735 .25498963 .6440735 .2769928 .63720706 .2939911 .62641909V.69407656C.28799439 .69607546 .2630005 .7050781 .23399353 .7050781 .1599884 .7050781 .100997928 .63523867 .100997928 .5354004V.44433595H.026992798V.38632203H.100997928V0H.17599488V.38632203H.2939911Z"/>
<path id="font_5_10" d="M.6649933 .341156C.6649933 .5352783 .5299988 .69433596 .35798646 .69433596H.09599304V0H.35899354C.5289917 0 .6649933 .15205384 .6649933 .341156M.57899478 .341156C.57899478 .17106629 .47499085 .055999757 .33499146 .055999757H.18199158V.6383209H.33499146C.47499085 .6383209 .57899478 .5172577 .57899478 .341156Z"/>
<path id="font_5_16" d="M.34700013 .62709048V.69407656C.33499146 .69706729 .3039856 .7050781 .2669983 .7050781 .17298889 .7050781 .100997928 .634079 .100997928 .5342102V.44433595H.026992798V.38632203H.100997928V0H.17599488V.38632203H.28599549V.44433595H.17298889V.5631714C.17298889 .63708499 .23999024 .6440735 .2659912 .6440735 .28599549 .6440735 .31298829 .6420746 .34700013 .62709048Z"/>
<path id="font_5_2" d="M.40899659 .00024414063V.28903199C.40899659 .39094544 .33599855 .4609375 .24398804 .4609375 .1789856 .4609375 .13398743 .44493104 .08699036 .41792298L.09298706 .3519745C.14498902 .38894654 .19499207 .40193177 .24398804 .40193177 .29100038 .40193177 .33099366 .361969 .33099366 .2880249V.24505615C.18099976 .24305725 .053985597 .20106507 .053985597 .11317444 .053985597 .07022095 .08099365-.0107421879 .16799927-.0107421879 .18199158-.0107421879 .27598573-.008743286 .33399964 .036254884V.00024414063H.40899659M.33099366 .13214112C.33099366 .11317444 .33099366 .0881958 .29699708 .069229129 .2679901 .051254274 .22999573 .050247194 .21899414 .050247194 .17098999 .050247194 .12599182 .07322693 .12599182 .11515808 .12599182 .18507385 .28799439 .19206238 .33099366 .19406128V.13214112Z"/>
<path id="font_5_44" d="M.49899293 .18856812C.49899293 .25358583 .46798707 .30158998 .44599916 .32559205 .39898683 .3755951 .3659973 .38459779 .27398683 .40760804 .21598816 .4216156 .19999695 .42562867 .16999817 .4516449 .16299439 .45765687 .1349945 .48667909 .1349945 .53071597 .1349945 .58976748 .18899536 .6498108 .2809906 .6498108 .36499024 .6498108 .41299439 .6167908 .44999696 .5857544L.46499635 .66581729C.4099884 .69880679 .35499574 .7158203 .28199769 .7158203 .14299011 .7158203 .055999757 .6177826 .055999757 .5187073 .055999757 .47566224 .069992069 .43362428 .10998535 .39160157 .1519928 .34658814 .19599915 .33459474 .25498963 .32058717 .33999635 .29959107 .34999085 .29658509 .37799073 .27157594 .397995 .25457765 .41999818 .22157288 .41999818 .17855835 .41999818 .11254883 .36499024 .046524049 .27398683 .046524049 .23298645 .046524049 .14299011 .056533815 .05899048 .12754822L.04399109 .046524049C.13198853-.008468628 .21199036-.022460938 .2749939-.022460938 .40699769-.022460938 .49899293 .07853699 .49899293 .18856812Z"/>
<clipPath id="clip_7">
<path transform="matrix(1,0,0,-1,23.63,210.24102)" d="M0 0H5.632V5.632H0Z"/>
</clipPath>
<path id="font_3_23" d="M.17599488 0V.69433596H.08999634V0H.17599488Z"/>
<path id="font_3_49" d="M.43499757 .73098757C.43499757 .74398806 .4249878 .75 .4169922 .75 .4039917 .75 .40098573 .7409973 .3959961 .7279968L.05899048-.21400452C.053985597-.227005 .053985597-.23100281 .053985597-.23100281 .053985597-.2420044 .06199646-.25 .07299805-.25 .085998538-.25 .08898926-.2400055 .09298706-.2290039L.42999269 .71398928C.43499757 .72698977 .43499757 .73098757 .43499757 .73098757Z"/>
<path id="font_3_11" d="M.54100039 0V.067993167H.4099884C.397995 .067993167 .38598634 .066986087 .37399293 .066986087H.17599488V.33007813H.5V.39007569H.17599488V.6298981H.31199647C.32398988 .6298981 .33599855 .62890627 .34799195 .62890627H.5279999V.69189456H.08999634V0H.54100039Z"/>
<path id="font_3_60" d="M.44699098 0 .2539978 .22917176 .43099977 .44433595H.34700013L.22099304 .2822113 .08999634 .44433595H.004989624L.18699646 .22917176 0 0H.08299255L.22099304 .18612671 .36299134 0H.44699098Z"/>
<path id="font_5_15" d="M.526001 .6263275V.69132998H.09399414V0H.18299866V.31497193H.4850006V.37597657H.18299866V.6273346H.31399537C.32598878 .6273346 .33799745 .6263275 .34999085 .6263275H.526001Z"/>
<path id="font_5_1" d="M.6380005 0 .3769989 .69433596H.2889862L.027999878 0H.101989749L.1789856 .20410156H.46998597L.54599 0H.6380005M.44799806 .26010133H.19999695C.25099183 .40316773 .21398926 .29811097 .2649994 .44119264 .28599549 .5002289 .31698609 .5852661 .32398988 .62228396H.32499696C.32699586 .60827639 .33399964 .5832672 .35699464 .5172272L.44799806 .26010133Z"/>
<path id="font_5_36" d="M.58200076 .4921875C.58200076 .59928897 .48298646 .69433596 .34498597 .69433596H.09599304V0H.18499756V.2890625H.35198976C.47599793 .2890625 .58200076 .38008119 .58200076 .4921875M.5009918 .4921875C.5009918 .41311646 .43798829 .34706117 .32299806 .34706117H.18199158V.6383209H.32299806C.43299867 .6383209 .5009918 .5772705 .5009918 .4921875Z"/>
<path id="font_5_25" d="M.18299866 0V.69433596H.09399414V0H.18299866Z"/>
<path id="font_8_4" d="M.6230011 .04623413 .61698916 .12220764C.58599856 .10221863 .55400088 .082214359 .5189972 .07122803 .48399354 .06022644 .44799806 .05921936 .4119873 .05921936 .34498597 .05921936 .2829895 .09222412 .23899842 .14320374 .19099427 .20019531 .16799927 .27316285 .16799927 .3471527 .16799927 .4221344 .19099427 .4941101 .23899842 .5511017 .2829895 .6020813 .34498597 .6350708 .4119873 .6350708 .44400025 .6350708 .47599793 .6320801 .5069885 .6230774 .5389862 .6130829 .56799319 .5970764 .59599307 .5790863L.6119995 .67007449C.5799866 .68107607 .5469971 .69107058 .5130005 .69706729 .47999574 .70306399 .44599916 .7050781 .4119873 .7050781 .31999208 .7050781 .23199463 .66607668 .16799927 .6000824 .102996829 .5321045 .066986087 .4411316 .066986087 .3471527 .066986087 .25317384 .102996829 .16220093 .16799927 .09422302 .23199463 .02822876 .31999208-.009765625 .4119873-.009765625 .44898988-.009765625 .48599244-.008773804 .5219879 .00022888184 .55799868 .010223389 .59098818 .02722168 .6230011 .04623413Z"/>
<path id="font_8_16" d="M.46499635 0V.29606629C.46499635 .37408448 .44198609 .45410157 .31900025 .45410157 .23298645 .45410157 .18699646 .4040985 .16699219 .38308717V.69433596H.08299255V0H.16999817V.24305725C.16999817 .30906678 .19799805 .38809205 .2749939 .38809205 .37799073 .38809205 .37799073 .31806947 .37799073 .2890625V0H.46499635Z"/>
<path id="font_8_20" d="M.16799927 0V.69433596H.083999637V0H.16799927Z"/>
<path id="font_8_40" d="M.46499635 .00022888184V.44433595H.37799073V.1542511C.37799073 .07423401 .30999757 .049224855 .2519989 .049224855 .17799378 .049224855 .16999817 .069229129 .16999817 .115249637V.44433595H.08299255V.10923767C.08299255 .020233155 .12199402-.009765625 .19198609-.009765625 .23298645-.009765625 .32099916-.0017700195 .3809967 .04623413V.00022888184H.46499635Z"/>
<path id="font_8_7" d="M.46299745 .00022888184V.69433596H.3789978V.40109254C.31498719 .4480896 .25 .45410157 .22099304 .45410157 .115997318 .45410157 .035995485 .34910584 .035995485 .22216797 .035995485 .095214847 .114990238-.009765625 .21798706-.009765625 .27999879-.009765625 .33799745 .018234253 .37599183 .052230836V.00022888184H.46299745M.37599183 .12420654C.35099793 .083221439 .31298829 .056228639 .2649994 .056228639 .19499207 .056228639 .12298584 .10520935 .12298584 .22116089 .12298584 .3461151 .20799256 .38809205 .27598573 .38809205 .31599427 .38809205 .34999085 .37109376 .37599183 .33711244V.12420654Z"/>
<path id="font_8_46" d="M.16799927 0V.44433595H.083999637V0H.16799927M.1769867 .5601196V.6611328H.07598877V.5601196H.1769867Z"/>
<path id="font_8_27" d="M.35299684-.25C.34999085-.2480011 .25299073-.16500855 .20698548-.009002686 .18299866 .069000247 .17098999 .15098572 .17098999 .25 .17098999 .59599307 .33299256 .7330017 .35299684 .75H.30499269C.28799439 .75 .28599549 .75 .27398683 .7389984 .147995 .6289978 .083999637 .45098878 .083999637 .25 .083999637 .06098938 .14099121-.1210022 .272995-.23701477 .28599549-.25 .28799439-.25 .30499269-.25H.35299684Z"/>
<path id="font_8_10" d="M.5629883 .62109377V.6910858H.09700012V0H.19799805V.31289674H.5179901V.37890626H.19799805V.6220856H.33699037C.34899903 .6220856 .36099244 .62109377 .37298585 .62109377H.5629883Z"/>
<path id="font_8_18" d="M.19799805 0V.69433596H.09700012V0H.19799805Z"/>
<path id="font_8_36" d="M.68699648 .6171875V.68717959H.037994386V.6171875H.18199158C.19400025 .6171875 .20599365 .6181793 .21798706 .6181793H.31199647V0H.41299439V.6181793H.5069885C.5189972 .6181793 .5309906 .6171875 .54299929 .6171875H.68699648Z"/>
<path id="font_8_28" d="M.32798768 .25C.32798768 .43899537 .2709961 .62098696 .13899231 .7369995 .12599182 .75 .12399292 .75 .10699463 .75H.05899048C.06199646 .7480011 .15899658 .6649933 .20498657 .5089874 .22898865 .43099977 .24099732 .34899903 .24099732 .25 .24099732-.0960083 .07899475-.23300171 .05899048-.25H.10699463C.12399292-.25 .12599182-.25 .13798523-.23901367 .2639923-.12901306 .32798768 .04899597 .32798768 .25Z"/>
<path id="font_8_3" d="M.647995 .18798828C.647995 .27598573 .5549927 .34700013 .44400025 .36299134 .5479889 .38812257 .6179962 .4481659 .6179962 .52023318 .6179962 .6123047 .5029907 .69433596 .35598756 .69433596H.099990848V0H.3849945C.5329895 0 .647995 .088012699 .647995 .18804932V.18798828M.5309906 .5192261C.5309906 .4521637 .43998719 .39411927 .32699586 .39411927H.19400025V.6353302H.32598878C.43798829 .6353302 .5309906 .5832825 .5309906 .5192261M.5569916 .1890564C.5569916 .11502075 .46398927 .05899048 .35398866 .05899048H.19400025V.328125H.33699037C.46299745 .328125 .5569916 .26408387 .5569916 .1890564Z"/>
<path id="font_8_17" d="M.2939911 .19090271V.25390626H.011993408V.19090271H.2939911Z"/>
<path id="font_8_26" d="M.61898806 .49124146C.61898806 .5983124 .5130005 .69433596 .36799623 .69433596H.09799194V0H.19898987V.28515626H.375C.5039978 .28515626 .61898806 .37615968 .61898806 .49124146M.5279999 .49124146C.5279999 .40919496 .45999146 .3471527 .34298707 .3471527H.19599915V.6353302H.34298707C.45599366 .6353302 .5279999 .57528689 .5279999 .49124146Z"/>
<path id="font_8_14" d="M.6349945 .039230348V.30036927H.4119873V.234375H.5479889V.07923889C.5039978 .0662384 .45799256 .05921936 .4119873 .05921936 .34498597 .05921936 .2829895 .09225464 .23899842 .14329529 .19099427 .2003479 .16799927 .2733612 .16799927 .34732057 .16799927 .42225648 .19099427 .49420167 .23899842 .55114749 .2829895 .60209658 .34498597 .6350708 .4119873 .6350708 .44699098 .6350708 .48298646 .631073 .5169983 .6190796 .5509949 .6070862 .58200076 .58810427 .61099246 .5651245L.6269989 .6560669C.59298709 .67207339 .55799868 .6860657 .5219879 .69407656 .48599244 .70207217 .44898988 .7050781 .4119873 .7050781 .31999208 .7050781 .23199463 .66607668 .16799927 .60009768 .102996829 .5321655 .066986087 .4412384 .066986087 .34732057 .066986087 .2533722 .102996829 .16230774 .16799927 .09425354 .23199463 .02822876 .31999208-.009765625 .4119873-.009765625 .4889984-.009765625 .5649872 .006225586 .6349945 .039230348Z"/>
<path id="font_8_1" d="M.6769867 0 .4019928 .69433596H.30499269L.02999878 0H.11199951L.18998719 .19824219H.49398805L.57199099 0H.6769867M.46899415 .25723268H.21499634L.34298707 .61831668 .46899415 .25723268Z"/>
<path id="font_8_6" d="M.19198609 .0009918213V.08999634H.101989749V0H.12998963L.100997928-.12792969H.1459961L.19198609 .0009918213Z"/>
<path id="font_8_52" d="M.34700013 .38008119V.45410157C.2630005 .45309449 .20199585 .41207887 .1619873 .35906983V.45109559H.084991458V0H.16899109V.21304322C.16899109 .32106019 .25898744 .3790741 .34700013 .38008119M.33699037 .6972656H.27799989L.18199158 .5743408 .085998538 .6972656H.026992798L.1519928 .5253906H.21199036L.33699037 .6972656Z"/>
<path id="font_8_8" d="M.43998719 .21928406C.43998719 .2652893 .43499757 .33213807 .3959961 .3889923 .3600006 .43997193 .2999878 .45898438 .25099183 .45898438 .1289978 .45898438 .034988405 .35209657 .034988405 .22529602 .034988405 .09724426 .1349945-.009765625 .2669983-.009765625 .32499696-.009765625 .3849945 .007232666 .43598939 .038223268L.42999269 .10925293C.37399293 .069229129 .31098939 .056228639 .2679901 .056228639 .18099976 .056228639 .114990238 .1272583 .11199951 .21928406H.43998719M.3789978 .27929688H.11898804C.14199829 .35906983 .20098877 .39297486 .25099183 .39297486 .29499818 .39297486 .3600006 .3720398 .3789978 .27929688Z"/>
<path id="font_8_22" d="M.46499635 0V.29606629C.46499635 .37408448 .44198609 .45410157 .31900025 .45410157 .2619934 .45410157 .20698548 .4310913 .16299439 .37808229V.45109559H.08299255V0H.16999817V.24305725C.16999817 .30906678 .19799805 .38809205 .2749939 .38809205 .37799073 .38809205 .37799073 .31806947 .37799073 .2890625V0H.46499635Z"/>
<path id="font_8_47" d="M.43598939 .00022888184V.28799439C.43598939 .38998414 .35798646 .45898438 .25898744 .45898438 .19599915 .45898438 .147995 .4459839 .09199524 .41596986L.09799194 .34298707C.1309967 .36497499 .17999268 .39497376 .25898744 .39497376 .30299378 .39497376 .34899903 .36198426 .34899903 .2869873V.24699402C.20098877 .24198914 .054992677 .21099854 .054992677 .118118289 .054992677 .06820679 .08898926-.009765625 .1769867-.009765625 .21998596-.009765625 .29899598-.00077819827 .35198976 .038223268V.00022888184H.43598939M.34899903 .14207459C.34899903 .12211609 .34899903 .09616089 .31399537 .07519531 .28199769 .05722046 .24299622 .056228639 .23199463 .056228639 .1769867 .056228639 .1349945 .08117676 .1349945 .11911011 .1349945 .18299866 .3039856 .18899536 .34899903 .19099427V.14207459M.40499879 .69433596H.31799317L.18099976 .52734377H.24699402L.40499879 .69433596Z"/>
<path id="font_8_53" d="M.3829956 .1301117C.3829956 .14808655 .3809967 .18702698 .33898927 .22496033 .3019867 .25790406 .2659912 .26489259 .21798706 .27388 .15899658 .2848816 .11299133 .29388429 .11299133 .33789063 .11299133 .39497376 .18598938 .39497376 .20098877 .39497376 .2579956 .39497376 .3019867 .38294984 .35198976 .35691834L.36499024 .42797853C.29699708 .4559784 .24699402 .45898438 .21099854 .45898438 .18598938 .45898438 .034988405 .45898438 .034988405 .32588197 .034988405 .2788849 .06098938 .25291444 .07398987 .24093628 .10899353 .20599365 .15098572 .19799805 .20399475 .1880188 .25099183 .17903137 .30499269 .16905213 .30499269 .12112427 .30499269 .05822754 .22200012 .05822754 .20799256 .05822754 .14399719 .05822754 .083999637 .08119202 .04399109 .10914612L.02999878 .034225465C.06399536 .017227173 .125-.009765625 .20799256-.009765625 .25299073-.009765625 .29699708-.0027770997 .33399964 .024230957 .37098695 .052230836 .3829956 .09616089 .3829956 .1301117M.35899354 .6972656H.2999878L.20399475 .5743408 .10798645 .6972656H.04899597L.17399597 .5253906H.23399353L.35899354 .6972656Z"/>
<path id="font_8_19" d="M.5 0 .29899598 .27212525 .47698976 .4441986H.37998963L.1659851 .23710633V.69433596H.08799744V0H.1619873V.14006043L.24699402 .22209168 .4119873 0H.5Z"/>
<path id="font_8_2" d="M.43598939 .00022888184V.28799439C.43598939 .38998414 .35798646 .45898438 .25898744 .45898438 .19599915 .45898438 .147995 .4459839 .09199524 .41596986L.09799194 .34298707C.1309967 .36497499 .17999268 .39497376 .25898744 .39497376 .30299378 .39497376 .34899903 .36198426 .34899903 .2869873V.24699402C.20098877 .24198914 .054992677 .21099854 .054992677 .118118289 .054992677 .06820679 .08898926-.009765625 .1769867-.009765625 .21998596-.009765625 .29899598-.00077819827 .35198976 .038223268V.00022888184H.43598939M.34899903 .14207459C.34899903 .12211609 .34899903 .09616089 .31399537 .07519531 .28199769 .05722046 .24299622 .056228639 .23199463 .056228639 .1769867 .056228639 .1349945 .08117676 .1349945 .11911011 .1349945 .18299866 .3039856 .18899536 .34899903 .19099427V.14207459Z"/>
<path id="font_8_49" d="M.44099427 .036224367 .43499757 .109191898C.3849945 .07720947 .33099366 .05921936 .2689972 .05921936 .1769867 .05921936 .12298584 .13316345 .12298584 .22309876 .12298584 .30004884 .16299439 .38998414 .27198792 .38998414 .33999635 .38998414 .37199403 .37599183 .4229889 .3440094L.43598939 .41596986C.37599183 .4459839 .34999085 .45898438 .27198792 .45898438 .12199402 .45898438 .035995485 .3380127 .035995485 .22210694 .035995485 .10018921 .13198853-.009765625 .2679901-.009765625 .33799745-.009765625 .397995 .011230469 .44099427 .036224367M.4149933 .6972656H.35598756L.2599945 .5743408 .1639862 .6972656H.10499573L.22999573 .5253906H.2899933L.4149933 .6972656Z"/>
<path id="font_8_29" d="M.19198609 0V.08999634H.101989749V0H.19198609Z"/>
<path id="font_8_39" d="M.47698976 0V.07699585H.2829895C.2709961 .07699585 .25898744 .07598877 .24699402 .07598877H.1329956L.28799439 .21289063C.30599977 .22888184 .35499574 .2658844 .37399293 .2818756 .41799928 .3218689 .47698976 .37384034 .47698976 .46081544 .47698976 .573761 .3929901 .6767578 .25 .6767578 .14399719 .6767578 .07798767 .619751 .04399109 .51779177L.09098816 .45881654C.11399841 .5427704 .14898682 .60775759 .23599243 .60775759 .31999208 .60775759 .38398744 .5487671 .38398744 .45881654 .38398744 .37583924 .33499146 .32885743 .2749939 .2718811 .25498963 .25187684 .20098877 .20689392 .17999268 .1869049 .15098572 .16099549 .08198547 .09399414 .052993776 .068984989V0H.47698976Z"/>
<path id="font_8_43" d="M.59498599 0V.070999149H.49499513L.18899536 .068984989 .58898928 .6503296V.69433596H.07398987V.6273346H.2829895C.29699708 .6273346 .30899049 .6283264 .32299806 .6283264H.45999146L.05899048 .04598999V0H.59498599Z"/>
<path id="font_8_31" d="M.5299988 .19158936C.5299988 .27262879 .48298646 .3186493 .46299745 .33966065 .42099 .38069154 .375 .39169313 .2979889 .4096985 .23699951 .42370606 .20498657 .43171693 .18099976 .45472718 .16799927 .46774293 .14498902 .49075318 .14498902 .5287781 .14498902 .58480837 .20098877 .6428375 .2979889 .6428375 .37399293 .6428375 .4269867 .6188202 .47799684 .5757904L.49398805 .6658325C.42999269 .6988373 .37298585 .71484377 .29899598 .71484377 .147995 .71484377 .05899048 .6128235 .05899048 .5167694 .05899048 .47573854 .07199097 .42771913 .12098694 .38168336 .16499329 .34066773 .21099854 .33065797 .272995 .31565858 .35699464 .29563905 .37998963 .29063417 .40899659 .26062013 .42799378 .24160767 .44400025 .21359253 .44400025 .17958069 .44400025 .11753845 .3880005 .053512575 .29100038 .053512575 .23399353 .053512575 .14199829 .070510867 .06298828 .13755799L.04699707 .04750061C.09700012 .018508912 .17999268-.021484375 .2919922-.021484375 .43099977-.021484375 .5299988 .07952881 .5299988 .19158936Z"/>
<path id="font_8_45" d="M.48799134 .32463075C.48799134 .37265016 .48799134 .48970033 .44099427 .57173159 .3899994 .66174319 .31298829 .6767578 .2649994 .6767578 .21998596 .6767578 .14199829 .66275027 .09199524 .57673647 .04399109 .4967041 .041992189 .38764955 .041992189 .32463075 .041992189 .2505951 .04598999 .15956116 .08799744 .08352661 .13198853 .0025024415 .20599365-.021484375 .2649994-.021484375 .36499024-.021484375 .41999818 .036514284 .44999696 .09953308 .4850006 .17056275 .48799134 .26260377 .48799134 .32463075M.40098573 .33763124C.40098573 .27160646 .40098573 .19657898 .3769989 .1325531 .34899903 .060516359 .2979889 .044509889 .2649994 .044509889 .22299195 .044509889 .1749878 .06851196 .1499939 .1405487 .12998963 .20158386 .1289978 .26460267 .1289978 .33763124 .1289978 .42967225 .1289978 .6107483 .2649994 .6107483 .40098573 .6107483 .40098573 .42967225 .40098573 .33763124Z"/>
<path id="font_8_13" d="M.5 .16699219V.23298645H.3959961V.65625H.29699708L.02999878 .23298645V.16699219H.30999757V0H.3959961V.16699219H.5M.31698609 .23298645H.114990238C.14498902 .28001405 .31599427 .5471802 .31698609 .60720828V.23298645Z"/>
<path id="font_8_35" d="M.47099305 .72698977C.47099305 .73999026 .46099855 .75 .44799806 .75 .43199159 .75 .42799378 .73799136 .4229889 .7259979L.06399536-.2090149C.05899048-.2210083 .05899048-.227005 .05899048-.227005 .05899048-.2400055 .068984989-.25 .08198547-.25 .09799194-.25 .101989749-.23800659 .10699463-.22601319L.46598817 .70899966C.47099305 .72099307 .47099305 .72698977 .47099305 .72698977Z"/>
<path id="font_8_12" d="M.47698976 .20271302C.47698976 .32676698 .3849945 .42578126 .2749939 .42578126 .23199463 .42578126 .19400025 .4107666 .1639862 .3857727V.58724978H.44099427V.65625H.083999637V.28173829H.15699768C.18099976 .33576966 .22799683 .35977174 .272995 .35977174 .31399537 .35977174 .37599183 .3317566 .37599183 .20471192 .37599183 .07357788 .29299928 .044509889 .24198914 .044509889 .17599488 .044509889 .11199951 .079589847 .07798767 .13671875L.039993287 .07658386C.08898926 .01550293 .16299439-.021484375 .24198914-.021484375 .37399293-.02128601 .47698976 .080703739 .47698976 .20271302Z"/>
<path id="font_8_33" d="M.48599244 .5862427V.65625H.04399109V.5792389H.24699402C.25898744 .5792389 .2709961 .580246 .2829895 .580246H.40899659C.25698854 .4312439 .1599884 .222229 .1599884-.009765625H.2539978C.2539978 .28224183 .3959961 .49224855 .48599244 .5862427Z"/>
</defs>
<path transform="matrix(1,0,0,-1,0,272.126)" d="M0 0H362.835V272.126H0Z" fill="#ffffff"/>
<path transform="matrix(1,0,0,-1,0,11.024994)" d="M0 0H181.417V11.025H0Z" fill="#4747ba"/>
<path transform="matrix(1,0,0,-1,181.417,11.024994)" d="M0 0H181.417V11.025H0Z" fill="#adade0"/>
<use data-text="T" xlink:href="#font_1_37" transform="matrix(17.2154,0,0,-17.2154,8.504,35.032014)" fill="#3333b3"/>
<use data-text="y" xlink:href="#font_1_45" transform="matrix(17.2154,0,0,-17.2154,18.19627,35.032014)" fill="#3333b3"/>
<use data-text="p" xlink:href="#font_1_31" transform="matrix(17.2154,0,0,-17.2154,25.633324,35.032014)" fill="#3333b3"/>
<use data-text="y" xlink:href="#font_1_45" transform="matrix(17.2154,0,0,-17.2154,33.50076,35.032014)" fill="#3333b3"/>
<use data-text="m" xlink:href="#font_1_25" transform="matrix(17.2154,0,0,-17.2154,46.34345,35.032014)" fill="#3333b3"/>
<use data-text="o" xlink:href="#font_1_29" transform="matrix(17.2154,0,0,-17.2154,59.168924,35.032014)" fill="#3333b3"/>
<use data-text="d" xlink:href="#font_1_10" transform="matrix(17.2154,0,0,-17.2154,67.70776,35.032014)" fill="#3333b3"/>
<use data-text="u" xlink:href="#font_1_41" transform="matrix(17.2154,0,0,-17.2154,76.040019,35.032014)" fill="#3333b3"/>
<use data-text="l" xlink:href="#font_1_23" transform="matrix(17.2154,0,0,-17.2154,84.37227,35.032014)" fill="#3333b3"/>
<use data-text="&#x016f;" xlink:href="#font_1_57" transform="matrix(17.2154,0,0,-17.2154,88.2113,35.032014)" fill="#3333b3"/>
<use data-text="u" xlink:href="#font_1_41" transform="matrix(17.2154,0,0,-17.2154,101.93198,35.032014)" fill="#3333b3"/>
<use data-text="B" xlink:href="#font_1_3" transform="matrix(17.2154,0,0,-17.2154,115.66986,35.032014)" fill="#3333b3"/>
<use data-text="l" xlink:href="#font_1_23" transform="matrix(17.2154,0,0,-17.2154,126.4467,35.032014)" fill="#3333b3"/>
<use data-text="e" xlink:href="#font_1_12" transform="matrix(17.2154,0,0,-17.2154,130.28574,35.032014)" fill="#3333b3"/>
<use data-text="n" xlink:href="#font_1_27" transform="matrix(17.2154,0,0,-17.2154,137.48178,35.032014)" fill="#3333b3"/>
<use data-text="d" xlink:href="#font_1_10" transform="matrix(17.2154,0,0,-17.2154,145.81404,35.032014)" fill="#3333b3"/>
<use data-text="e" xlink:href="#font_1_12" transform="matrix(17.2154,0,0,-17.2154,154.1463,35.032014)" fill="#3333b3"/>
<use data-text="r" xlink:href="#font_1_35" transform="matrix(17.2154,0,0,-17.2154,161.34235,35.032014)" fill="#3333b3"/>
<use data-text="u" xlink:href="#font_1_41" transform="matrix(17.2154,0,0,-17.2154,166.85128,35.032014)" fill="#3333b3"/>
<use data-text="I" xlink:href="#font_1_20" transform="matrix(17.2154,0,0,-17.2154,180.57196,35.032014)" fill="#3333b3"/>
<g clip-path="url(#clip_2)">
<image x="23" y="59" width="7" height="6" xlink:href="image-404f6dc11b3a908361e9f546.webp"/>
</g>
<use data-text="V" xlink:href="#font_3_56" transform="matrix(11.9552,0,0,-11.9552,35.115,64.985)"/>
<use data-text="y" xlink:href="#font_3_61" transform="matrix(11.9552,0,0,-11.9552,42.527227,64.985)"/>
<use data-text="t" xlink:href="#font_3_51" transform="matrix(11.9552,0,0,-11.9552,47.883157,64.985)"/>
<use data-text="v" xlink:href="#font_3_57" transform="matrix(11.9552,0,0,-11.9552,52.115297,64.985)"/>
<use data-text="&#x00e1;" xlink:href="#font_3_67" transform="matrix(11.9552,0,0,-11.9552,57.471227,64.985)"/>
<use data-text="&#x0159;" xlink:href="#font_3_72" transform="matrix(11.9552,0,0,-11.9552,62.755426,64.985)"/>
<use data-text="e" xlink:href="#font_3_12" transform="matrix(11.9552,0,0,-11.9552,66.7365,64.985)"/>
<use data-text="n" xlink:href="#font_3_32" transform="matrix(11.9552,0,0,-11.9552,71.93702,64.985)"/>
<use data-text="&#x00ed;" xlink:href="#font_3_71" transform="matrix(11.9552,0,0,-11.9552,77.93853,64.985)"/>
<use data-text="g" xlink:href="#font_3_20" transform="matrix(11.9552,0,0,-11.9552,84.58562,64.985)"/>
<use data-text="e" xlink:href="#font_3_12" transform="matrix(11.9552,0,0,-11.9552,90.443668,64.985)"/>
<use data-text="o" xlink:href="#font_3_35" transform="matrix(11.9552,0,0,-11.9552,95.64418,64.985)"/>
<use data-text="m" xlink:href="#font_3_30" transform="matrix(11.9552,0,0,-11.9552,101.50223,64.985)"/>
<use data-text="e" xlink:href="#font_3_12" transform="matrix(11.9552,0,0,-11.9552,110.755558,64.985)"/>
<use data-text="t" xlink:href="#font_3_51" transform="matrix(11.9552,0,0,-11.9552,115.95607,64.985)"/>
<use data-text="r" xlink:href="#font_3_44" transform="matrix(11.9552,0,0,-11.9552,120.18821,64.985)"/>
<use data-text="i" xlink:href="#font_3_65" transform="matrix(11.9552,0,0,-11.9552,124.16929,64.985)"/>
<use data-text="e" xlink:href="#font_3_12" transform="matrix(11.9552,0,0,-11.9552,126.91898,64.985)"/>
<use data-text="a" xlink:href="#font_3_2" transform="matrix(11.9552,0,0,-11.9552,136.01689,64.985)"/>
<use data-text="o" xlink:href="#font_3_35" transform="matrix(11.9552,0,0,-11.9552,145.53324,64.985)"/>
<use data-text="b" xlink:href="#font_3_4" transform="matrix(11.9552,0,0,-11.9552,151.39128,64.985)"/>
<use data-text="j" xlink:href="#font_3_66" transform="matrix(11.9552,0,0,-11.9552,157.39279,64.985)"/>
<use data-text="e" xlink:href="#font_3_12" transform="matrix(11.9552,0,0,-11.9552,160.47724,64.985)"/>
<use data-text="k" xlink:href="#font_3_26" transform="matrix(11.9552,0,0,-11.9552,165.67775,64.985)"/>
<use data-text="t" xlink:href="#font_3_51" transform="matrix(11.9552,0,0,-11.9552,171.35648,64.985)"/>
<use data-text="&#x016f;" xlink:href="#font_3_74" transform="matrix(11.9552,0,0,-11.9552,175.58863,64.985)"/>
<use data-text="&#x25b6;" xlink:href="#font_4_1" transform="matrix(5.9776,0,0,-5.9776,47.337,79.033008)" fill="#3333b3"/>
<use data-text="G" xlink:href="#font_5_20" transform="matrix(10.9091,0,0,-10.9091,58.527,80.52701)"/>
<use data-text="e" xlink:href="#font_5_13" transform="matrix(10.9091,0,0,-10.9091,65.80337,80.52701)"/>
<use data-text="o" xlink:href="#font_5_35" transform="matrix(10.9091,0,0,-10.9091,70.65791,80.52701)"/>
<use data-text="m" xlink:href="#font_5_31" transform="matrix(10.9091,0,0,-10.9091,76.112468,80.52701)"/>
<use data-text="e" xlink:href="#font_5_13" transform="matrix(10.9091,0,0,-10.9091,84.77429,80.52701)"/>
<use data-text="t" xlink:href="#font_5_47" transform="matrix(10.9091,0,0,-10.9091,89.628849,80.52701)"/>
<use data-text="r" xlink:href="#font_5_43" transform="matrix(10.9091,0,0,-10.9091,93.56703,80.52701)"/>
<use data-text="i" xlink:href="#font_5_60" transform="matrix(10.9091,0,0,-10.9091,97.29794,80.52701)"/>
<use data-text="e" xlink:href="#font_5_13" transform="matrix(10.9091,0,0,-10.9091,99.90522,80.52701)"/>
<use data-text="(" xlink:href="#font_5_38" transform="matrix(10.9091,0,0,-10.9091,108.392498,80.52701)"/>
<use data-text="M" xlink:href="#font_5_30" transform="matrix(10.9091,0,0,-10.9091,112.63613,80.52701)"/>
<use data-text="e" xlink:href="#font_5_13" transform="matrix(10.9091,0,0,-10.9091,122.181598,80.52701)"/>
<use data-text="s" xlink:href="#font_5_45" transform="matrix(10.9091,0,0,-10.9091,127.03615,80.52701)"/>
<use data-text="h" xlink:href="#font_5_23" transform="matrix(10.9091,0,0,-10.9091,131.21434,80.52701)"/>
<use data-text=")" xlink:href="#font_5_39" transform="matrix(10.9091,0,0,-10.9091,136.85434,80.52701)"/>
<use data-text="&#x25b6;" xlink:href="#font_4_1" transform="matrix(5.9776,0,0,-5.9776,47.337,92.582)" fill="#3333b3"/>
<use data-text="K" xlink:href="#font_5_26" transform="matrix(10.9091,0,0,-10.9091,58.527,94.076007)"/>
<use data-text="&#x0159;" xlink:href="#font_5_67" transform="matrix(10.9091,0,0,-10.9091,66.097919,94.076007)"/>
<use data-text="i" xlink:href="#font_5_60" transform="matrix(10.9091,0,0,-10.9091,69.82883,94.076007)"/>
<use data-text="v" xlink:href="#font_5_54" transform="matrix(10.9091,0,0,-10.9091,72.436107,94.076007)"/>
<use data-text="k" xlink:href="#font_5_27" transform="matrix(10.9091,0,0,-10.9091,77.4652,94.076007)"/>
<use data-text="y" xlink:href="#font_5_57" transform="matrix(10.9091,0,0,-10.9091,82.79975,94.076007)"/>
<use data-text="&#x25b6;" xlink:href="#font_4_1" transform="matrix(5.9776,0,0,-5.9776,47.337,106.13101)" fill="#3333b3"/>
<use data-text="O" xlink:href="#font_5_34" transform="matrix(10.9091,0,0,-10.9091,58.527,107.625019)"/>
<use data-text="b" xlink:href="#font_5_4" transform="matrix(10.9091,0,0,-10.9091,66.5561,107.625019)"/>
<use data-text="j" xlink:href="#font_5_61" transform="matrix(10.9091,0,0,-10.9091,72.196109,107.625019)"/>
<use data-text="e" xlink:href="#font_5_13" transform="matrix(10.9091,0,0,-10.9091,75.10883,107.625019)"/>
<use data-text="k" xlink:href="#font_5_27" transform="matrix(10.9091,0,0,-10.9091,79.96338,107.625019)"/>
<use data-text="t" xlink:href="#font_5_47" transform="matrix(10.9091,0,0,-10.9091,85.29793,107.625019)"/>
<use data-text="y" xlink:href="#font_5_57" transform="matrix(10.9091,0,0,-10.9091,88.93066,107.625019)"/>
<use data-text="&#x25b6;" xlink:href="#font_4_1" transform="matrix(5.9776,0,0,-5.9776,47.337,119.68002)" fill="#3333b3"/>
<use data-text="G" xlink:href="#font_5_20" transform="matrix(10.9091,0,0,-10.9091,58.527,121.17502)"/>
<use data-text="e" xlink:href="#font_5_13" transform="matrix(10.9091,0,0,-10.9091,65.80337,121.17502)"/>
<use data-text="n" xlink:href="#font_5_33" transform="matrix(10.9091,0,0,-10.9091,70.65791,121.17502)"/>
<use data-text="e" xlink:href="#font_5_13" transform="matrix(10.9091,0,0,-10.9091,76.29792,121.17502)"/>
<use data-text="r" xlink:href="#font_5_43" transform="matrix(10.9091,0,0,-10.9091,81.152469,121.17502)"/>
<use data-text="o" xlink:href="#font_5_35" transform="matrix(10.9091,0,0,-10.9091,84.88338,121.17502)"/>
<use data-text="v" xlink:href="#font_5_54" transform="matrix(10.9091,0,0,-10.9091,90.33793,121.17502)"/>
<use data-text="&#x00e1;" xlink:href="#font_5_62" transform="matrix(10.9091,0,0,-10.9091,95.36703,121.17502)"/>
<use data-text="n" xlink:href="#font_5_33" transform="matrix(10.9091,0,0,-10.9091,100.6143,121.17502)"/>
<use data-text="&#x00ed;" xlink:href="#font_5_66" transform="matrix(10.9091,0,0,-10.9091,106.25431,121.17502)"/>
<use data-text="s" xlink:href="#font_5_45" transform="matrix(10.9091,0,0,-10.9091,112.494319,121.17502)"/>
<use data-text="l" xlink:href="#font_5_29" transform="matrix(10.9091,0,0,-10.9091,116.6725,121.17502)"/>
<use data-text="o" xlink:href="#font_5_35" transform="matrix(10.9091,0,0,-10.9091,119.27978,121.17502)"/>
<use data-text="&#x017e;" xlink:href="#font_5_71" transform="matrix(10.9091,0,0,-10.9091,124.73433,121.17502)"/>
<use data-text="i" xlink:href="#font_5_60" transform="matrix(10.9091,0,0,-10.9091,129.47978,121.17502)"/>
<use data-text="t" xlink:href="#font_5_47" transform="matrix(10.9091,0,0,-10.9091,132.08705,121.17502)"/>
<use data-text="&#x011b;" xlink:href="#font_5_65" transform="matrix(10.9091,0,0,-10.9091,136.02524,121.17502)"/>
<use data-text="j" xlink:href="#font_5_61" transform="matrix(10.9091,0,0,-10.9091,140.87979,121.17502)"/>
<use data-text="&#x0161;" xlink:href="#font_5_68" transform="matrix(10.9091,0,0,-10.9091,143.79253,121.17502)"/>
<use data-text="&#x00ed;" xlink:href="#font_5_66" transform="matrix(10.9091,0,0,-10.9091,147.97072,121.17502)"/>
<use data-text="c" xlink:href="#font_5_8" transform="matrix(10.9091,0,0,-10.9091,150.57799,121.17502)"/>
<use data-text="h" xlink:href="#font_5_23" transform="matrix(10.9091,0,0,-10.9091,155.43254,121.17502)"/>
<use data-text="s" xlink:href="#font_5_45" transform="matrix(10.9091,0,0,-10.9091,164.70528,121.17502)"/>
<use data-text="t" xlink:href="#font_5_47" transform="matrix(10.9091,0,0,-10.9091,168.88347,121.17502)"/>
<use data-text="r" xlink:href="#font_5_43" transform="matrix(10.9091,0,0,-10.9091,172.82166,121.17502)"/>
<use data-text="u" xlink:href="#font_5_51" transform="matrix(10.9091,0,0,-10.9091,176.55257,121.17502)"/>
<use data-text="k" xlink:href="#font_5_27" transform="matrix(10.9091,0,0,-10.9091,182.19257,121.17502)"/>
<use data-text="t" xlink:href="#font_5_47" transform="matrix(10.9091,0,0,-10.9091,187.52712,121.17502)"/>
<use data-text="u" xlink:href="#font_5_51" transform="matrix(10.9091,0,0,-10.9091,191.4653,121.17502)"/>
<use data-text="r" xlink:href="#font_5_43" transform="matrix(10.9091,0,0,-10.9091,197.1053,121.17502)"/>
<g clip-path="url(#clip_6)">
<image x="23" y="131" width="7" height="7" xlink:href="image-a81aabf0b2c3c4fb46faee49.webp"/>
</g>
<use data-text="M" xlink:href="#font_3_29" transform="matrix(11.9552,0,0,-11.9552,35.115,137.71302)"/>
<use data-text="a" xlink:href="#font_3_2" transform="matrix(11.9552,0,0,-11.9552,45.276926,137.71302)"/>
<use data-text="n" xlink:href="#font_3_32" transform="matrix(11.9552,0,0,-11.9552,50.88391,137.71302)"/>
<use data-text="i" xlink:href="#font_3_65" transform="matrix(11.9552,0,0,-11.9552,56.88542,137.71302)"/>
<use data-text="p" xlink:href="#font_3_38" transform="matrix(11.9552,0,0,-11.9552,59.635118,137.71302)"/>
<use data-text="u" xlink:href="#font_3_55" transform="matrix(11.9552,0,0,-11.9552,65.63663,137.71302)"/>
<use data-text="l" xlink:href="#font_3_28" transform="matrix(11.9552,0,0,-11.9552,71.63814,137.71302)"/>
<use data-text="a" xlink:href="#font_3_2" transform="matrix(11.9552,0,0,-11.9552,74.38783,137.71302)"/>
<use data-text="c" xlink:href="#font_3_6" transform="matrix(11.9552,0,0,-11.9552,79.99482,137.71302)"/>
<use data-text="e" xlink:href="#font_3_12" transform="matrix(11.9552,0,0,-11.9552,85.195339,137.71302)"/>
<use data-text="s" xlink:href="#font_3_46" transform="matrix(11.9552,0,0,-11.9552,94.3052,137.71302)"/>
<use data-text="o" xlink:href="#font_3_35" transform="matrix(11.9552,0,0,-11.9552,102.68579,137.71302)"/>
<use data-text="b" xlink:href="#font_3_4" transform="matrix(11.9552,0,0,-11.9552,108.54384,137.71302)"/>
<use data-text="j" xlink:href="#font_3_66" transform="matrix(11.9552,0,0,-11.9552,114.54535,137.71302)"/>
<use data-text="e" xlink:href="#font_3_12" transform="matrix(11.9552,0,0,-11.9552,117.62979,137.71302)"/>
<use data-text="k" xlink:href="#font_3_26" transform="matrix(11.9552,0,0,-11.9552,122.83031,137.71302)"/>
<use data-text="t" xlink:href="#font_3_51" transform="matrix(11.9552,0,0,-11.9552,128.50904,137.71302)"/>
<use data-text="y" xlink:href="#font_3_61" transform="matrix(11.9552,0,0,-11.9552,132.4184,137.71302)"/>
<use data-text="&#x25b6;" xlink:href="#font_4_1" transform="matrix(5.9776,0,0,-5.9776,47.337,151.76001)" fill="#3333b3"/>
<use data-text="M" xlink:href="#font_5_30" transform="matrix(10.9091,0,0,-10.9091,58.527,153.25402)"/>
<use data-text="o" xlink:href="#font_5_35" transform="matrix(10.9091,0,0,-10.9091,68.072467,153.25402)"/>
<use data-text="d" xlink:href="#font_5_11" transform="matrix(10.9091,0,0,-10.9091,73.83247,153.25402)"/>
<use data-text="i" xlink:href="#font_5_60" transform="matrix(10.9091,0,0,-10.9091,79.47248,153.25402)"/>
<use data-text="f" xlink:href="#font_5_17" transform="matrix(10.9091,0,0,-10.9091,82.07976,153.25402)"/>
<use data-text="k" xlink:href="#font_5_27" transform="matrix(10.9091,0,0,-10.9091,87.92703,153.25402)"/>
<use data-text="&#x00e1;" xlink:href="#font_5_62" transform="matrix(10.9091,0,0,-10.9091,93.26158,153.25402)"/>
<use data-text="t" xlink:href="#font_5_47" transform="matrix(10.9091,0,0,-10.9091,98.50886,153.25402)"/>
<use data-text="o" xlink:href="#font_5_35" transform="matrix(10.9091,0,0,-10.9091,102.447048,153.25402)"/>
<use data-text="r" xlink:href="#font_5_43" transform="matrix(10.9091,0,0,-10.9091,107.59614,153.25402)"/>
<use data-text="y" xlink:href="#font_5_57" transform="matrix(10.9091,0,0,-10.9091,111.32705,153.25402)"/>
<use data-text="&#x25b6;" xlink:href="#font_4_1" transform="matrix(5.9776,0,0,-5.9776,47.337,165.30902)" fill="#3333b3"/>
<use data-text="G" xlink:href="#font_5_20" transform="matrix(10.9091,0,0,-10.9091,58.527,166.80402)"/>
<use data-text="e" xlink:href="#font_5_13" transform="matrix(10.9091,0,0,-10.9091,65.80337,166.80402)"/>
<use data-text="n" xlink:href="#font_5_33" transform="matrix(10.9091,0,0,-10.9091,70.65791,166.80402)"/>
<use data-text="e" xlink:href="#font_5_13" transform="matrix(10.9091,0,0,-10.9091,76.29792,166.80402)"/>
<use data-text="r" xlink:href="#font_5_43" transform="matrix(10.9091,0,0,-10.9091,81.152469,166.80402)"/>
<use data-text="o" xlink:href="#font_5_35" transform="matrix(10.9091,0,0,-10.9091,84.88338,166.80402)"/>
<use data-text="v" xlink:href="#font_5_54" transform="matrix(10.9091,0,0,-10.9091,90.33793,166.80402)"/>
<use data-text="&#x00e1;" xlink:href="#font_5_62" transform="matrix(10.9091,0,0,-10.9091,95.36703,166.80402)"/>
<use data-text="n" xlink:href="#font_5_33" transform="matrix(10.9091,0,0,-10.9091,100.6143,166.80402)"/>
<use data-text="&#x00ed;" xlink:href="#font_5_66" transform="matrix(10.9091,0,0,-10.9091,106.25431,166.80402)"/>
<use data-text="&#x25b6;" xlink:href="#font_4_1" transform="matrix(5.9776,0,0,-5.9776,47.337,178.85802)" fill="#3333b3"/>
<use data-text="D" xlink:href="#font_5_10" transform="matrix(10.9091,0,0,-10.9091,58.527,180.35303)"/>
<use data-text="e" xlink:href="#font_5_13" transform="matrix(10.9091,0,0,-10.9091,66.40337,180.35303)"/>
<use data-text="f" xlink:href="#font_5_16" transform="matrix(10.9091,0,0,-10.9091,71.25792,180.35303)"/>
<use data-text="o" xlink:href="#font_5_35" transform="matrix(10.9091,0,0,-10.9091,74.59611,180.35303)"/>
<use data-text="r" xlink:href="#font_5_43" transform="matrix(10.9091,0,0,-10.9091,79.7452,180.35303)"/>
<use data-text="m" xlink:href="#font_5_31" transform="matrix(10.9091,0,0,-10.9091,83.47611,180.35303)"/>
<use data-text="a" xlink:href="#font_5_2" transform="matrix(10.9091,0,0,-10.9091,92.13794,180.35303)"/>
<use data-text="c" xlink:href="#font_5_8" transform="matrix(10.9091,0,0,-10.9091,97.385219,180.35303)"/>
<use data-text="e" xlink:href="#font_5_13" transform="matrix(10.9091,0,0,-10.9091,102.23976,180.35303)"/>
<use data-text="&#x25b6;" xlink:href="#font_4_1" transform="matrix(5.9776,0,0,-5.9776,47.337,192.40802)" fill="#3333b3"/>
<use data-text="S" xlink:href="#font_5_44" transform="matrix(10.9091,0,0,-10.9091,58.527,193.90203)"/>
<use data-text="i" xlink:href="#font_5_60" transform="matrix(10.9091,0,0,-10.9091,64.59246,193.90203)"/>
<use data-text="m" xlink:href="#font_5_31" transform="matrix(10.9091,0,0,-10.9091,67.19974,193.90203)"/>
<use data-text="u" xlink:href="#font_5_51" transform="matrix(10.9091,0,0,-10.9091,75.861568,193.90203)"/>
<use data-text="l" xlink:href="#font_5_29" transform="matrix(10.9091,0,0,-10.9091,81.50157,193.90203)"/>
<use data-text="a" xlink:href="#font_5_2" transform="matrix(10.9091,0,0,-10.9091,84.10885,193.90203)"/>
<use data-text="c" xlink:href="#font_5_8" transform="matrix(10.9091,0,0,-10.9091,89.356128,193.90203)"/>
<use data-text="e" xlink:href="#font_5_13" transform="matrix(10.9091,0,0,-10.9091,94.21068,193.90203)"/>
<g clip-path="url(#clip_7)">
<image x="23" y="204" width="7" height="7" xlink:href="image-ceb938e8037964149083e09b.webp"/>
</g>
<use data-text="I" xlink:href="#font_3_23" transform="matrix(11.9552,0,0,-11.9552,35.115,210.44)"/>
<use data-text="m" xlink:href="#font_3_30" transform="matrix(11.9552,0,0,-11.9552,38.295087,210.44)"/>
<use data-text="p" xlink:href="#font_3_38" transform="matrix(11.9552,0,0,-11.9552,47.548414,210.44)"/>
<use data-text="o" xlink:href="#font_3_35" transform="matrix(11.9552,0,0,-11.9552,53.872716,210.44)"/>
<use data-text="r" xlink:href="#font_3_44" transform="matrix(11.9552,0,0,-11.9552,59.40797,210.44)"/>
<use data-text="t" xlink:href="#font_3_51" transform="matrix(11.9552,0,0,-11.9552,63.389055,210.44)"/>
<use data-text="/" xlink:href="#font_3_49" transform="matrix(11.9552,0,0,-11.9552,67.62119,210.44)"/>
<use data-text="E" xlink:href="#font_3_11" transform="matrix(11.9552,0,0,-11.9552,73.47924,210.44)"/>
<use data-text="x" xlink:href="#font_3_60" transform="matrix(11.9552,0,0,-11.9552,80.44912,210.44)"/>
<use data-text="p" xlink:href="#font_3_38" transform="matrix(11.9552,0,0,-11.9552,85.805049,210.44)"/>
<use data-text="o" xlink:href="#font_3_35" transform="matrix(11.9552,0,0,-11.9552,92.12935,210.44)"/>
<use data-text="r" xlink:href="#font_3_44" transform="matrix(11.9552,0,0,-11.9552,97.664608,210.44)"/>
<use data-text="t" xlink:href="#font_3_51" transform="matrix(11.9552,0,0,-11.9552,101.64568,210.44)"/>
<use data-text="&#x25b6;" xlink:href="#font_4_1" transform="matrix(5.9776,0,0,-5.9776,47.337,224.487)" fill="#3333b3"/>
<use data-text="F" xlink:href="#font_5_15" transform="matrix(10.9091,0,0,-10.9091,58.527,225.98201)"/>
<use data-text="o" xlink:href="#font_5_35" transform="matrix(10.9091,0,0,-10.9091,64.42882,225.98201)"/>
<use data-text="r" xlink:href="#font_5_43" transform="matrix(10.9091,0,0,-10.9091,69.58882,225.98201)"/>
<use data-text="m" xlink:href="#font_5_31" transform="matrix(10.9091,0,0,-10.9091,73.30882,225.98201)"/>
<use data-text="&#x00e1;" xlink:href="#font_5_62" transform="matrix(10.9091,0,0,-10.9091,81.98156,225.98201)"/>
<use data-text="t" xlink:href="#font_5_47" transform="matrix(10.9091,0,0,-10.9091,87.228839,225.98201)"/>
<use data-text="y" xlink:href="#font_5_57" transform="matrix(10.9091,0,0,-10.9091,90.861568,225.98201)"/>
<use data-text="&#x25b6;" xlink:href="#font_4_1" transform="matrix(5.9776,0,0,-5.9776,47.337,238.03601)" fill="#3333b3"/>
<use data-text="A" xlink:href="#font_5_1" transform="matrix(10.9091,0,0,-10.9091,58.527,239.531)"/>
<use data-text="P" xlink:href="#font_5_36" transform="matrix(10.9091,0,0,-10.9091,65.80337,239.531)"/>
<use data-text="I" xlink:href="#font_5_25" transform="matrix(10.9091,0,0,-10.9091,72.774288,239.531)"/>
<path transform="matrix(1,0,0,-1,0,272.126)" d="M0 0H120.943V8.634H0Z" fill="#4747ba"/>
<use data-text="C" xlink:href="#font_8_4" transform="matrix(5.9776,0,0,-5.9776,41.797,269.469)" fill="#ffffff"/>
<use data-text="h" xlink:href="#font_8_16" transform="matrix(5.9776,0,0,-5.9776,45.855794,269.469)" fill="#ffffff"/>
<use data-text="l" xlink:href="#font_8_20" transform="matrix(5.9776,0,0,-5.9776,49.137498,269.469)" fill="#ffffff"/>
<use data-text="u" xlink:href="#font_8_40" transform="matrix(5.9776,0,0,-5.9776,50.655809,269.469)" fill="#ffffff"/>
<use data-text="d" xlink:href="#font_8_7" transform="matrix(5.9776,0,0,-5.9776,53.93751,269.469)" fill="#ffffff"/>
<use data-text="i" xlink:href="#font_8_46" transform="matrix(5.9776,0,0,-5.9776,57.219217,269.469)" fill="#ffffff"/>
<use data-text="l" xlink:href="#font_8_20" transform="matrix(5.9776,0,0,-5.9776,58.737527,269.469)" fill="#ffffff"/>
<use data-text="(" xlink:href="#font_8_27" transform="matrix(5.9776,0,0,-5.9776,64.487979,269.469)" fill="#ffffff"/>
<use data-text="F" xlink:href="#font_8_10" transform="matrix(5.9776,0,0,-5.9776,66.956729,269.469)" fill="#ffffff"/>
<use data-text="I" xlink:href="#font_8_18" transform="matrix(5.9776,0,0,-5.9776,70.59111,269.469)" fill="#ffffff"/>
<use data-text="T" xlink:href="#font_8_36" transform="matrix(5.9776,0,0,-5.9776,72.3545,269.469)" fill="#ffffff"/>
<use data-text=")" xlink:href="#font_8_28" transform="matrix(5.9776,0,0,-5.9776,76.69424,269.469)" fill="#ffffff"/>
<path transform="matrix(1,0,0,-1,120.943,272.126)" d="M0 0H120.943V8.634H0Z" fill="#8585d1"/>
<use data-text="B" xlink:href="#font_8_3" transform="matrix(5.9776,0,0,-5.9776,149.177,269.469)" fill="#ffffff"/>
<use data-text="I" xlink:href="#font_8_18" transform="matrix(5.9776,0,0,-5.9776,153.40915,269.469)" fill="#ffffff"/>
<use data-text="-" xlink:href="#font_8_17" transform="matrix(5.9776,0,0,-5.9776,155.17255,269.469)" fill="#ffffff"/>
<use data-text="P" xlink:href="#font_8_26" transform="matrix(5.9776,0,0,-5.9776,157.28862,269.469)" fill="#ffffff"/>
<use data-text="G" xlink:href="#font_8_14" transform="matrix(5.9776,0,0,-5.9776,161.34741,269.469)" fill="#ffffff"/>
<use data-text="A" xlink:href="#font_8_1" transform="matrix(5.9776,0,0,-5.9776,165.57956,269.469)" fill="#ffffff"/>
<use data-text="," xlink:href="#font_8_6" transform="matrix(5.9776,0,0,-5.9776,169.8117,269.469)" fill="#ffffff"/>
<use data-text="P" xlink:href="#font_8_26" transform="matrix(5.9776,0,0,-5.9776,173.69118,269.469)" fill="#ffffff"/>
<use data-text="&#x0159;" xlink:href="#font_8_52" transform="matrix(5.9776,0,0,-5.9776,177.74997,269.469)" fill="#ffffff"/>
<use data-text="e" xlink:href="#font_8_8" transform="matrix(5.9776,0,0,-5.9776,179.91985,269.469)" fill="#ffffff"/>
<use data-text="d" xlink:href="#font_8_7" transform="matrix(5.9776,0,0,-5.9776,182.74127,269.469)" fill="#ffffff"/>
<use data-text="n" xlink:href="#font_8_22" transform="matrix(5.9776,0,0,-5.9776,186.02298,269.469)" fill="#ffffff"/>
<use data-text="&#x00e1;" xlink:href="#font_8_47" transform="matrix(5.9776,0,0,-5.9776,189.30469,269.469)" fill="#ffffff"/>
<use data-text="&#x0161;" xlink:href="#font_8_53" transform="matrix(5.9776,0,0,-5.9776,192.35327,269.469)" fill="#ffffff"/>
<use data-text="k" xlink:href="#font_8_19" transform="matrix(5.9776,0,0,-5.9776,194.78615,269.469)" fill="#ffffff"/>
<use data-text="a" xlink:href="#font_8_2" transform="matrix(5.9776,0,0,-5.9776,197.88852,269.469)" fill="#ffffff"/>
<use data-text="&#x010d;" xlink:href="#font_8_49" transform="matrix(5.9776,0,0,-5.9776,203.05916,269.469)" fill="#ffffff"/>
<use data-text="." xlink:href="#font_8_29" transform="matrix(5.9776,0,0,-5.9776,205.88059,269.469)" fill="#ffffff"/>
<use data-text="2" xlink:href="#font_8_39" transform="matrix(5.9776,0,0,-5.9776,210.46541,269.469)" fill="#ffffff"/>
<path transform="matrix(1,0,0,-1,241.886,272.126)" d="M0 0H120.943V8.634H0Z" fill="#adade0"/>
<use data-text="Z" xlink:href="#font_8_43" transform="matrix(5.9776,0,0,-5.9776,274.306,269.469)"/>
<use data-text="S" xlink:href="#font_8_31" transform="matrix(5.9776,0,0,-5.9776,278.18547,269.469)"/>
<use data-text="2" xlink:href="#font_8_39" transform="matrix(5.9776,0,0,-5.9776,283.8283,269.469)"/>
<use data-text="0" xlink:href="#font_8_45" transform="matrix(5.9776,0,0,-5.9776,287.0024,269.469)"/>
<use data-text="2" xlink:href="#font_8_39" transform="matrix(5.9776,0,0,-5.9776,290.1765,269.469)"/>
<use data-text="4" xlink:href="#font_8_13" transform="matrix(5.9776,0,0,-5.9776,293.35063,269.469)"/>
<use data-text="/" xlink:href="#font_8_35" transform="matrix(5.9776,0,0,-5.9776,296.52473,269.469)"/>
<use data-text="2" xlink:href="#font_8_39" transform="matrix(5.9776,0,0,-5.9776,299.69883,269.469)"/>
<use data-text="0" xlink:href="#font_8_45" transform="matrix(5.9776,0,0,-5.9776,302.8789,269.469)"/>
<use data-text="2" xlink:href="#font_8_39" transform="matrix(5.9776,0,0,-5.9776,306.053,269.469)"/>
<use data-text="5" xlink:href="#font_8_12" transform="matrix(5.9776,0,0,-5.9776,309.2271,269.469)"/>
<use data-text="7" xlink:href="#font_8_33" transform="matrix(5.9776,0,0,-5.9776,342.68376,269.469)"/>
<use data-text="/" xlink:href="#font_8_35" transform="matrix(5.9776,0,0,-5.9776,346.9159,269.469)"/>
<use data-text="5" xlink:href="#font_8_12" transform="matrix(5.9776,0,0,-5.9776,351.14805,269.469)"/>
<use data-text="7" xlink:href="#font_8_33" transform="matrix(5.9776,0,0,-5.9776,354.32215,269.469)"/>
</svg>
