<svg xmlns="http://www.w3.org/2000/svg" xmlns:xlink="http://www.w3.org/1999/xlink" xmlns:inkscape="http://www.inkscape.org/namespaces/inkscape" version="1.1" width="362.835" height="272.126" viewBox="0 0 362.835 272.126">
<defs>
<path id="font_1_22" d="M.69299319 0 .3939972 .42019654 .6779938 .69433596H.57598879L.19400025 .32614137V.69433596H.099990848V0H.19400025V.22810364L.33299256 .36116029 .58999636 0H.69299319Z"/>
<path id="font_1_49" d="M.47399903 .44433595H.3939972C.25698854 .109069827 .25099183 .08206177 .24699402 .059036256H.24598694C.23799134 .09806824 .20999146 .16812134 .1789856 .24517823L.09899902 .44433595H.01499939L.19799805 0H.29100038L.47399903 .44433595Z"/>
<path id="font_1_2" d="M.43598939 .00022888184V.28799439C.43598939 .38998414 .35798646 .45898438 .25898744 .45898438 .19599915 .45898438 .147995 .4459839 .09199524 .41596986L.09799194 .34298707C.1309967 .36497499 .17999268 .39497376 .25898744 .39497376 .30299378 .39497376 .34899903 .36198426 .34899903 .2869873V.24699402C.20098877 .24198914 .054992677 .21099854 .054992677 .118118289 .054992677 .06820679 .08898926-.009765625 .1769867-.009765625 .21998596-.009765625 .29899598-.00077819827 .35198976 .038223268V.00022888184H.43598939M.34899903 .14207459C.34899903 .12211609 .34899903 .09616089 .31399537 .07519531 .28199769 .05722046 .24299622 .056228639 .23199463 .056228639 .1769867 .056228639 .1349945 .08117676 .1349945 .11911011 .1349945 .18299866 .3039856 .18899536 .34899903 .19099427V.14207459Z"/>
<path id="font_1_9" d="M.46299745 .00022888184V.69433596H.3789978V.40109254C.31498719 .4480896 .25 .45410157 .22099304 .45410157 .115997318 .45410157 .035995485 .34910584 .035995485 .22216797 .035995485 .095214847 .114990238-.009765625 .21798706-.009765625 .27999879-.009765625 .33799745 .018234253 .37599183 .052230836V.00022888184H.46299745M.37599183 .12420654C.35099793 .083221439 .31298829 .056228639 .2649994 .056228639 .19499207 .056228639 .12298584 .10520935 .12298584 .22116089 .12298584 .3461151 .20799256 .38809205 .27598573 .38809205 .31599427 .38809205 .34999085 .37109376 .37599183 .33711244V.12420654Z"/>
<path id="font_1_37" d="M.34700013 .38008119V.45410157C.2630005 .45309449 .20199585 .41207887 .1619873 .35906983V.45109559H.084991458V0H.16899109V.21304322C.16899109 .32106019 .25898744 .3790741 .34700013 .38008119Z"/>
<path id="font_1_26" d="M.46499635 0V.29606629C.46499635 .37408448 .44198609 .45410157 .31900025 .45410157 .2619934 .45410157 .20698548 .4310913 .16299439 .37808229V.45109559H.08299255V0H.16999817V.24305725C.16999817 .30906678 .19799805 .38809205 .2749939 .38809205 .37799073 .38809205 .37799073 .31806947 .37799073 .2890625V0H.46499635Z"/>
<path id="font_1_44" d="M.35398866 .026916504 .33699037 .090927127C.3039856 .06692505 .2689972 .058929445 .24099732 .058929445 .19898987 .058929445 .18798828 .09991455 .18798828 .14595032V.3813324H.33599855V.44433595H.18798828V.57128909H.11099243V.44433595H.019989014V.3813324H.10798645V.12792969C.10798645 .06123352 .125-.009765625 .19699097-.009765625 .2689972-.009765625 .32398988 .01322937 .35398866 .02722168V.026916504Z"/>
<path id="font_1_29" d="M.5 .21910095C.5 .35101319 .394989 .45898438 .2649994 .45898438 .1349945 .45898438 .02999878 .3500061 .02999878 .21910095 .02999878 .09220886 .13598633-.009765625 .2649994-.009765625 .394989-.009765625 .5 .09220886 .5 .21910095M.41299439 .23010254C.41299439 .11618042 .34199525 .05921936 .2649994 .05921936 .18598938 .05921936 .116989139 .1171875 .116989139 .23010254 .116989139 .34301759 .19099427 .39297486 .2649994 .39297486 .33999635 .39297486 .41299439 .34101869 .41299439 .23010254Z"/>
<path id="font_1_60" d="M.43998719 .21928406C.43998719 .2652893 .43499757 .33213807 .3959961 .3889923 .3600006 .43997193 .2999878 .45898438 .25099183 .45898438 .1289978 .45898438 .034988405 .35209657 .034988405 .22529602 .034988405 .09724426 .1349945-.009765625 .2669983-.009765625 .32499696-.009765625 .3849945 .007232666 .43598939 .038223268L.42999269 .10925293C.37399293 .069229129 .31098939 .056228639 .2679901 .056228639 .18099976 .056228639 .114990238 .1272583 .11199951 .21928406H.43998719M.3789978 .27929688H.11898804C.14199829 .35906983 .20098877 .39297486 .25099183 .39297486 .29499818 .39297486 .3600006 .3720398 .3789978 .27929688M.3849945 .69433596H.2979889L.16099549 .52734377H.22698975L.3849945 .69433596Z"/>
<path id="font_1_39" d="M.3829956 .1301117C.3829956 .14808655 .3809967 .18702698 .33898927 .22496033 .3019867 .25790406 .2659912 .26489259 .21798706 .27388 .15899658 .2848816 .11299133 .29388429 .11299133 .33789063 .11299133 .39497376 .18598938 .39497376 .20098877 .39497376 .2579956 .39497376 .3019867 .38294984 .35198976 .35691834L.36499024 .42797853C.29699708 .4559784 .24699402 .45898438 .21099854 .45898438 .18598938 .45898438 .034988405 .45898438 .034988405 .32588197 .034988405 .2788849 .06098938 .25291444 .07398987 .24093628 .10899353 .20599365 .15098572 .19799805 .20399475 .1880188 .25099183 .17903137 .30499269 .16905213 .30499269 .12112427 .30499269 .05822754 .22200012 .05822754 .20799256 .05822754 .14399719 .05822754 .083999637 .08119202 .04399109 .10914612L.02999878 .034225465C.06399536 .017227173 .125-.009765625 .20799256-.009765625 .25299073-.009765625 .29699708-.0027770997 .33399964 .024230957 .37098695 .052230836 .3829956 .09616089 .3829956 .1301117Z"/>
<path id="font_1_25" d="M.7599945 0V.29606629C.7599945 .37408448 .7369995 .45410157 .6139984 .45410157 .5299988 .45410157 .47799684 .40509034 .45399476 .37309266 .44400025 .4001007 .4189911 .45410157 .31900025 .45410157 .2619934 .45410157 .20698548 .4310913 .16299439 .37808229V.45109559H.08299255V0H.16999817V.24305725C.16999817 .30906678 .19799805 .38809205 .2749939 .38809205 .37799073 .38809205 .37799073 .31806947 .37799073 .2890625V0H.46499635V.24305725C.46499635 .30906678 .49299623 .38809205 .56999209 .38809205 .6729889 .38809205 .6729889 .31806947 .6729889 .2890625V0H.7599945Z"/>
<path id="font_1_51" d="M.47399903 .44433595H.3929901C.31199647 .2531891 .2559967 .12408447 .2519989 .06304932 .25 .09106445 .23199463 .14109802 .21398926 .18814087 .19799805 .22816468 .18199158 .26820375 .1639862 .30722047L.100997928 .44433595H.01499939L.22200012 0 .18399048-.08807373C.16299439-.13009644 .14898682-.144104 .12199402-.144104 .117996219-.144104 .08099365-.144104 .037994386-.12609864L.04399109-.19610596C.052993776-.19810486 .08999634-.20410156 .12098694-.20410156 .16099549-.20410156 .19699097-.18910218 .23899842-.093063358L.47399903 .44433595Z"/>
<path id="font_1_31" d="M.61898806 .49124146C.61898806 .5983124 .5130005 .69433596 .36799623 .69433596H.09799194V0H.19898987V.28515626H.375C.5039978 .28515626 .61898806 .37615968 .61898806 .49124146M.5279999 .49124146C.5279999 .40919496 .45999146 .3471527 .34298707 .3471527H.19599915V.6353302H.34298707C.45599366 .6353302 .5279999 .57528689 .5279999 .49124146Z"/>
<path id="font_1_66" d="M.47399903 .44433595H.3929901C.31199647 .2531891 .2559967 .12408447 .2519989 .06304932 .25 .09106445 .23199463 .14109802 .21398926 .18814087 .19799805 .22816468 .18199158 .26820375 .1639862 .30722047L.100997928 .44433595H.01499939L.22200012 0 .18399048-.08807373C.16299439-.13009644 .14898682-.144104 .12199402-.144104 .117996219-.144104 .08099365-.144104 .037994386-.12609864L.04399109-.19610596C.052993776-.19810486 .08999634-.20410156 .12098694-.20410156 .16099549-.20410156 .19699097-.18910218 .23899842-.093063358L.47399903 .44433595M.3939972 .69433596H.30699159L.16999817 .52734377H.23599243L.3939972 .69433596Z"/>
<path id="font_2_37" d="M.61099246 .69433596H.5329895L.3600006 .21409607C.35499574 .2000885 .32398988 .108047489 .31799317 .076034549H.31698609C.30899049 .11404419 .2769928 .20309448 .2599945 .2521057L.14399719 .5772705 .100997928 .69433596H.0129852299L.2679901 0H.35598756L.61099246 .69433596Z"/>
<path id="font_2_19" d="M.147995 0V.69433596H.07398987V0H.147995Z"/>
<path id="font_2_24" d="M.44198609 .21427918C.44198609 .3423462 .34700013 .4423828 .23498535 .4423828 .11999512 .4423828 .026992798 .33935548 .026992798 .21427918 .026992798 .08720398 .12298584-.0078125 .23399353-.0078125 .34799195-.0078125 .44198609 .0901947 .44198609 .21427918M.3659973 .22227478C.3659973 .10920715 .30099488 .05418396 .23399353 .05418396 .1639862 .05418396 .102996829 .113220218 .102996829 .22227478 .102996829 .3383484 .17399597 .3803711 .23399353 .3803711 .29899598 .3803711 .3659973 .3343506 .3659973 .22227478Z"/>
<path id="font_2_54" d="M.37799073 0V.06199646H.24198914C.22999573 .06199646 .21798706 .06098938 .20599365 .06098938H.1289978L.375 .39068605V.4296875H.038986207V.36967469H.16699219C.1789856 .36967469 .19099427 .37068177 .20298767 .37068177H.272995L.025985718 .040985109V0H.37799073M.35899354 .69140627H.2999878L.20399475 .56848147 .10798645 .69140627H.04899597L.17399597 .51953127H.23399353L.35899354 .69140627Z"/>
<path id="font_2_9" d="M.3909912 .21940613C.3909912 .2524109 .3889923 .316391 .35699464 .36938478 .32199098 .42637635 .2649994 .4423828 .22200012 .4423828 .117996219 .4423828 .02999878 .34439088 .02999878 .21740723 .02999878 .0932312 .12098694-.0078125 .23599243-.0078125 .2809906-.0078125 .33599855 .0051727297 .38598634 .04118347 .38598634 .045181276 .3829956 .06820679 .3829956 .06820679 .3829956 .06820679 .37998963 .101242069 .37998963 .10525513 .33198548 .06619263 .2769928 .05317688 .23699951 .05317688 .17298889 .05317688 .10398865 .10725403 .100997928 .21940613H.3909912M.32499696 .27441407H.10899353C.12199402 .32939149 .1659851 .38137818 .22200012 .38137818 .23699951 .38137818 .30699159 .37937928 .32499696 .27441407Z"/>
<path id="font_2_22" d="M.40899659 0V.2923584C.40899659 .35543824 .3939972 .43847657 .2809906 .43847657 .21699524 .43847657 .1749878 .4054718 .14698792 .37145997V.43347169H.07398987V0H.1499939V.24229431C.1499939 .30537416 .17399597 .37747193 .24198914 .37747193 .32998658 .37747193 .33299256 .3183899 .33299256 .28434754V0H.40899659Z"/>
<path id="font_2_49" d="M.147995 0V.4296875H.07398987V0H.147995M.27398683 .69433596H.19799805L.07398987 .5175781H.1349945L.27398683 .69433596Z"/>
<path id="font_2_21" d="M.66999819 0V.2923584C.66999819 .3594513 .6529999 .43847657 .54100039 .43847657 .46598817 .43847657 .42099 .39146424 .40098573 .36245729 .3829956 .4154663 .34098817 .43847657 .2809906 .43847657 .21299744 .43847657 .16999817 .3994751 .14698792 .37145997V.43347169H.07398987V0H.1499939V.24229431C.1499939 .30137635 .17199707 .37747193 .24299622 .37747193 .33399964 .37747193 .33399964 .313385 .33399964 .28434754V0H.4099884V.24229431C.4099884 .30137635 .43199159 .37747193 .5029907 .37747193 .59399417 .37747193 .59399417 .313385 .59399417 .28434754V0H.66999819Z"/>
<path id="font_2_33" d="M.31298829 .029174805 .29699708 .088134769C.272995 .06715393 .24398804 .05517578 .21299744 .05517578 .16899109 .05517578 .16699219 .11109924 .16699219 .13604737V.37167359H.29699708V.4296875H.16699219V.5527344H.09599304V.4296875H.016998291V.37167359H.09399414V.11907959C.09399414 .062164308 .10699463-.0078125 .17298889-.0078125 .22299195-.0078125 .2689972 .0061798098 .31298829 .029174805Z"/>
<path id="font_2_36" d="M.40899659 .00039672853V.4296875H.33299256V.15429688C.33299256 .0803833 .2789917 .05038452 .22200012 .05038452 .1559906 .05038452 .1499939 .072387699 .1499939 .1133728V.4296875H.07398987V.10839844C.07398987 .030181885 .100997928-.0078125 .16999817-.0078125 .20399475-.0078125 .2809906 .00018310547 .33499146 .050186159V.00018310547L.40899659 .00039672853Z"/>
<path id="font_2_8" d="M.4079895 .00018310547V.69433596H.33399964V.3884735C.30299378 .4144745 .2519989 .43847657 .19599915 .43847657 .10499573 .43847657 .032989503 .33943177 .032989503 .21533203 .032989503 .09121704 .10398865-.0078125 .19299317-.0078125 .2619934-.0078125 .30799867 .029174805 .33198548 .050186159V.00018310547H.4079895M.33198548 .13424683C.33198548 .12023926 .33198548 .10522461 .30099488 .078201297 .2809906 .061187746 .25698854 .05317688 .23399353 .05317688 .17999268 .05317688 .10899353 .09321594 .10899353 .21432495 .10899353 .34043885 .18899536 .37747193 .24398804 .37747193 .2809906 .37747193 .31098939 .3594513 .33198548 .329422V.13424683Z"/>
<path id="font_2_25" d="M.5469971 .4921875C.5469971 .600296 .45298768 .69433596 .32299806 .69433596H.08898926V0H.17298889V.2890625H.32899476C.44898988 .2890625 .5469971 .38209535 .5469971 .4921875M.46798707 .4921875C.46798707 .4241333 .42099 .34706117 .30099488 .34706117H.17098999V.6383209H.30099488C.4169922 .6383209 .46798707 .56526187 .46798707 .4921875Z"/>
<path id="font_2_18" d="M.44099427 0 .2649994 .26512147 .41999818 .43019105H.32398988L.14898682 .2441101V.69433596H.07499695V0H.147995V.14006043L.21499634 .21109009 .35598756 0H.44099427Z"/>
<path id="font_2_38" d="M.41799928 .4296875H.33999635L.272995 .24281311C.2519989 .18185425 .22200012 .09791565 .21699524 .0549469H.21598816C.21398926 .07293701 .20599365 .09892273 .20098877 .11691284L.18099976 .18286133 .09298706 .4296875H.0129852299L.17098999 0H.2599945L.41799928 .4296875Z"/>
<path id="font_2_1" d="M.38598634 .00018310547V.28334046C.38598634 .37738038 .31900025 .4423828 .22898865 .4423828 .18499756 .4423828 .13699341 .43437196 .08198547 .40237428L.08799744 .33636476C.11299133 .35437013 .1559906 .38337709 .22799683 .38337709 .2789917 .38337709 .30999757 .34436036 .30999757 .28234864V.24432373C.1499939 .2393341 .049987794 .19332886 .049987794 .11424255 .049987794 .07319641 .07499695-.0078125 .1579895-.0078125 .17298889-.0078125 .2539978-.0058135988 .31199647 .03718567V.00018310547H.38598634M.30999757 .13226319C.30999757 .11424255 .30999757 .09022522 .27999879 .07220459 .2539978 .05517578 .22099304 .05317688 .20698548 .05317688 .15699768 .05317688 .12298584 .081207279 .12298584 .116241458 .12298584 .18632508 .2789917 .19332886 .30999757 .19433594V.13226319Z"/>
<path id="font_2_31" d="M.30599977 .37242127V.43847657C.24198914 .43746949 .18199158 .40545655 .1459961 .35339356V.43347169H.07499695V0H.14898682V.21324158C.14898682 .30734254 .21798706 .37042237 .30599977 .37242127Z"/>
<path id="font_2_47" d="M.3909912 .21940613C.3909912 .2524109 .3889923 .316391 .35699464 .36938478 .32199098 .42637635 .2649994 .4423828 .22200012 .4423828 .117996219 .4423828 .02999878 .34439088 .02999878 .21740723 .02999878 .0932312 .12098694-.0078125 .23599243-.0078125 .2809906-.0078125 .33599855 .0051727297 .38598634 .04118347 .38598634 .045181276 .3829956 .06820679 .3829956 .06820679 .3829956 .06820679 .37998963 .101242069 .37998963 .10525513 .33198548 .06619263 .2769928 .05317688 .23699951 .05317688 .17298889 .05317688 .10398865 .10725403 .100997928 .21940613H.3909912M.32499696 .27441407H.10899353C.12199402 .32939149 .1659851 .38137818 .22200012 .38137818 .23699951 .38137818 .30699159 .37937928 .32499696 .27441407M.34199525 .69433596H.2659912L.14199829 .5185547H.20298767L.34199525 .69433596Z"/>
<path id="font_2_14" d="M.40899659 0V.2923584C.40899659 .35543824 .3939972 .43847657 .2809906 .43847657 .21798706 .43847657 .1769867 .4074707 .147995 .37345887V.69433596H.07398987V0H.1499939V.24229431C.1499939 .30537416 .17399597 .37747193 .24198914 .37747193 .32998658 .37747193 .33299256 .3183899 .33299256 .28434754V0H.40899659Z"/>
<path id="font_2_32" d="M.33799745 .12437439C.33799745 .17337036 .30999757 .20637512 .29100038 .22137451 .2579956 .24737549 .24598694 .25038148 .1639862 .26737977 .1499939 .26937867 .100997928 .28038026 .100997928 .32537843 .100997928 .38237 .1639862 .38237 .17799378 .38237 .24299622 .38237 .2829895 .36238099 .30999757 .3473816L.32199098 .41236878C.2630005 .44036866 .21699524 .4423828 .18699646 .4423828 .115997318 .4423828 .0309906 .41737367 .0309906 .31637574 .0309906 .2150116 .14099121 .19300843 .17098999 .18701172 .21699524 .17800904 .2679901 .16801453 .2679901 .11816406 .2679901 .055160524 .19599915 .055160524 .18299866 .055160524 .14299011 .055160524 .08799744 .06616211 .037994386 .10215759L.025985718 .03515625C.08299255 .0021820069 .13798523-.0078125 .18399048-.0078125 .30699159-.0078125 .33799745 .06715393 .33799745 .12402344V.12437439Z"/>
<path id="font_3_34" d="M.6669922 .34466554C.6669922 .55677798 .522995 .71484377 .36099244 .71484377 .19499207 .71484377 .053985597 .55378726 .053985597 .34466554 .053985597 .13356018 .19898987-.021484375 .3600006-.021484375 .5249939-.021484375 .6669922 .13555908 .6669922 .34466554M.58099368 .35968019C.58099368 .16357422 .47299195 .041503908 .36099244 .041503908 .24499512 .041503908 .13999939 .1665802 .13999939 .35968019 .13999939 .54377749 .24899292 .65283206 .3600006 .65283206 .47399903 .65283206 .58099368 .5407715 .58099368 .35968019Z"/>
<path id="font_3_38" d="M.46598817 .22315979C.46598817 .3441162 .4019928 .45410157 .30899049 .45410157 .2679901 .45410157 .20399475 .44110108 .1519928 .39709474V.4440918H.07798767V-.19335938H.1539917V.04522705C.18798828 .014221191 .22999573-.009765625 .28399659-.009765625 .37998963-.009765625 .46598817 .08721924 .46598817 .22315979M.3899994 .22216797C.3899994 .12219238 .32099916 .050231935 .24699402 .050231935 .21899414 .050231935 .19999695 .06022644 .18199158 .07421875 .15699768 .096206668 .1539917 .11419678 .1539917 .13020325V.3361206C.1769867 .37010194 .21499634 .39208985 .2559967 .39208985 .32998658 .39208985 .3899994 .3171234 .3899994 .22216797Z"/>
<path id="font_3_50" d="M.32598878 .029296875 .31098939 .08729553C.27598573 .056228639 .23899842 .052230836 .22099304 .052230836 .1769867 .052230836 .17098999 .099243167 .17098999 .13424683V.38632203H.30899049V.44433595H.17098999V.57128909H.101989749V.44433595H.017990113V.38632203H.099990848V.117248538C.099990848 .05923462 .11299133-.009765625 .18199158-.009765625 .24899292-.00970459 .29499818 .013290405 .32598878 .029296875Z"/>
<path id="font_3_62" d="M.1519928 0V.44433595H.07798767V0H.1519928M.1579895 .5683594V.6543579H.07199097V.5683594H.1579895Z"/>
<path id="font_3_31" d="M.69699099 0V.30107118C.69699099 .37008668 .67900088 .45410157 .56199648 .45410157 .47698976 .45410157 .42999269 .39509584 .4149933 .37309266 .39698792 .4360962 .34199525 .45410157 .2899933 .45410157 .20799256 .45410157 .16499329 .40109254 .147995 .38009645V.44909669H.07699585V0H.15299988V.24905396C.15299988 .31507875 .1789856 .39408876 .2519989 .39408876 .34399415 .39408876 .34899903 .33106996 .34899903 .29406739V0H.4249878V.24905396C.4249878 .31507875 .45098878 .39408876 .5239868 .39408876 .6159973 .39408876 .62098696 .33106996 .62098696 .29406739V0H.69699099Z"/>
<path id="font_3_2" d="M.40098573 .00022888184V.29315187C.40098573 .3889923 .33198548 .45898438 .23899842 .45898438 .1789856 .45898438 .13398743 .4449768 .084991458 .41697694L.09098816 .35105897C.1349945 .38301087 .18099976 .40097047 .23899842 .40097047 .2849884 .40097047 .32499696 .36402894 .32499696 .29115296V.25021363C.27999879 .24821472 .21998596 .24520874 .1599884 .22520447 .09298706 .20220948 .053985597 .16522217 .053985597 .115219119 .053985597 .07122803 .07998657-.009765625 .16499329-.009765625 .21998596-.009765625 .2899933 .006225586 .32699586 .037231447V.00022888184H.40098573M.32499696 .13421631C.32499696 .114227298 .32499696 .09022522 .2919922 .07022095 .2649994 .053222658 .23098755 .050231935 .21598816 .050231935 .1619873 .050231935 .125 .07922363 .125 .1162262 .125 .18421936 .2639923 .19921875 .32499696 .19921875V.13421631Z"/>
<path id="font_3_29" d="M.1519928 0V.69433596H.07798767V0H.1519928Z"/>
<path id="font_3_60" d="M.3929901 0V.06098938H.25C.23799134 .06098938 .22599793 .05999756 .21398926 .05999756H.1289978L.3899994 .40533448V.44433595H.040985109V.3853302H.17599488C.18798828 .3853302 .19999695 .38632203 .21199036 .38632203H.28799439L.026992798 .039993287V0H.3929901Z"/>
<path id="font_3_35" d="M.45899964 .22010803C.45899964 .355011 .3600006 .45898438 .24499512 .45898438 .1269989 .45898438 .02999878 .35301209 .02999878 .22010803 .02999878 .08920288 .12998963-.009765625 .24398804-.009765625 .3619995-.009765625 .45899964 .09120178 .45899964 .22010803M.3829956 .23010254C.3829956 .10719299 .31199647 .052230836 .24499512 .052230836 .17298889 .052230836 .10598755 .11218262 .10598755 .23010254 .10598755 .35101319 .18099976 .39897157 .24398804 .39897157 .31298829 .39897157 .3829956 .34701539 .3829956 .23010254Z"/>
<path id="font_3_55" d="M.43299867 .44433595H.35798646C.3039856 .29621888 .33499146 .38227845 .2849884 .24517823 .2679901 .19714356 .23098755 .09106445 .22499085 .054031373H.22399903C.21899414 .08906555 .19898987 .144104 .18399048 .18713379L.09199524 .44433595H.01399231L.1789856 0H.2679901L.43299867 .44433595Z"/>
<path id="font_3_33" d="M.42399598 0V.30107118C.42399598 .36209107 .41099549 .45410157 .2899933 .45410157 .23399353 .45410157 .18598938 .4290924 .147995 .38108827V.44909669H.07699585V0H.15299988V.24905396C.15299988 .31106568 .17599488 .39408876 .2519989 .39408876 .34498597 .39408876 .34799195 .32907105 .34799195 .29406739V0H.42399598Z"/>
<path id="font_3_66" d="M.40699769 .22529602C.40699769 .2682953 .40299989 .3291626 .37098695 .38201905 .32998658 .4509735 .2599945 .45898438 .23098755 .45898438 .12298584 .45898438 .032989503 .35508729 .032989503 .22529602 .032989503 .09324646 .1289978-.009765625 .24499512-.009765625 .29100038-.009765625 .34599305 .0032196046 .40098573 .04322815 .40098573 .047225954 .397995 .08023071 .397995 .08023071 .397995 .08023071 .394989 .10324097 .394989 .10725403 .33599855 .057235719 .2769928 .050231935 .24699402 .050231935 .16999817 .050231935 .10398865 .11924744 .101989749 .22529602H.40699769M.34799195 .27929688H.10798645C.125 .3461151 .17199707 .39897157 .23098755 .39897157 .2619934 .39897157 .33099366 .38500978 .34799195 .27929688M.35499574 .69433596H.2789917L.14898682 .52734377H.20899964L.35499574 .69433596Z"/>
<path id="font_3_27" d="M.45799256 0 .27198792 .27311708 .43598939 .4441986H.34399415L.15098572 .24310303V.69433596H.07798767V0H.147995V.14405823L.22399903 .22299195 .37599183 0H.45799256Z"/>
<path id="font_3_64" d="M.40098573 .00022888184V.29315187C.40098573 .3889923 .33198548 .45898438 .23899842 .45898438 .1789856 .45898438 .13398743 .4449768 .084991458 .41697694L.09098816 .35105897C.1349945 .38301087 .18099976 .40097047 .23899842 .40097047 .2849884 .40097047 .32499696 .36402894 .32499696 .29115296V.25021363C.27999879 .24821472 .21998596 .24520874 .1599884 .22520447 .09298706 .20220948 .053985597 .16522217 .053985597 .115219119 .053985597 .07122803 .07998657-.009765625 .16499329-.009765625 .21998596-.009765625 .2899933 .006225586 .32699586 .037231447V.00022888184H.40098573M.32499696 .13421631C.32499696 .114227298 .32499696 .09022522 .2919922 .07022095 .2649994 .053222658 .23098755 .050231935 .21598816 .050231935 .1619873 .050231935 .125 .07922363 .125 .1162262 .125 .18421936 .2639923 .19921875 .32499696 .19921875V.13421631M.37199403 .69433596H.29599L.1659851 .52734377H.22599793L.37199403 .69433596Z"/>
<path id="font_3_10" d="M.4229889 .00022888184V.69433596H.34899903V.4020996C.30299378 .440094 .25099183 .45410157 .20799256 .45410157 .11299133 .45410157 .034988405 .35211183 .034988405 .22216797 .034988405 .09321594 .10899353-.009765625 .20399475-.009765625 .24099732-.009765625 .29699708 .0022277833 .34700013 .051223756V.00022888184H.4229889M.34700013 .11819458C.32299806 .07521057 .28799439 .050231935 .24398804 .050231935 .18299866 .050231935 .11099243 .097213748 .11099243 .22116089 .11099243 .35411073 .19599915 .39408876 .2539978 .39408876 .29299928 .39408876 .32499696 .37409974 .34700013 .34111024V.11819458Z"/>
<path id="font_3_68" d="M.1519928 0V.44433595H.07798767V0H.1519928M.28399659 .69433596H.20799256L.07798767 .52734377H.13798523L.28399659 .69433596Z"/>
<clipPath id="clip_4">
<path transform="matrix(1.75,0,0,-1.75,19.021,112.075008)" d="M0 0H5.632V5.632H0Z"/>
</clipPath>
<path id="font_1_30" d="M.45399476 0V.06298828H.32099916V.6767578H.29899598C.23399353 .61683657 .1519928 .61283877 .09199524 .61083987V.54785159C.1309967 .5488434 .18099976 .5508423 .23098755 .57084658V.06298828H.09799194V0H.45399476Z"/>
<path id="font_3_46" d="M.4889984 .18894959C.4889984 .2529602 .45799256 .3009491 .43598939 .32595826 .3899994 .37495423 .35299684 .38494874 .28599549 .40194703 .21798706 .41896058 .19299317 .42495729 .17098999 .44595338 .1579895 .45994569 .1309967 .48495484 .1309967 .529953 .1309967 .59095767 .18598938 .6499481 .27398683 .6499481 .35899354 .6499481 .4039917 .6169586 .43998719 .58496096L.45498658 .6659546C.4139862 .6878357 .3639984 .71484377 .2749939 .71484377 .14099121 .71484377 .053985597 .6188202 .053985597 .5187683 .053985597 .4477234 .09700012 .40170289 .101989749 .396698 .15098572 .34666444 .18499756 .33766175 .24899292 .32165528 .33399964 .30064393 .34799195 .29664613 .37998963 .2636261 .39698792 .24562073 .4119873 .21359253 .4119873 .17857361 .4119873 .10954285 .35499574 .04550171 .2689972 .04550171 .19599915 .04550171 .117996219 .074523929 .05899048 .1285553L.04399109 .04751587C.1349945-.012496948 .22299195-.021484375 .2689972-.021484375 .397995-.021484375 .4889984 .07752991 .4889984 .18858338V.18894959Z"/>
<path id="font_3_53" d="M.42399598 .00022888184V.44433595H.34799195V.1582489C.34799195 .082229617 .29499818 .04522705 .22999573 .04522705 .1599884 .04522705 .15299988 .07122803 .15299988 .115249637V.44433595H.07699585V.11123657C.07699585 .039230348 .099990848-.009765625 .18199158-.009765625 .20999146-.009765625 .2889862-.004776001 .34999085 .050231935V.00022888184H.42399598Z"/>
<path id="font_3_71" d="M.31799317 .38708497V.45410157C.22698975 .45309449 .17399597 .40008546 .14698792 .36106874V.44909669H.07798767V0H.1519928V.21903992C.1519928 .32006837 .22799683 .38607789 .31799317 .38708497M.32199098 .6972656H.2630005L.16699219 .5743408 .070999149 .6972656H.011993408L.13699341 .5253906H.19699097L.32199098 .6972656Z"/>
<path id="font_3_6" d="M.40699769 .04222107C.40699769 .04522705 .4039917 .07620239 .40299989 .080200199L.40098573 .108184818C.35499574 .07121277 .3039856 .052230836 .24798584 .052230836 .16499329 .052230836 .11099243 .12617493 .11099243 .22309876 .11099243 .30604554 .15098572 .39697267 .25099183 .39697267 .31799317 .39697267 .34599305 .38098146 .3889923 .352005L.40098573 .41697694C.34298707 .4509735 .30999757 .45898438 .25099183 .45898438 .11299133 .45898438 .034988405 .33702088 .034988405 .22309876 .034988405 .095199588 .1269989-.009765625 .24699402-.009765625 .29599-.009765625 .35198976 .0022277833 .40699769 .04222107Z"/>
<path id="font_3_12" d="M.40699769 .22529602C.40699769 .2682953 .40299989 .3291626 .37098695 .38201905 .32998658 .4509735 .2599945 .45898438 .23098755 .45898438 .12298584 .45898438 .032989503 .35508729 .032989503 .22529602 .032989503 .09324646 .1289978-.009765625 .24499512-.009765625 .29100038-.009765625 .34599305 .0032196046 .40098573 .04322815 .40098573 .047225954 .397995 .08023071 .397995 .08023071 .397995 .08023071 .394989 .10324097 .394989 .10725403 .33599855 .057235719 .2769928 .050231935 .24699402 .050231935 .16999817 .050231935 .10398865 .11924744 .101989749 .22529602H.40699769M.34799195 .27929688H.10798645C.125 .3461151 .17199707 .39897157 .23098755 .39897157 .2619934 .39897157 .33099366 .38500978 .34799195 .27929688Z"/>
<path id="font_3_76" d="M.43299867 .44433595H.35798646C.31199647 .32621766 .23498535 .13005066 .23098755 .057998659H.22999573C.22499085 .11705017 .17199707 .24916077 .1639862 .2691803L.09298706 .44433595H.01399231L.19999695 0 .16499329-.09106445C.14299011-.14109802 .12799073-.1461029 .10998535-.1461029 .09599304-.1461029 .06399536-.14311219 .032989503-.13110352L.038986207-.19610596C.04499817-.19711304 .07798767-.20410156 .10998535-.20410156 .13398743-.20410156 .18099976-.20410156 .22399903-.094070438L.43299867 .44433595M.36099244 .69433596H.2849884L.15499878 .52734377H.21499634L.36099244 .69433596Z"/>
<path id="font_3_22" d="M.42399598 0V.30107118C.42399598 .36209107 .41099549 .45410157 .2899933 .45410157 .22099304 .45410157 .1749878 .4151001 .15098572 .38508607V.69433596H.07699585V0H.15299988V.24905396C.15299988 .31106568 .17599488 .39408876 .2519989 .39408876 .34498597 .39408876 .34799195 .32907105 .34799195 .29406739V0H.42399598Z"/>
<path id="font_3_75" d="M.42399598 .00022888184V.44433595H.34799195V.1582489C.34799195 .082229617 .29499818 .04522705 .22999573 .04522705 .1599884 .04522705 .15299988 .07122803 .15299988 .115249637V.44433595H.07699585V.11123657C.07699585 .039230348 .099990848-.009765625 .18199158-.009765625 .20999146-.009765625 .2889862-.004776001 .34999085 .050231935V.00022888184H.42399598M.30099488 .6014862C.30099488 .5704498 .2709961 .5644531 .2519989 .5644531 .24398804 .5644531 .20298767 .5644531 .20298767 .6014862 .20298767 .63253787 .23298645 .63853457 .2519989 .63853457 .2599945 .63853457 .30099488 .63853457 .30099488 .6014862M.36099244 .6004944C.36099244 .64753726 .31298829 .6855469 .2519989 .6855469 .18798828 .6855469 .14299011 .6445465 .14299011 .6024933 .14299011 .55545046 .19099427 .5174408 .2519989 .5174408 .31599427 .5174408 .36099244 .55844119 .36099244 .6004944Z"/>
<path id="font_3_63" d="M.1789856-.058670045V.44433595H.10499573V-.06867981C.10499573-.13511658 .051986696-.14111328 .0309906-.14111328-.013000488-.14111328-.040008546-.1131134-.042007448-.11010742L-.06201172-.17010498C-.030014039-.18910218 .009994507-.20410156 .055999757-.20410156 .11898804-.20401001 .1789856-.15200806 .1789856-.059005739V-.058670045M.1789856 .5683594V.6543579H.09298706V.5683594H.1789856Z"/>
<path id="font_3_47" d="M.35198976 .12687683C.35198976 .17788697 .32099916 .20988465 .31698609 .21488953 .27999879 .2528839 .25 .25888063 .18899536 .27088929 .15299988 .2778778 .101989749 .28788758 .101989749 .33789063 .101989749 .39988709 .17199707 .39988709 .18499756 .39988709 .23799134 .39988709 .27999879 .38787843 .32398988 .36288453L.33599855 .42788697C.27198792 .4579773 .21798706 .45898438 .19499207 .45898438 .17199707 .45898438 .032989503 .45898438 .032989503 .32902528 .032989503 .2850647 .056991579 .25508119 .07199097 .24108887 .10798645 .21011353 .1329956 .2051239 .19198609 .1931305 .22499085 .18612671 .2829895 .1741333 .2829895 .121170047 .2829895 .052230836 .20498657 .052230836 .19099427 .052230836 .15098572 .052230836 .09298706 .06321716 .038986207 .10218811L.026992798 .034225465C.03199768 .031219483 .099990848-.009765625 .19198609-.009765625 .32099916-.009765625 .35198976 .068222049 .35198976 .12716675V.12687683Z"/>
<path id="font_3_58" d="M.43299867 .44433595H.35798646C.31199647 .32621766 .23498535 .13005066 .23098755 .057998659H.22999573C.22499085 .11705017 .17199707 .24916077 .1639862 .2691803L.09298706 .44433595H.01399231L.19999695 0 .16499329-.09106445C.14299011-.14109802 .12799073-.1461029 .10998535-.1461029 .09599304-.1461029 .06399536-.14311219 .032989503-.13110352L.038986207-.19610596C.04499817-.19711304 .07798767-.20410156 .10998535-.20410156 .13398743-.20410156 .18099976-.20410156 .22399903-.094070438L.43299867 .44433595Z"/>
<path id="font_3_57" d="M.44699098 0 .2539978 .22917176 .43099977 .44433595H.34700013L.22099304 .2822113 .08999634 .44433595H.004989624L.18699646 .22917176 0 0H.08299255L.22099304 .18612671 .36299134 0H.44699098Z"/>
<path id="font_3_41" d="M.17599488 0V.08099365H.09498596V0H.17599488Z"/>
<clipPath id="clip_5">
<path transform="matrix(1.75,0,0,-1.75,19.021,143.956)" d="M0 0H5.632V5.632H0Z"/>
</clipPath>
<path id="font_1_46" d="M.47698976 0V.07699585H.2829895C.2709961 .07699585 .25898744 .07598877 .24699402 .07598877H.1329956L.28799439 .21289063C.30599977 .22888184 .35499574 .2658844 .37399293 .2818756 .41799928 .3218689 .47698976 .37384034 .47698976 .46081544 .47698976 .573761 .3929901 .6767578 .25 .6767578 .14399719 .6767578 .07798767 .619751 .04399109 .51779177L.09098816 .45881654C.11399841 .5427704 .14898682 .60775759 .23599243 .60775759 .31999208 .60775759 .38398744 .5487671 .38398744 .45881654 .38398744 .37583924 .33499146 .32885743 .2749939 .2718811 .25498963 .25187684 .20098877 .20689392 .17999268 .1869049 .15098572 .16099549 .08198547 .09399414 .052993776 .068984989V0H.47698976Z"/>
<path id="font_3_25" d="M.3789978 .14764405V.69433596H.29499818V.15164185C.29499818 .09358215 .2669983 .040512086 .1789856 .040512086 .12298584 .040512086 .07998657 .06654358 .054992677 .095581058L.040985109 .020507813C.09899902-.009490967 .15499878-.021484375 .20799256-.021484375 .31298829-.021484375 .3789978 .040512086 .3789978 .14764405Z"/>
<path id="font_3_4" d="M.46598817 .22309876C.46598817 .34609986 .3999939 .45410157 .30699159 .45410157 .27799989 .45410157 .21398926 .4480896 .1519928 .39808656V.69433596H.07798767V.000091552738L.1539917 .00022888184V.04522705C.19999695 .0012207031 .24899292-.009765625 .28399659-.009765625 .3789978-.009765625 .46598817 .08721924 .46598817 .22315979V.22309876M.3899994 .22315979C.3899994 .09321594 .30799867 .050231935 .24699402 .050231935 .21899414 .050231935 .19999695 .06022644 .18199158 .07421875 .1579895 .095214847 .1539917 .113204959 .1539917 .13020325V.33711244C.17199707 .3651123 .20799256 .39408876 .25698854 .39408876 .31799317 .39408876 .3899994 .348114 .3899994 .22315979Z"/>
<path id="font_3_45" d="M.31799317 .38708497V.45410157C.22698975 .45309449 .17399597 .40008546 .14698792 .36106874V.44909669H.07798767V0H.1519928V.21903992C.1519928 .32006837 .22799683 .38607789 .31799317 .38708497Z"/>
<path id="font_3_8" d="M.17599488 .0009918213V.08099365H.09498596V0H.11999512L.09498596-.125H.1349945L.17599488 .0009918213Z"/>
<path id="font_3_77" d="M.3929901 0V.06098938H.25C.23799134 .06098938 .22599793 .05999756 .21398926 .05999756H.1289978L.3899994 .40533448V.44433595H.040985109V.3853302H.17599488C.18798828 .3853302 .19999695 .38632203 .21199036 .38632203H.28799439L.026992798 .039993287V0H.3929901M.36799623 .6972656H.30899049L.21299744 .5743408 .116989139 .6972656H.057998659L.18299866 .5253906H.24299622L.36799623 .6972656Z"/>
<path id="font_3_23" d="M.2709961 .19296265V.25097657H.010986328V.19296265H.2709961Z"/>
<clipPath id="clip_6">
<path transform="matrix(1.75,0,0,-1.75,19.021,175.836)" d="M0 0H5.632V5.632H0Z"/>
</clipPath>
<path id="font_1_45" d="M.48599244 .1816101C.48599244 .26367188 .41999818 .3297119 .34098817 .3527069 .4169922 .39170838 .45599366 .45872499 .45599366 .5237274 .45599366 .6087494 .36898805 .6767578 .2619934 .6767578 .17399597 .6767578 .100997928 .63075259 .05899048 .57073977L.099990848 .51272585C.14099121 .5927429 .21299744 .6147461 .26098634 .6147461 .31999208 .6147461 .3639984 .5807495 .3639984 .5237274 .3639984 .47071839 .32798768 .40571595 .2519989 .39271546 .24699402 .39170838 .24299622 .39170838 .1769867 .38671876V.32070924H.25498963C.34999085 .32070924 .3849945 .24565125 .3849945 .18260193 .3849945 .10455322 .33699037 .044509889 .25898744 .044509889 .18798828 .044509889 .10699463 .07853699 .056991579 .14257813L.04399109 .07752991C.101989749 .012512207 .18299866-.021484375 .26098634-.021484375 .3919983-.021484375 .48599244 .076538089 .48599244 .1816101Z"/>
<path id="font_3_9" d="M.6489868 .341156C.6489868 .53627017 .5159912 .69433596 .34799195 .69433596H.09098816V0H.34799195C.5149994 0 .6489868 .15104676 .6489868 .341156M.5649872 .3421631C.5649872 .15905762 .45399476 .055999757 .32499696 .055999757H.1749878V.6383209H.32499696C.45899964 .6383209 .5649872 .52326968 .5649872 .3421631Z"/>
<path id="font_3_67" d="M.40699769 .22529602C.40699769 .2682953 .40299989 .3291626 .37098695 .38201905 .32998658 .4509735 .2599945 .45898438 .23098755 .45898438 .12298584 .45898438 .032989503 .35508729 .032989503 .22529602 .032989503 .09324646 .1289978-.009765625 .24499512-.009765625 .29100038-.009765625 .34599305 .0032196046 .40098573 .04322815 .40098573 .047225954 .397995 .08023071 .397995 .08023071 .397995 .08023071 .394989 .10324097 .394989 .10725403 .33599855 .057235719 .2769928 .050231935 .24699402 .050231935 .16999817 .050231935 .10398865 .11924744 .101989749 .22529602H.40699769M.34799195 .27929688H.10798645C.125 .3461151 .17199707 .39897157 .23098755 .39897157 .2619934 .39897157 .33099366 .38500978 .34799195 .27929688M.37298585 .6972656H.31399537L.21798706 .5743408 .12199402 .6972656H.06298828L.18798828 .5253906H.24798584L.37298585 .6972656Z"/>
<path id="font_3_65" d="M.40699769 .04222107C.40699769 .04522705 .4039917 .07620239 .40299989 .080200199L.40098573 .108184818C.35499574 .07121277 .3039856 .052230836 .24798584 .052230836 .16499329 .052230836 .11099243 .12617493 .11099243 .22309876 .11099243 .30604554 .15098572 .39697267 .25099183 .39697267 .31799317 .39697267 .34599305 .38098146 .3889923 .352005L.40098573 .41697694C.34298707 .4509735 .30999757 .45898438 .25099183 .45898438 .11299133 .45898438 .034988405 .33702088 .034988405 .22309876 .034988405 .095199588 .1269989-.009765625 .24699402-.009765625 .29599-.009765625 .35198976 .0022277833 .40699769 .04222107M.3939972 .6972656H.33499146L.23899842 .5743408 .14299011 .6972656H.083999637L.20899964 .5253906H.2689972L.3939972 .6972656Z"/>
<clipPath id="clip_7">
<path transform="matrix(1.75,0,0,-1.75,19.021,193.27101)" d="M0 0H5.632V5.632H0Z"/>
</clipPath>
<path id="font_1_15" d="M.5 .16699219V.23298645H.3959961V.65625H.29699708L.02999878 .23298645V.16699219H.30999757V0H.3959961V.16699219H.5M.31698609 .23298645H.114990238C.14498902 .28001405 .31599427 .5471802 .31698609 .60720828V.23298645Z"/>
<path id="font_3_37" d="M.56799319 .4921875C.56799319 .5982971 .47099305 .69433596 .33499146 .69433596H.09098816V0H.1769867V.2890625H.33499146C.47299195 .2890625 .56799319 .38809205 .56799319 .4921875M.4889984 .49319459C.4889984 .41412355 .42799378 .34706117 .31399537 .34706117H.1749878V.6383209H.31399537C.43099977 .6383209 .4889984 .5682678 .4889984 .49319459Z"/>
<path id="font_1_5" d="M.6230011 .04623413 .61698916 .12220764C.58599856 .10221863 .55400088 .082214359 .5189972 .07122803 .48399354 .06022644 .44799806 .05921936 .4119873 .05921936 .34498597 .05921936 .2829895 .09222412 .23899842 .14320374 .19099427 .20019531 .16799927 .27316285 .16799927 .3471527 .16799927 .4221344 .19099427 .4941101 .23899842 .5511017 .2829895 .6020813 .34498597 .6350708 .4119873 .6350708 .44400025 .6350708 .47599793 .6320801 .5069885 .6230774 .5389862 .6130829 .56799319 .5970764 .59599307 .5790863L.6119995 .67007449C.5799866 .68107607 .5469971 .69107058 .5130005 .69706729 .47999574 .70306399 .44599916 .7050781 .4119873 .7050781 .31999208 .7050781 .23199463 .66607668 .16799927 .6000824 .102996829 .5321045 .066986087 .4411316 .066986087 .3471527 .066986087 .25317384 .102996829 .16220093 .16799927 .09422302 .23199463 .02822876 .31999208-.009765625 .4119873-.009765625 .44898988-.009765625 .48599244-.008773804 .5219879 .00022888184 .55799868 .010223389 .59098818 .02722168 .6230011 .04623413Z"/>
<path id="font_1_19" d="M.46499635 0V.29606629C.46499635 .37408448 .44198609 .45410157 .31900025 .45410157 .23298645 .45410157 .18699646 .4040985 .16699219 .38308717V.69433596H.08299255V0H.16999817V.24305725C.16999817 .30906678 .19799805 .38809205 .2749939 .38809205 .37799073 .38809205 .37799073 .31806947 .37799073 .2890625V0H.46499635Z"/>
<path id="font_1_24" d="M.16799927 0V.69433596H.083999637V0H.16799927Z"/>
<path id="font_1_47" d="M.46499635 .00022888184V.44433595H.37799073V.1542511C.37799073 .07423401 .30999757 .049224855 .2519989 .049224855 .17799378 .049224855 .16999817 .069229129 .16999817 .115249637V.44433595H.08299255V.10923767C.08299255 .020233155 .12199402-.009765625 .19198609-.009765625 .23298645-.009765625 .32099916-.0017700195 .3809967 .04623413V.00022888184H.46499635Z"/>
<path id="font_1_55" d="M.16799927 0V.44433595H.083999637V0H.16799927M.1769867 .5601196V.6611328H.07598877V.5601196H.1769867Z"/>
<path id="font_1_33" d="M.35299684-.25C.34999085-.2480011 .25299073-.16500855 .20698548-.009002686 .18299866 .069000247 .17098999 .15098572 .17098999 .25 .17098999 .59599307 .33299256 .7330017 .35299684 .75H.30499269C.28799439 .75 .28599549 .75 .27398683 .7389984 .147995 .6289978 .083999637 .45098878 .083999637 .25 .083999637 .06098938 .14099121-.1210022 .272995-.23701477 .28599549-.25 .28799439-.25 .30499269-.25H.35299684Z"/>
<path id="font_1_12" d="M.5629883 .62109377V.6910858H.09700012V0H.19799805V.31289674H.5179901V.37890626H.19799805V.6220856H.33699037C.34899903 .6220856 .36099244 .62109377 .37298585 .62109377H.5629883Z"/>
<path id="font_1_21" d="M.19799805 0V.69433596H.09700012V0H.19799805Z"/>
<path id="font_1_43" d="M.68699648 .6171875V.68717959H.037994386V.6171875H.18199158C.19400025 .6171875 .20599365 .6181793 .21798706 .6181793H.31199647V0H.41299439V.6181793H.5069885C.5189972 .6181793 .5309906 .6171875 .54299929 .6171875H.68699648Z"/>
<path id="font_1_34" d="M.32798768 .25C.32798768 .43899537 .2709961 .62098696 .13899231 .7369995 .12599182 .75 .12399292 .75 .10699463 .75H.05899048C.06199646 .7480011 .15899658 .6649933 .20498657 .5089874 .22898865 .43099977 .24099732 .34899903 .24099732 .25 .24099732-.0960083 .07899475-.23300171 .05899048-.25H.10699463C.12399292-.25 .12599182-.25 .13798523-.23901367 .2639923-.12901306 .32798768 .04899597 .32798768 .25Z"/>
<path id="font_1_3" d="M.647995 .18798828C.647995 .27598573 .5549927 .34700013 .44400025 .36299134 .5479889 .38812257 .6179962 .4481659 .6179962 .52023318 .6179962 .6123047 .5029907 .69433596 .35598756 .69433596H.099990848V0H.3849945C.5329895 0 .647995 .088012699 .647995 .18804932V.18798828M.5309906 .5192261C.5309906 .4521637 .43998719 .39411927 .32699586 .39411927H.19400025V.6353302H.32598878C.43798829 .6353302 .5309906 .5832825 .5309906 .5192261M.5569916 .1890564C.5569916 .11502075 .46398927 .05899048 .35398866 .05899048H.19400025V.328125H.33699037C.46299745 .328125 .5569916 .26408387 .5569916 .1890564Z"/>
<path id="font_1_20" d="M.2939911 .19090271V.25390626H.011993408V.19090271H.2939911Z"/>
<path id="font_1_16" d="M.6349945 .039230348V.30036927H.4119873V.234375H.5479889V.07923889C.5039978 .0662384 .45799256 .05921936 .4119873 .05921936 .34498597 .05921936 .2829895 .09225464 .23899842 .14329529 .19099427 .2003479 .16799927 .2733612 .16799927 .34732057 .16799927 .42225648 .19099427 .49420167 .23899842 .55114749 .2829895 .60209658 .34498597 .6350708 .4119873 .6350708 .44699098 .6350708 .48298646 .631073 .5169983 .6190796 .5509949 .6070862 .58200076 .58810427 .61099246 .5651245L.6269989 .6560669C.59298709 .67207339 .55799868 .6860657 .5219879 .69407656 .48599244 .70207217 .44898988 .7050781 .4119873 .7050781 .31999208 .7050781 .23199463 .66607668 .16799927 .60009768 .102996829 .5321655 .066986087 .4412384 .066986087 .34732057 .066986087 .2533722 .102996829 .16230774 .16799927 .09425354 .23199463 .02822876 .31999208-.009765625 .4119873-.009765625 .4889984-.009765625 .5649872 .006225586 .6349945 .039230348Z"/>
<path id="font_1_1" d="M.6769867 0 .4019928 .69433596H.30499269L.02999878 0H.11199951L.18998719 .19824219H.49398805L.57199099 0H.6769867M.46899415 .25723268H.21499634L.34298707 .61831668 .46899415 .25723268Z"/>
<path id="font_1_7" d="M.19198609 .0009918213V.08999634H.101989749V0H.12998963L.100997928-.12792969H.1459961L.19198609 .0009918213Z"/>
<path id="font_1_63" d="M.34700013 .38008119V.45410157C.2630005 .45309449 .20199585 .41207887 .1619873 .35906983V.45109559H.084991458V0H.16899109V.21304322C.16899109 .32106019 .25898744 .3790741 .34700013 .38008119M.33699037 .6972656H.27799989L.18199158 .5743408 .085998538 .6972656H.026992798L.1519928 .5253906H.21199036L.33699037 .6972656Z"/>
<path id="font_1_10" d="M.43998719 .21928406C.43998719 .2652893 .43499757 .33213807 .3959961 .3889923 .3600006 .43997193 .2999878 .45898438 .25099183 .45898438 .1289978 .45898438 .034988405 .35209657 .034988405 .22529602 .034988405 .09724426 .1349945-.009765625 .2669983-.009765625 .32499696-.009765625 .3849945 .007232666 .43598939 .038223268L.42999269 .10925293C.37399293 .069229129 .31098939 .056228639 .2679901 .056228639 .18099976 .056228639 .114990238 .1272583 .11199951 .21928406H.43998719M.3789978 .27929688H.11898804C.14199829 .35906983 .20098877 .39297486 .25099183 .39297486 .29499818 .39297486 .3600006 .3720398 .3789978 .27929688Z"/>
<path id="font_1_57" d="M.43598939 .00022888184V.28799439C.43598939 .38998414 .35798646 .45898438 .25898744 .45898438 .19599915 .45898438 .147995 .4459839 .09199524 .41596986L.09799194 .34298707C.1309967 .36497499 .17999268 .39497376 .25898744 .39497376 .30299378 .39497376 .34899903 .36198426 .34899903 .2869873V.24699402C.20098877 .24198914 .054992677 .21099854 .054992677 .118118289 .054992677 .06820679 .08898926-.009765625 .1769867-.009765625 .21998596-.009765625 .29899598-.00077819827 .35198976 .038223268V.00022888184H.43598939M.34899903 .14207459C.34899903 .12211609 .34899903 .09616089 .31399537 .07519531 .28199769 .05722046 .24299622 .056228639 .23199463 .056228639 .1769867 .056228639 .1349945 .08117676 .1349945 .11911011 .1349945 .18299866 .3039856 .18899536 .34899903 .19099427V.14207459M.40499879 .69433596H.31799317L.18099976 .52734377H.24699402L.40499879 .69433596Z"/>
<path id="font_1_64" d="M.3829956 .1301117C.3829956 .14808655 .3809967 .18702698 .33898927 .22496033 .3019867 .25790406 .2659912 .26489259 .21798706 .27388 .15899658 .2848816 .11299133 .29388429 .11299133 .33789063 .11299133 .39497376 .18598938 .39497376 .20098877 .39497376 .2579956 .39497376 .3019867 .38294984 .35198976 .35691834L.36499024 .42797853C.29699708 .4559784 .24699402 .45898438 .21099854 .45898438 .18598938 .45898438 .034988405 .45898438 .034988405 .32588197 .034988405 .2788849 .06098938 .25291444 .07398987 .24093628 .10899353 .20599365 .15098572 .19799805 .20399475 .1880188 .25099183 .17903137 .30499269 .16905213 .30499269 .12112427 .30499269 .05822754 .22200012 .05822754 .20799256 .05822754 .14399719 .05822754 .083999637 .08119202 .04399109 .10914612L.02999878 .034225465C.06399536 .017227173 .125-.009765625 .20799256-.009765625 .25299073-.009765625 .29699708-.0027770997 .33399964 .024230957 .37098695 .052230836 .3829956 .09616089 .3829956 .1301117M.35899354 .6972656H.2999878L.20399475 .5743408 .10798645 .6972656H.04899597L.17399597 .5253906H.23399353L.35899354 .6972656Z"/>
<path id="font_1_23" d="M.5 0 .29899598 .27212525 .47698976 .4441986H.37998963L.1659851 .23710633V.69433596H.08799744V0H.1619873V.14006043L.24699402 .22209168 .4119873 0H.5Z"/>
<path id="font_1_59" d="M.44099427 .036224367 .43499757 .109191898C.3849945 .07720947 .33099366 .05921936 .2689972 .05921936 .1769867 .05921936 .12298584 .13316345 .12298584 .22309876 .12298584 .30004884 .16299439 .38998414 .27198792 .38998414 .33999635 .38998414 .37199403 .37599183 .4229889 .3440094L.43598939 .41596986C.37599183 .4459839 .34999085 .45898438 .27198792 .45898438 .12199402 .45898438 .035995485 .3380127 .035995485 .22210694 .035995485 .10018921 .13198853-.009765625 .2679901-.009765625 .33799745-.009765625 .397995 .011230469 .44099427 .036224367M.4149933 .6972656H.35598756L.2599945 .5743408 .1639862 .6972656H.10499573L.22999573 .5253906H.2899933L.4149933 .6972656Z"/>
<path id="font_1_35" d="M.19198609 0V.08999634H.101989749V0H.19198609Z"/>
<path id="font_1_54" d="M.48799134 .32463075C.48799134 .37265016 .48799134 .48970033 .44099427 .57173159 .3899994 .66174319 .31298829 .6767578 .2649994 .6767578 .21998596 .6767578 .14199829 .66275027 .09199524 .57673647 .04399109 .4967041 .041992189 .38764955 .041992189 .32463075 .041992189 .2505951 .04598999 .15956116 .08799744 .08352661 .13198853 .0025024415 .20599365-.021484375 .2649994-.021484375 .36499024-.021484375 .41999818 .036514284 .44999696 .09953308 .4850006 .17056275 .48799134 .26260377 .48799134 .32463075M.40098573 .33763124C.40098573 .27160646 .40098573 .19657898 .3769989 .1325531 .34899903 .060516359 .2979889 .044509889 .2649994 .044509889 .22299195 .044509889 .1749878 .06851196 .1499939 .1405487 .12998963 .20158386 .1289978 .26460267 .1289978 .33763124 .1289978 .42967225 .1289978 .6107483 .2649994 .6107483 .40098573 .6107483 .40098573 .42967225 .40098573 .33763124Z"/>
<path id="font_1_52" d="M.59498599 0V.070999149H.49499513L.18899536 .068984989 .58898928 .6503296V.69433596H.07398987V.6273346H.2829895C.29699708 .6273346 .30899049 .6283264 .32299806 .6283264H.45999146L.05899048 .04598999V0H.59498599Z"/>
<path id="font_1_38" d="M.5299988 .19158936C.5299988 .27262879 .48298646 .3186493 .46299745 .33966065 .42099 .38069154 .375 .39169313 .2979889 .4096985 .23699951 .42370606 .20498657 .43171693 .18099976 .45472718 .16799927 .46774293 .14498902 .49075318 .14498902 .5287781 .14498902 .58480837 .20098877 .6428375 .2979889 .6428375 .37399293 .6428375 .4269867 .6188202 .47799684 .5757904L.49398805 .6658325C.42999269 .6988373 .37298585 .71484377 .29899598 .71484377 .147995 .71484377 .05899048 .6128235 .05899048 .5167694 .05899048 .47573854 .07199097 .42771913 .12098694 .38168336 .16499329 .34066773 .21099854 .33065797 .272995 .31565858 .35699464 .29563905 .37998963 .29063417 .40899659 .26062013 .42799378 .24160767 .44400025 .21359253 .44400025 .17958069 .44400025 .11753845 .3880005 .053512575 .29100038 .053512575 .23399353 .053512575 .14199829 .070510867 .06298828 .13755799L.04699707 .04750061C.09700012 .018508912 .17999268-.021484375 .2919922-.021484375 .43099977-.021484375 .5299988 .07952881 .5299988 .19158936Z"/>
<path id="font_1_42" d="M.47099305 .72698977C.47099305 .73999026 .46099855 .75 .44799806 .75 .43199159 .75 .42799378 .73799136 .4229889 .7259979L.06399536-.2090149C.05899048-.2210083 .05899048-.227005 .05899048-.227005 .05899048-.2400055 .068984989-.25 .08198547-.25 .09799194-.25 .101989749-.23800659 .10699463-.22601319L.46598817 .70899966C.47099305 .72099307 .47099305 .72698977 .47099305 .72698977Z"/>
<path id="font_1_14" d="M.47698976 .20271302C.47698976 .32676698 .3849945 .42578126 .2749939 .42578126 .23199463 .42578126 .19400025 .4107666 .1639862 .3857727V.58724978H.44099427V.65625H.083999637V.28173829H.15699768C.18099976 .33576966 .22799683 .35977174 .272995 .35977174 .31399537 .35977174 .37599183 .3317566 .37599183 .20471192 .37599183 .07357788 .29299928 .044509889 .24198914 .044509889 .17599488 .044509889 .11199951 .079589847 .07798767 .13671875L.039993287 .07658386C.08898926 .01550293 .16299439-.021484375 .24198914-.021484375 .37399293-.02128601 .47698976 .080703739 .47698976 .20271302Z"/>
<path id="font_1_41" d="M.48599244 .2224884C.48599244 .3534851 .4149933 .46247865 .31799317 .46247865 .21998596 .46247865 .16699219 .41148377 .13798523 .3824768 .15098572 .519577 .22099304 .6147461 .32899476 .6147461 .34899903 .6147461 .3889923 .6127472 .43899537 .5937042V.65675356C.3849945 .6767578 .34700013 .6767578 .32798768 .6767578 .17599488 .6767578 .04399109 .53359988 .04399109 .32247926 .04399109 .051513673 .1659851-.021484375 .2669983-.021484375 .34799195-.021484375 .3899994 .01651001 .42099 .04850769 .4850006 .116500858 .48599244 .1875 .48599244 .2224884M.3939972 .2224884C.3939972 .18449402 .3939972 .14250183 .36698915 .10050964 .34298707 .0644989 .31298829 .044509889 .2669983 .044509889 .16099549 .044509889 .14399719 .17549134 .13899231 .21949768 .13899231 .22549439 .13899231 .24049378 .13999939 .2454834 .13999939 .31349183 .18299866 .39648438 .27198792 .39648438 .3939972 .39648438 .3939972 .256485 .3939972 .2224884Z"/>
</defs>
<path transform="matrix(1,0,0,-1,0,272.126)" d="M0 0H362.835V272.126H0Z" fill="#ffffff"/>
<path transform="matrix(1,0,0,-1,0,11.024994)" d="M0 0H181.417V11.025H0Z" fill="#4747ba"/>
<use data-text="K" xlink:href="#font_1_22" transform="matrix(5.9776,0,0,-5.9776,122.735,7.0400087)" fill="#ffffff"/>
<use data-text="v" xlink:href="#font_1_49" transform="matrix(5.9776,0,0,-5.9776,126.96714,7.0400087)" fill="#ffffff"/>
<use data-text="a" xlink:href="#font_1_2" transform="matrix(5.9776,0,0,-5.9776,129.89617,7.0400087)" fill="#ffffff"/>
<use data-text="d" xlink:href="#font_1_9" transform="matrix(5.9776,0,0,-5.9776,132.94474,7.0400087)" fill="#ffffff"/>
<use data-text="r" xlink:href="#font_1_37" transform="matrix(5.9776,0,0,-5.9776,136.22644,7.0400087)" fill="#ffffff"/>
<use data-text="a" xlink:href="#font_1_2" transform="matrix(5.9776,0,0,-5.9776,138.39632,7.0400087)" fill="#ffffff"/>
<use data-text="n" xlink:href="#font_1_26" transform="matrix(5.9776,0,0,-5.9776,141.45087,7.0400087)" fill="#ffffff"/>
<use data-text="t" xlink:href="#font_1_44" transform="matrix(5.9776,0,0,-5.9776,144.73258,7.0400087)" fill="#ffffff"/>
<use data-text="o" xlink:href="#font_1_29" transform="matrix(5.9776,0,0,-5.9776,147.02797,7.0400087)" fill="#ffffff"/>
<use data-text="v" xlink:href="#font_1_49" transform="matrix(5.9776,0,0,-5.9776,150.20207,7.0400087)" fill="#ffffff"/>
<use data-text="&#x00e9;" xlink:href="#font_1_60" transform="matrix(5.9776,0,0,-5.9776,153.1311,7.0400087)" fill="#ffffff"/>
<use data-text="s" xlink:href="#font_1_39" transform="matrix(5.9776,0,0,-5.9776,158.0686,7.0400087)" fill="#ffffff"/>
<use data-text="t" xlink:href="#font_1_44" transform="matrix(5.9776,0,0,-5.9776,160.50148,7.0400087)" fill="#ffffff"/>
<use data-text="r" xlink:href="#font_1_37" transform="matrix(5.9776,0,0,-5.9776,162.79688,7.0400087)" fill="#ffffff"/>
<use data-text="o" xlink:href="#font_1_29" transform="matrix(5.9776,0,0,-5.9776,164.96675,7.0400087)" fill="#ffffff"/>
<use data-text="m" xlink:href="#font_1_25" transform="matrix(5.9776,0,0,-5.9776,168.14086,7.0400087)" fill="#ffffff"/>
<use data-text="y" xlink:href="#font_1_51" transform="matrix(5.9776,0,0,-5.9776,173.18595,7.0400087)" fill="#ffffff"/>
<path transform="matrix(1,0,0,-1,181.417,11.024994)" d="M0 0H181.417V11.025H0Z" fill="#adade0"/>
<use data-text="P" xlink:href="#font_1_31" transform="matrix(5.9776,0,0,-5.9776,186.731,7.0400087)"/>
<use data-text="K" xlink:href="#font_1_22" transform="matrix(5.9776,0,0,-5.9776,192.90587,7.0400087)"/>
<use data-text="v" xlink:href="#font_1_49" transform="matrix(5.9776,0,0,-5.9776,197.14398,7.0400087)"/>
<use data-text="a" xlink:href="#font_1_2" transform="matrix(5.9776,0,0,-5.9776,200.07302,7.0400087)"/>
<use data-text="d" xlink:href="#font_1_9" transform="matrix(5.9776,0,0,-5.9776,203.12158,7.0400087)"/>
<use data-text="r" xlink:href="#font_1_37" transform="matrix(5.9776,0,0,-5.9776,206.40329,7.0400087)"/>
<use data-text="a" xlink:href="#font_1_2" transform="matrix(5.9776,0,0,-5.9776,208.57317,7.0400087)"/>
<use data-text="n" xlink:href="#font_1_26" transform="matrix(5.9776,0,0,-5.9776,211.62174,7.0400087)"/>
<use data-text="t" xlink:href="#font_1_44" transform="matrix(5.9776,0,0,-5.9776,214.90345,7.0400087)"/>
<use data-text="o" xlink:href="#font_1_29" transform="matrix(5.9776,0,0,-5.9776,217.19884,7.0400087)"/>
<use data-text="v" xlink:href="#font_1_49" transform="matrix(5.9776,0,0,-5.9776,220.37294,7.0400087)"/>
<use data-text="&#x00fd;" xlink:href="#font_1_66" transform="matrix(5.9776,0,0,-5.9776,223.30197,7.0400087)"/>
<use data-text="s" xlink:href="#font_1_39" transform="matrix(5.9776,0,0,-5.9776,228.34708,7.0400087)"/>
<use data-text="t" xlink:href="#font_1_44" transform="matrix(5.9776,0,0,-5.9776,230.77996,7.0400087)"/>
<use data-text="r" xlink:href="#font_1_37" transform="matrix(5.9776,0,0,-5.9776,233.07535,7.0400087)"/>
<use data-text="o" xlink:href="#font_1_29" transform="matrix(5.9776,0,0,-5.9776,235.24523,7.0400087)"/>
<use data-text="m" xlink:href="#font_1_25" transform="matrix(5.9776,0,0,-5.9776,238.41933,7.0400087)"/>
<use data-text="V" xlink:href="#font_2_37" transform="matrix(17.2154,0,0,-17.2154,8.503998,35.032014)" fill="#3333b3"/>
<use data-text="l" xlink:href="#font_2_19" transform="matrix(17.2154,0,0,-17.2154,19.263623,35.032014)" fill="#3333b3"/>
<use data-text="o" xlink:href="#font_2_24" transform="matrix(17.2154,0,0,-17.2154,23.102658,35.032014)" fill="#3333b3"/>
<use data-text="&#x017e;" xlink:href="#font_2_54" transform="matrix(17.2154,0,0,-17.2154,31.193898,35.032014)" fill="#3333b3"/>
<use data-text="e" xlink:href="#font_2_9" transform="matrix(17.2154,0,0,-17.2154,38.21778,35.032014)" fill="#3333b3"/>
<use data-text="n" xlink:href="#font_2_22" transform="matrix(17.2154,0,0,-17.2154,45.41382,35.032014)" fill="#3333b3"/>
<use data-text="&#x00ed;" xlink:href="#font_2_49" transform="matrix(17.2154,0,0,-17.2154,53.74607,35.032014)" fill="#3333b3"/>
<use data-text="e" xlink:href="#font_2_9" transform="matrix(17.2154,0,0,-17.2154,62.973527,35.032014)" fill="#3333b3"/>
<use data-text="l" xlink:href="#font_2_19" transform="matrix(17.2154,0,0,-17.2154,70.186779,35.032014)" fill="#3333b3"/>
<use data-text="e" xlink:href="#font_2_9" transform="matrix(17.2154,0,0,-17.2154,74.02581,35.032014)" fill="#3333b3"/>
<use data-text="m" xlink:href="#font_2_21" transform="matrix(17.2154,0,0,-17.2154,81.22185,35.032014)" fill="#3333b3"/>
<use data-text="e" xlink:href="#font_2_9" transform="matrix(17.2154,0,0,-17.2154,94.047328,35.032014)" fill="#3333b3"/>
<use data-text="n" xlink:href="#font_2_22" transform="matrix(17.2154,0,0,-17.2154,101.24336,35.032014)" fill="#3333b3"/>
<use data-text="t" xlink:href="#font_2_33" transform="matrix(17.2154,0,0,-17.2154,109.575618,35.032014)" fill="#3333b3"/>
<use data-text="u" xlink:href="#font_2_36" transform="matrix(17.2154,0,0,-17.2154,115.42885,35.032014)" fill="#3333b3"/>
<use data-text="d" xlink:href="#font_2_8" transform="matrix(17.2154,0,0,-17.2154,129.14952,35.032014)" fill="#3333b3"/>
<use data-text="o" xlink:href="#font_2_24" transform="matrix(17.2154,0,0,-17.2154,137.48178,35.032014)" fill="#3333b3"/>
<use data-text="P" xlink:href="#font_2_25" transform="matrix(17.2154,0,0,-17.2154,150.96144,35.032014)" fill="#3333b3"/>
<use data-text="k" xlink:href="#font_2_18" transform="matrix(17.2154,0,0,-17.2154,166.69632,35.032014)" fill="#3333b3"/>
<use data-text="v" xlink:href="#font_2_38" transform="matrix(17.2154,0,0,-17.2154,174.58098,35.032014)" fill="#3333b3"/>
<use data-text="a" xlink:href="#font_2_1" transform="matrix(17.2154,0,0,-17.2154,182.01804,35.032014)" fill="#3333b3"/>
<use data-text="d" xlink:href="#font_2_8" transform="matrix(17.2154,0,0,-17.2154,189.78218,35.032014)" fill="#3333b3"/>
<use data-text="r" xlink:href="#font_2_31" transform="matrix(17.2154,0,0,-17.2154,198.11444,35.032014)" fill="#3333b3"/>
<use data-text="a" xlink:href="#font_2_1" transform="matrix(17.2154,0,0,-17.2154,203.62337,35.032014)" fill="#3333b3"/>
<use data-text="n" xlink:href="#font_2_22" transform="matrix(17.2154,0,0,-17.2154,211.38751,35.032014)" fill="#3333b3"/>
<use data-text="t" xlink:href="#font_2_33" transform="matrix(17.2154,0,0,-17.2154,219.71977,35.032014)" fill="#3333b3"/>
<use data-text="o" xlink:href="#font_2_24" transform="matrix(17.2154,0,0,-17.2154,225.57302,35.032014)" fill="#3333b3"/>
<use data-text="v" xlink:href="#font_2_38" transform="matrix(17.2154,0,0,-17.2154,233.66425,35.032014)" fill="#3333b3"/>
<use data-text="&#x00e9;" xlink:href="#font_2_47" transform="matrix(17.2154,0,0,-17.2154,241.1013,35.032014)" fill="#3333b3"/>
<use data-text="h" xlink:href="#font_2_14" transform="matrix(17.2154,0,0,-17.2154,248.29735,35.032014)" fill="#3333b3"/>
<use data-text="o" xlink:href="#font_2_24" transform="matrix(17.2154,0,0,-17.2154,256.6296,35.032014)" fill="#3333b3"/>
<use data-text="s" xlink:href="#font_2_32" transform="matrix(17.2154,0,0,-17.2154,270.10929,35.032014)" fill="#3333b3"/>
<use data-text="t" xlink:href="#font_2_33" transform="matrix(17.2154,0,0,-17.2154,276.32405,35.032014)" fill="#3333b3"/>
<use data-text="r" xlink:href="#font_2_31" transform="matrix(17.2154,0,0,-17.2154,282.17729,35.032014)" fill="#3333b3"/>
<use data-text="o" xlink:href="#font_2_24" transform="matrix(17.2154,0,0,-17.2154,287.68623,35.032014)" fill="#3333b3"/>
<use data-text="m" xlink:href="#font_2_21" transform="matrix(17.2154,0,0,-17.2154,295.77748,35.032014)" fill="#3333b3"/>
<use data-text="u" xlink:href="#font_2_36" transform="matrix(17.2154,0,0,-17.2154,308.60295,35.032014)" fill="#3333b3"/>
<use data-text="O" xlink:href="#font_3_34" transform="matrix(11.9552,0,0,-11.9552,11.702997,93.166019)"/>
<use data-text="p" xlink:href="#font_3_38" transform="matrix(11.9552,0,0,-11.9552,20.334652,93.166019)"/>
<use data-text="t" xlink:href="#font_3_50" transform="matrix(11.9552,0,0,-11.9552,26.336163,93.166019)"/>
<use data-text="i" xlink:href="#font_3_62" transform="matrix(11.9552,0,0,-11.9552,30.568305,93.166019)"/>
<use data-text="m" xlink:href="#font_3_31" transform="matrix(11.9552,0,0,-11.9552,33.318,93.166019)"/>
<use data-text="a" xlink:href="#font_3_2" transform="matrix(11.9552,0,0,-11.9552,42.571329,93.166019)"/>
<use data-text="l" xlink:href="#font_3_29" transform="matrix(11.9552,0,0,-11.9552,48.178316,93.166019)"/>
<use data-text="i" xlink:href="#font_3_62" transform="matrix(11.9552,0,0,-11.9552,50.92801,93.166019)"/>
<use data-text="z" xlink:href="#font_3_60" transform="matrix(11.9552,0,0,-11.9552,53.677705,93.166019)"/>
<use data-text="o" xlink:href="#font_3_35" transform="matrix(11.9552,0,0,-11.9552,58.758665,93.166019)"/>
<use data-text="v" xlink:href="#font_3_55" transform="matrix(11.9552,0,0,-11.9552,64.616718,93.166019)"/>
<use data-text="a" xlink:href="#font_3_2" transform="matrix(11.9552,0,0,-11.9552,69.97264,93.166019)"/>
<use data-text="n" xlink:href="#font_3_33" transform="matrix(11.9552,0,0,-11.9552,75.57963,93.166019)"/>
<use data-text="&#x00e9;" xlink:href="#font_3_66" transform="matrix(11.9552,0,0,-11.9552,81.58114,93.166019)"/>
<use data-text="v" xlink:href="#font_3_55" transform="matrix(11.9552,0,0,-11.9552,90.691,93.166019)"/>
<use data-text="k" xlink:href="#font_3_27" transform="matrix(11.9552,0,0,-11.9552,96.04693,93.166019)"/>
<use data-text="l" xlink:href="#font_3_29" transform="matrix(11.9552,0,0,-11.9552,101.72565,93.166019)"/>
<use data-text="&#x00e1;" xlink:href="#font_3_64" transform="matrix(11.9552,0,0,-11.9552,104.47534,93.166019)"/>
<use data-text="d" xlink:href="#font_3_10" transform="matrix(11.9552,0,0,-11.9552,110.08233,93.166019)"/>
<use data-text="&#x00e1;" xlink:href="#font_3_64" transform="matrix(11.9552,0,0,-11.9552,116.08384,93.166019)"/>
<use data-text="n" xlink:href="#font_3_33" transform="matrix(11.9552,0,0,-11.9552,121.69083,93.166019)"/>
<use data-text="&#x00ed;" xlink:href="#font_3_68" transform="matrix(11.9552,0,0,-11.9552,127.69234,93.166019)"/>
<g clip-path="url(#clip_4)">
<image x="19" y="102" width="10" height="11" xlink:href="image-03acc679b25b8b33aa404ce1.webp"/>
</g>
<use data-text="1" xlink:href="#font_1_30" transform="matrix(5.9776,0,0,-5.9776,22.361,108.61101)" fill="#ffffff"/>
<use data-text="S" xlink:href="#font_3_46" transform="matrix(11.9552,0,0,-11.9552,35.115,110.60101)"/>
<use data-text="o" xlink:href="#font_3_35" transform="matrix(11.9552,0,0,-11.9552,41.61863,110.60101)"/>
<use data-text="u" xlink:href="#font_3_53" transform="matrix(11.9552,0,0,-11.9552,47.476678,110.60101)"/>
<use data-text="&#x0159;" xlink:href="#font_3_71" transform="matrix(11.9552,0,0,-11.9552,53.478189,110.60101)"/>
<use data-text="a" xlink:href="#font_3_2" transform="matrix(11.9552,0,0,-11.9552,57.45927,110.60101)"/>
<use data-text="d" xlink:href="#font_3_10" transform="matrix(11.9552,0,0,-11.9552,63.06626,110.60101)"/>
<use data-text="n" xlink:href="#font_3_33" transform="matrix(11.9552,0,0,-11.9552,69.06777,110.60101)"/>
<use data-text="i" xlink:href="#font_3_62" transform="matrix(11.9552,0,0,-11.9552,75.06928,110.60101)"/>
<use data-text="c" xlink:href="#font_3_6" transform="matrix(11.9552,0,0,-11.9552,77.81898,110.60101)"/>
<use data-text="e" xlink:href="#font_3_12" transform="matrix(11.9552,0,0,-11.9552,83.01949,110.60101)"/>
<use data-text="v" xlink:href="#font_3_55" transform="matrix(11.9552,0,0,-11.9552,92.12936,110.60101)"/>
<use data-text="k" xlink:href="#font_3_27" transform="matrix(11.9552,0,0,-11.9552,97.48528,110.60101)"/>
<use data-text="l" xlink:href="#font_3_29" transform="matrix(11.9552,0,0,-11.9552,103.164,110.60101)"/>
<use data-text="&#x00e1;" xlink:href="#font_3_64" transform="matrix(11.9552,0,0,-11.9552,105.9137,110.60101)"/>
<use data-text="d" xlink:href="#font_3_10" transform="matrix(11.9552,0,0,-11.9552,111.52068,110.60101)"/>
<use data-text="a" xlink:href="#font_3_2" transform="matrix(11.9552,0,0,-11.9552,117.522197,110.60101)"/>
<use data-text="n" xlink:href="#font_3_33" transform="matrix(11.9552,0,0,-11.9552,123.12918,110.60101)"/>
<use data-text="&#x00fd;" xlink:href="#font_3_76" transform="matrix(11.9552,0,0,-11.9552,129.13069,110.60101)"/>
<use data-text="c" xlink:href="#font_3_6" transform="matrix(11.9552,0,0,-11.9552,134.48662,110.60101)"/>
<use data-text="h" xlink:href="#font_3_22" transform="matrix(11.9552,0,0,-11.9552,139.68714,110.60101)"/>
<use data-text="e" xlink:href="#font_3_12" transform="matrix(11.9552,0,0,-11.9552,149.58605,110.60101)"/>
<use data-text="l" xlink:href="#font_3_29" transform="matrix(11.9552,0,0,-11.9552,154.78656,110.60101)"/>
<use data-text="e" xlink:href="#font_3_12" transform="matrix(11.9552,0,0,-11.9552,157.53626,110.60101)"/>
<use data-text="m" xlink:href="#font_3_31" transform="matrix(11.9552,0,0,-11.9552,162.73677,110.60101)"/>
<use data-text="e" xlink:href="#font_3_12" transform="matrix(11.9552,0,0,-11.9552,171.9901,110.60101)"/>
<use data-text="n" xlink:href="#font_3_33" transform="matrix(11.9552,0,0,-11.9552,177.19062,110.60101)"/>
<use data-text="t" xlink:href="#font_3_50" transform="matrix(11.9552,0,0,-11.9552,183.19213,110.60101)"/>
<use data-text="&#x016f;" xlink:href="#font_3_75" transform="matrix(11.9552,0,0,-11.9552,187.42427,110.60101)"/>
<use data-text="j" xlink:href="#font_3_63" transform="matrix(11.9552,0,0,-11.9552,197.33513,110.60101)"/>
<use data-text="s" xlink:href="#font_3_47" transform="matrix(11.9552,0,0,-11.9552,200.41957,110.60101)"/>
<use data-text="o" xlink:href="#font_3_35" transform="matrix(11.9552,0,0,-11.9552,204.90277,110.60101)"/>
<use data-text="u" xlink:href="#font_3_53" transform="matrix(11.9552,0,0,-11.9552,210.76082,110.60101)"/>
<use data-text="s" xlink:href="#font_3_47" transform="matrix(11.9552,0,0,-11.9552,220.65973,110.60101)"/>
<use data-text="e" xlink:href="#font_3_12" transform="matrix(11.9552,0,0,-11.9552,225.14293,110.60101)"/>
<use data-text="&#x0159;" xlink:href="#font_3_71" transform="matrix(11.9552,0,0,-11.9552,230.34345,110.60101)"/>
<use data-text="a" xlink:href="#font_3_2" transform="matrix(11.9552,0,0,-11.9552,234.32453,110.60101)"/>
<use data-text="z" xlink:href="#font_3_60" transform="matrix(11.9552,0,0,-11.9552,239.93152,110.60101)"/>
<use data-text="e" xlink:href="#font_3_12" transform="matrix(11.9552,0,0,-11.9552,245.01248,110.60101)"/>
<use data-text="n" xlink:href="#font_3_33" transform="matrix(11.9552,0,0,-11.9552,250.213,110.60101)"/>
<use data-text="y" xlink:href="#font_3_58" transform="matrix(11.9552,0,0,-11.9552,256.2145,110.60101)"/>
<use data-text="p" xlink:href="#font_3_38" transform="matrix(11.9552,0,0,-11.9552,265.4798,110.60101)"/>
<use data-text="o" xlink:href="#font_3_35" transform="matrix(11.9552,0,0,-11.9552,271.8041,110.60101)"/>
<use data-text="d" xlink:href="#font_3_10" transform="matrix(11.9552,0,0,-11.9552,277.98497,110.60101)"/>
<use data-text="l" xlink:href="#font_3_29" transform="matrix(11.9552,0,0,-11.9552,283.98649,110.60101)"/>
<use data-text="e" xlink:href="#font_3_12" transform="matrix(11.9552,0,0,-11.9552,286.73619,110.60101)"/>
<use data-text="s" xlink:href="#font_3_47" transform="matrix(11.9552,0,0,-11.9552,295.83409,110.60101)"/>
<use data-text="o" xlink:href="#font_3_35" transform="matrix(11.9552,0,0,-11.9552,300.3173,110.60101)"/>
<use data-text="u" xlink:href="#font_3_53" transform="matrix(11.9552,0,0,-11.9552,306.17536,110.60101)"/>
<use data-text="&#x0159;" xlink:href="#font_3_71" transform="matrix(11.9552,0,0,-11.9552,312.17689,110.60101)"/>
<use data-text="a" xlink:href="#font_3_2" transform="matrix(11.9552,0,0,-11.9552,316.16993,110.60101)"/>
<use data-text="d" xlink:href="#font_3_10" transform="matrix(11.9552,0,0,-11.9552,321.77693,110.60101)"/>
<use data-text="n" xlink:href="#font_3_33" transform="matrix(11.9552,0,0,-11.9552,327.77845,110.60101)"/>
<use data-text="i" xlink:href="#font_3_62" transform="matrix(11.9552,0,0,-11.9552,333.77998,110.60101)"/>
<use data-text="c" xlink:href="#font_3_6" transform="matrix(11.9552,0,0,-11.9552,336.52967,110.60101)"/>
<use data-text="e" xlink:href="#font_3_12" transform="matrix(11.9552,0,0,-11.9552,341.73017,110.60101)"/>
<use data-text="x" xlink:href="#font_3_57" transform="matrix(11.9552,0,0,-11.9552,35.115,125.04701)"/>
<use data-text="." xlink:href="#font_3_41" transform="matrix(11.9552,0,0,-11.9552,40.470933,125.04701)"/>
<g clip-path="url(#clip_5)">
<image x="19" y="134" width="10" height="10" xlink:href="image-0b91afed3f91eedb1d3269a7.webp"/>
</g>
<use data-text="2" xlink:href="#font_1_46" transform="matrix(5.9776,0,0,-5.9776,22.361,140.49098)" fill="#ffffff"/>
<use data-text="J" xlink:href="#font_3_25" transform="matrix(11.9552,0,0,-11.9552,35.115,142.481)"/>
<use data-text="e" xlink:href="#font_3_12" transform="matrix(11.9552,0,0,-11.9552,40.614397,142.481)"/>
<use data-text="v" xlink:href="#font_3_55" transform="matrix(11.9552,0,0,-11.9552,49.712305,142.481)"/>
<use data-text="y" xlink:href="#font_3_58" transform="matrix(11.9552,0,0,-11.9552,55.068235,142.481)"/>
<use data-text="b" xlink:href="#font_3_4" transform="matrix(11.9552,0,0,-11.9552,60.424165,142.481)"/>
<use data-text="r" xlink:href="#font_3_45" transform="matrix(11.9552,0,0,-11.9552,66.10288,142.481)"/>
<use data-text="&#x00e1;" xlink:href="#font_3_64" transform="matrix(11.9552,0,0,-11.9552,70.08396,142.481)"/>
<use data-text="n" xlink:href="#font_3_33" transform="matrix(11.9552,0,0,-11.9552,75.69095,142.481)"/>
<use data-text="e" xlink:href="#font_3_12" transform="matrix(11.9552,0,0,-11.9552,85.60181,142.481)"/>
<use data-text="l" xlink:href="#font_3_29" transform="matrix(11.9552,0,0,-11.9552,90.80232,142.481)"/>
<use data-text="e" xlink:href="#font_3_12" transform="matrix(11.9552,0,0,-11.9552,93.55202,142.481)"/>
<use data-text="m" xlink:href="#font_3_31" transform="matrix(11.9552,0,0,-11.9552,98.75253,142.481)"/>
<use data-text="e" xlink:href="#font_3_12" transform="matrix(11.9552,0,0,-11.9552,108.00586,142.481)"/>
<use data-text="n" xlink:href="#font_3_33" transform="matrix(11.9552,0,0,-11.9552,113.206378,142.481)"/>
<use data-text="t" xlink:href="#font_3_50" transform="matrix(11.9552,0,0,-11.9552,119.207889,142.481)"/>
<use data-text="," xlink:href="#font_3_8" transform="matrix(11.9552,0,0,-11.9552,123.440029,142.481)"/>
<use data-text="j" xlink:href="#font_3_63" transform="matrix(11.9552,0,0,-11.9552,130.58924,142.481)"/>
<use data-text="e" xlink:href="#font_3_12" transform="matrix(11.9552,0,0,-11.9552,133.67368,142.481)"/>
<use data-text="h" xlink:href="#font_3_22" transform="matrix(11.9552,0,0,-11.9552,138.87419,142.481)"/>
<use data-text="o" xlink:href="#font_3_35" transform="matrix(11.9552,0,0,-11.9552,144.8757,142.481)"/>
<use data-text="&#x017e;" xlink:href="#font_3_77" transform="matrix(11.9552,0,0,-11.9552,150.73375,142.481)"/>
<use data-text="x" xlink:href="#font_3_57" transform="matrix(11.9552,0,0,-11.9552,159.71212,142.481)"/>
<use data-text="-" xlink:href="#font_3_23" transform="matrix(11.9552,0,0,-11.9552,165.06804,142.481)"/>
<use data-text="o" xlink:href="#font_3_35" transform="matrix(11.9552,0,0,-11.9552,168.96544,142.481)"/>
<use data-text="v" xlink:href="#font_3_55" transform="matrix(11.9552,0,0,-11.9552,174.82349,142.481)"/>
<use data-text="&#x00e1;" xlink:href="#font_3_64" transform="matrix(11.9552,0,0,-11.9552,180.17942,142.481)"/>
<use data-text="s" xlink:href="#font_3_47" transform="matrix(11.9552,0,0,-11.9552,189.69576,142.481)"/>
<use data-text="o" xlink:href="#font_3_35" transform="matrix(11.9552,0,0,-11.9552,194.17896,142.481)"/>
<use data-text="u" xlink:href="#font_3_53" transform="matrix(11.9552,0,0,-11.9552,200.037,142.481)"/>
<use data-text="&#x0159;" xlink:href="#font_3_71" transform="matrix(11.9552,0,0,-11.9552,206.03852,142.481)"/>
<use data-text="a" xlink:href="#font_3_2" transform="matrix(11.9552,0,0,-11.9552,210.01959,142.481)"/>
<use data-text="d" xlink:href="#font_3_10" transform="matrix(11.9552,0,0,-11.9552,215.62659,142.481)"/>
<use data-text="n" xlink:href="#font_3_33" transform="matrix(11.9552,0,0,-11.9552,221.6281,142.481)"/>
<use data-text="i" xlink:href="#font_3_62" transform="matrix(11.9552,0,0,-11.9552,227.62961,142.481)"/>
<use data-text="c" xlink:href="#font_3_6" transform="matrix(11.9552,0,0,-11.9552,230.3793,142.481)"/>
<use data-text="e" xlink:href="#font_3_12" transform="matrix(11.9552,0,0,-11.9552,235.57982,142.481)"/>
<use data-text="j" xlink:href="#font_3_63" transform="matrix(11.9552,0,0,-11.9552,244.67774,142.481)"/>
<use data-text="e" xlink:href="#font_3_12" transform="matrix(11.9552,0,0,-11.9552,247.76218,142.481)"/>
<use data-text="m" xlink:href="#font_3_31" transform="matrix(11.9552,0,0,-11.9552,256.87205,142.481)"/>
<use data-text="e" xlink:href="#font_3_12" transform="matrix(11.9552,0,0,-11.9552,266.12538,142.481)"/>
<use data-text="d" xlink:href="#font_3_10" transform="matrix(11.9552,0,0,-11.9552,271.32588,142.481)"/>
<use data-text="i" xlink:href="#font_3_62" transform="matrix(11.9552,0,0,-11.9552,277.3274,142.481)"/>
<use data-text="&#x00e1;" xlink:href="#font_3_64" transform="matrix(11.9552,0,0,-11.9552,280.0771,142.481)"/>
<use data-text="n" xlink:href="#font_3_33" transform="matrix(11.9552,0,0,-11.9552,285.68409,142.481)"/>
<use data-text="e" xlink:href="#font_3_12" transform="matrix(11.9552,0,0,-11.9552,291.6856,142.481)"/>
<use data-text="m" xlink:href="#font_3_31" transform="matrix(11.9552,0,0,-11.9552,296.8861,142.481)"/>
<use data-text="a" xlink:href="#font_3_2" transform="matrix(11.9552,0,0,-11.9552,310.03684,142.481)"/>
<use data-text="e" xlink:href="#font_3_12" transform="matrix(11.9552,0,0,-11.9552,35.115,156.927)"/>
<use data-text="l" xlink:href="#font_3_29" transform="matrix(11.9552,0,0,-11.9552,40.315515,156.927)"/>
<use data-text="e" xlink:href="#font_3_12" transform="matrix(11.9552,0,0,-11.9552,43.06521,156.927)"/>
<use data-text="m" xlink:href="#font_3_31" transform="matrix(11.9552,0,0,-11.9552,48.26572,156.927)"/>
<use data-text="e" xlink:href="#font_3_12" transform="matrix(11.9552,0,0,-11.9552,57.519048,156.927)"/>
<use data-text="n" xlink:href="#font_3_33" transform="matrix(11.9552,0,0,-11.9552,62.71956,156.927)"/>
<use data-text="t" xlink:href="#font_3_50" transform="matrix(11.9552,0,0,-11.9552,68.72107,156.927)"/>
<use data-text="j" xlink:href="#font_3_63" transform="matrix(11.9552,0,0,-11.9552,76.8506,156.927)"/>
<use data-text="e" xlink:href="#font_3_12" transform="matrix(11.9552,0,0,-11.9552,79.93504,156.927)"/>
<use data-text="v" xlink:href="#font_3_55" transform="matrix(11.9552,0,0,-11.9552,89.04491,156.927)"/>
<use data-text="l" xlink:href="#font_3_29" transform="matrix(11.9552,0,0,-11.9552,94.40083,156.927)"/>
<use data-text="o" xlink:href="#font_3_35" transform="matrix(11.9552,0,0,-11.9552,97.15053,156.927)"/>
<use data-text="&#x017e;" xlink:href="#font_3_77" transform="matrix(11.9552,0,0,-11.9552,103.008579,156.927)"/>
<use data-text="e" xlink:href="#font_3_12" transform="matrix(11.9552,0,0,-11.9552,108.08954,156.927)"/>
<use data-text="n" xlink:href="#font_3_33" transform="matrix(11.9552,0,0,-11.9552,113.290058,156.927)"/>
<use data-text="d" xlink:href="#font_3_10" transform="matrix(11.9552,0,0,-11.9552,123.18896,156.927)"/>
<use data-text="o" xlink:href="#font_3_35" transform="matrix(11.9552,0,0,-11.9552,129.19048,156.927)"/>
<use data-text="k" xlink:href="#font_3_27" transform="matrix(11.9552,0,0,-11.9552,138.95787,156.927)"/>
<use data-text="o" xlink:href="#font_3_35" transform="matrix(11.9552,0,0,-11.9552,144.30185,156.927)"/>
<use data-text="&#x0159;" xlink:href="#font_3_71" transform="matrix(11.9552,0,0,-11.9552,149.83712,156.927)"/>
<use data-text="e" xlink:href="#font_3_12" transform="matrix(11.9552,0,0,-11.9552,153.81819,156.927)"/>
<use data-text="n" xlink:href="#font_3_33" transform="matrix(11.9552,0,0,-11.9552,159.0187,156.927)"/>
<use data-text="e" xlink:href="#font_3_12" transform="matrix(11.9552,0,0,-11.9552,165.02022,156.927)"/>
<use data-text="." xlink:href="#font_3_41" transform="matrix(11.9552,0,0,-11.9552,170.22074,156.927)"/>
<g clip-path="url(#clip_6)">
<image x="19" y="165" width="10" height="11" xlink:href="image-ae0bbca75cd6b6263455bca5.webp"/>
</g>
<use data-text="3" xlink:href="#font_1_45" transform="matrix(5.9776,0,0,-5.9776,22.361,172.371)" fill="#ffffff"/>
<use data-text="D" xlink:href="#font_3_9" transform="matrix(11.9552,0,0,-11.9552,35.115,174.362)"/>
<use data-text="l" xlink:href="#font_3_29" transform="matrix(11.9552,0,0,-11.9552,43.531465,174.362)"/>
<use data-text="e" xlink:href="#font_3_12" transform="matrix(11.9552,0,0,-11.9552,46.28116,174.362)"/>
<use data-text="v" xlink:href="#font_3_55" transform="matrix(11.9552,0,0,-11.9552,55.379068,174.362)"/>
<use data-text="y" xlink:href="#font_3_58" transform="matrix(11.9552,0,0,-11.9552,60.734998,174.362)"/>
<use data-text="b" xlink:href="#font_3_4" transform="matrix(11.9552,0,0,-11.9552,66.09093,174.362)"/>
<use data-text="r" xlink:href="#font_3_45" transform="matrix(11.9552,0,0,-11.9552,71.769649,174.362)"/>
<use data-text="a" xlink:href="#font_3_2" transform="matrix(11.9552,0,0,-11.9552,75.750728,174.362)"/>
<use data-text="n" xlink:href="#font_3_33" transform="matrix(11.9552,0,0,-11.9552,81.35771,174.362)"/>
<use data-text="&#x00e9;" xlink:href="#font_3_66" transform="matrix(11.9552,0,0,-11.9552,87.35922,174.362)"/>
<use data-text="s" xlink:href="#font_3_47" transform="matrix(11.9552,0,0,-11.9552,96.469089,174.362)"/>
<use data-text="o" xlink:href="#font_3_35" transform="matrix(11.9552,0,0,-11.9552,100.952289,174.362)"/>
<use data-text="u" xlink:href="#font_3_53" transform="matrix(11.9552,0,0,-11.9552,106.81033,174.362)"/>
<use data-text="&#x0159;" xlink:href="#font_3_71" transform="matrix(11.9552,0,0,-11.9552,112.811847,174.362)"/>
<use data-text="a" xlink:href="#font_3_2" transform="matrix(11.9552,0,0,-11.9552,116.79292,174.362)"/>
<use data-text="d" xlink:href="#font_3_10" transform="matrix(11.9552,0,0,-11.9552,122.39991,174.362)"/>
<use data-text="n" xlink:href="#font_3_33" transform="matrix(11.9552,0,0,-11.9552,128.40143,174.362)"/>
<use data-text="i" xlink:href="#font_3_62" transform="matrix(11.9552,0,0,-11.9552,134.40294,174.362)"/>
<use data-text="c" xlink:href="#font_3_6" transform="matrix(11.9552,0,0,-11.9552,137.15264,174.362)"/>
<use data-text="e" xlink:href="#font_3_12" transform="matrix(11.9552,0,0,-11.9552,142.35315,174.362)"/>
<use data-text="j" xlink:href="#font_3_63" transform="matrix(11.9552,0,0,-11.9552,151.45107,174.362)"/>
<use data-text="s" xlink:href="#font_3_47" transform="matrix(11.9552,0,0,-11.9552,154.5355,174.362)"/>
<use data-text="o" xlink:href="#font_3_35" transform="matrix(11.9552,0,0,-11.9552,159.0187,174.362)"/>
<use data-text="u" xlink:href="#font_3_53" transform="matrix(11.9552,0,0,-11.9552,164.87676,174.362)"/>
<use data-text="e" xlink:href="#font_3_12" transform="matrix(11.9552,0,0,-11.9552,174.78762,174.362)"/>
<use data-text="l" xlink:href="#font_3_29" transform="matrix(11.9552,0,0,-11.9552,179.98813,174.362)"/>
<use data-text="e" xlink:href="#font_3_12" transform="matrix(11.9552,0,0,-11.9552,182.73783,174.362)"/>
<use data-text="m" xlink:href="#font_3_31" transform="matrix(11.9552,0,0,-11.9552,187.93834,174.362)"/>
<use data-text="e" xlink:href="#font_3_12" transform="matrix(11.9552,0,0,-11.9552,197.19167,174.362)"/>
<use data-text="n" xlink:href="#font_3_33" transform="matrix(11.9552,0,0,-11.9552,202.39218,174.362)"/>
<use data-text="t" xlink:href="#font_3_50" transform="matrix(11.9552,0,0,-11.9552,208.39369,174.362)"/>
<use data-text="y" xlink:href="#font_3_58" transform="matrix(11.9552,0,0,-11.9552,212.29109,174.362)"/>
<use data-text="r" xlink:href="#font_3_45" transform="matrix(11.9552,0,0,-11.9552,221.55637,174.362)"/>
<use data-text="o" xlink:href="#font_3_35" transform="matrix(11.9552,0,0,-11.9552,225.53745,174.362)"/>
<use data-text="z" xlink:href="#font_3_60" transform="matrix(11.9552,0,0,-11.9552,231.3955,174.362)"/>
<use data-text="d" xlink:href="#font_3_10" transform="matrix(11.9552,0,0,-11.9552,236.47646,174.362)"/>
<use data-text="&#x011b;" xlink:href="#font_3_67" transform="matrix(11.9552,0,0,-11.9552,242.47797,174.362)"/>
<use data-text="l" xlink:href="#font_3_29" transform="matrix(11.9552,0,0,-11.9552,247.67848,174.362)"/>
<use data-text="e" xlink:href="#font_3_12" transform="matrix(11.9552,0,0,-11.9552,250.42818,174.362)"/>
<use data-text="n" xlink:href="#font_3_33" transform="matrix(11.9552,0,0,-11.9552,255.6287,174.362)"/>
<use data-text="y" xlink:href="#font_3_58" transform="matrix(11.9552,0,0,-11.9552,261.63023,174.362)"/>
<use data-text="d" xlink:href="#font_3_10" transform="matrix(11.9552,0,0,-11.9552,270.88356,174.362)"/>
<use data-text="o" xlink:href="#font_3_35" transform="matrix(11.9552,0,0,-11.9552,276.88508,174.362)"/>
<use data-text="&#x010d;" xlink:href="#font_3_65" transform="matrix(11.9552,0,0,-11.9552,286.6525,174.362)"/>
<use data-text="t" xlink:href="#font_3_50" transform="matrix(11.9552,0,0,-11.9552,291.853,174.362)"/>
<use data-text="y" xlink:href="#font_3_58" transform="matrix(11.9552,0,0,-11.9552,295.7504,174.362)"/>
<use data-text="&#x0159;" xlink:href="#font_3_71" transform="matrix(11.9552,0,0,-11.9552,301.10633,174.362)"/>
<use data-text="s" xlink:href="#font_3_47" transform="matrix(11.9552,0,0,-11.9552,308.99678,174.362)"/>
<use data-text="k" xlink:href="#font_3_27" transform="matrix(11.9552,0,0,-11.9552,313.47999,174.362)"/>
<use data-text="u" xlink:href="#font_3_53" transform="matrix(11.9552,0,0,-11.9552,319.1587,174.362)"/>
<use data-text="p" xlink:href="#font_3_38" transform="matrix(11.9552,0,0,-11.9552,325.16023,174.362)"/>
<use data-text="i" xlink:href="#font_3_62" transform="matrix(11.9552,0,0,-11.9552,331.16175,174.362)"/>
<use data-text="n" xlink:href="#font_3_33" transform="matrix(11.9552,0,0,-11.9552,333.91145,174.362)"/>
<use data-text="." xlink:href="#font_3_41" transform="matrix(11.9552,0,0,-11.9552,339.91297,174.362)"/>
<g clip-path="url(#clip_7)">
<image x="19" y="183" width="10" height="11" xlink:href="image-bf6b8140fb0e7c353513432f.webp"/>
</g>
<use data-text="4" xlink:href="#font_1_15" transform="matrix(5.9776,0,0,-5.9776,22.361,189.806)" fill="#ffffff"/>
<use data-text="P" xlink:href="#font_3_37" transform="matrix(11.9552,0,0,-11.9552,35.115,191.796)"/>
<use data-text="r" xlink:href="#font_3_45" transform="matrix(11.9552,0,0,-11.9552,42.56309,191.796)"/>
<use data-text="o" xlink:href="#font_3_35" transform="matrix(11.9552,0,0,-11.9552,46.544176,191.796)"/>
<use data-text="k" xlink:href="#font_3_27" transform="matrix(11.9552,0,0,-11.9552,56.299619,191.796)"/>
<use data-text="a" xlink:href="#font_3_2" transform="matrix(11.9552,0,0,-11.9552,61.97834,191.796)"/>
<use data-text="&#x017e;" xlink:href="#font_3_77" transform="matrix(11.9552,0,0,-11.9552,67.58533,191.796)"/>
<use data-text="d" xlink:href="#font_3_10" transform="matrix(11.9552,0,0,-11.9552,72.678249,191.796)"/>
<use data-text="o" xlink:href="#font_3_35" transform="matrix(11.9552,0,0,-11.9552,78.679759,191.796)"/>
<use data-text="u" xlink:href="#font_3_53" transform="matrix(11.9552,0,0,-11.9552,84.5378,191.796)"/>
<use data-text="s" xlink:href="#font_3_47" transform="matrix(11.9552,0,0,-11.9552,94.43671,191.796)"/>
<use data-text="k" xlink:href="#font_3_27" transform="matrix(11.9552,0,0,-11.9552,98.91991,191.796)"/>
<use data-text="u" xlink:href="#font_3_53" transform="matrix(11.9552,0,0,-11.9552,104.598628,191.796)"/>
<use data-text="p" xlink:href="#font_3_38" transform="matrix(11.9552,0,0,-11.9552,110.600139,191.796)"/>
<use data-text="i" xlink:href="#font_3_62" transform="matrix(11.9552,0,0,-11.9552,116.60165,191.796)"/>
<use data-text="n" xlink:href="#font_3_33" transform="matrix(11.9552,0,0,-11.9552,119.35134,191.796)"/>
<use data-text="u" xlink:href="#font_3_53" transform="matrix(11.9552,0,0,-11.9552,125.35285,191.796)"/>
<use data-text="s" xlink:href="#font_3_47" transform="matrix(11.9552,0,0,-11.9552,135.26372,191.796)"/>
<use data-text="e" xlink:href="#font_3_12" transform="matrix(11.9552,0,0,-11.9552,139.74692,191.796)"/>
<use data-text="r" xlink:href="#font_3_45" transform="matrix(11.9552,0,0,-11.9552,148.84484,191.796)"/>
<use data-text="e" xlink:href="#font_3_12" transform="matrix(11.9552,0,0,-11.9552,152.82592,191.796)"/>
<use data-text="k" xlink:href="#font_3_27" transform="matrix(11.9552,0,0,-11.9552,158.02643,191.796)"/>
<use data-text="u" xlink:href="#font_3_53" transform="matrix(11.9552,0,0,-11.9552,163.70516,191.796)"/>
<use data-text="r" xlink:href="#font_3_45" transform="matrix(11.9552,0,0,-11.9552,169.70667,191.796)"/>
<use data-text="s" xlink:href="#font_3_47" transform="matrix(11.9552,0,0,-11.9552,173.68775,191.796)"/>
<use data-text="i" xlink:href="#font_3_62" transform="matrix(11.9552,0,0,-11.9552,178.17095,191.796)"/>
<use data-text="v" xlink:href="#font_3_55" transform="matrix(11.9552,0,0,-11.9552,180.92064,191.796)"/>
<use data-text="n" xlink:href="#font_3_33" transform="matrix(11.9552,0,0,-11.9552,186.27657,191.796)"/>
<use data-text="&#x011b;" xlink:href="#font_3_67" transform="matrix(11.9552,0,0,-11.9552,192.27808,191.796)"/>
<use data-text="o" xlink:href="#font_3_35" transform="matrix(11.9552,0,0,-11.9552,201.37599,191.796)"/>
<use data-text="p" xlink:href="#font_3_38" transform="matrix(11.9552,0,0,-11.9552,207.23404,191.796)"/>
<use data-text="a" xlink:href="#font_3_2" transform="matrix(11.9552,0,0,-11.9552,213.2475,191.796)"/>
<use data-text="k" xlink:href="#font_3_27" transform="matrix(11.9552,0,0,-11.9552,218.85449,191.796)"/>
<use data-text="u" xlink:href="#font_3_53" transform="matrix(11.9552,0,0,-11.9552,224.53322,191.796)"/>
<use data-text="j" xlink:href="#font_3_63" transform="matrix(11.9552,0,0,-11.9552,230.53473,191.796)"/>
<use data-text="e" xlink:href="#font_3_12" transform="matrix(11.9552,0,0,-11.9552,233.61917,191.796)"/>
<use data-text="t" xlink:href="#font_3_50" transform="matrix(11.9552,0,0,-11.9552,242.71709,191.796)"/>
<use data-text="a" xlink:href="#font_3_2" transform="matrix(11.9552,0,0,-11.9552,246.94924,191.796)"/>
<use data-text="t" xlink:href="#font_3_50" transform="matrix(11.9552,0,0,-11.9552,252.55623,191.796)"/>
<use data-text="o" xlink:href="#font_3_35" transform="matrix(11.9552,0,0,-11.9552,256.78837,191.796)"/>
<use data-text="o" xlink:href="#font_3_35" transform="matrix(11.9552,0,0,-11.9552,266.54383,191.796)"/>
<use data-text="p" xlink:href="#font_3_38" transform="matrix(11.9552,0,0,-11.9552,272.4019,191.796)"/>
<use data-text="e" xlink:href="#font_3_12" transform="matrix(11.9552,0,0,-11.9552,278.73817,191.796)"/>
<use data-text="r" xlink:href="#font_3_45" transform="matrix(11.9552,0,0,-11.9552,283.93867,191.796)"/>
<use data-text="a" xlink:href="#font_3_2" transform="matrix(11.9552,0,0,-11.9552,287.91975,191.796)"/>
<use data-text="c" xlink:href="#font_3_6" transform="matrix(11.9552,0,0,-11.9552,293.52674,191.796)"/>
<use data-text="e" xlink:href="#font_3_12" transform="matrix(11.9552,0,0,-11.9552,298.72724,191.796)"/>
<use data-text="." xlink:href="#font_3_41" transform="matrix(11.9552,0,0,-11.9552,303.92774,191.796)"/>
<path transform="matrix(1,0,0,-1,0,272.126)" d="M0 0H120.943V8.634H0Z" fill="#4747ba"/>
<use data-text="C" xlink:href="#font_1_5" transform="matrix(5.9776,0,0,-5.9776,41.797,269.469)" fill="#ffffff"/>
<use data-text="h" xlink:href="#font_1_19" transform="matrix(5.9776,0,0,-5.9776,45.855794,269.469)" fill="#ffffff"/>
<use data-text="l" xlink:href="#font_1_24" transform="matrix(5.9776,0,0,-5.9776,49.137498,269.469)" fill="#ffffff"/>
<use data-text="u" xlink:href="#font_1_47" transform="matrix(5.9776,0,0,-5.9776,50.655809,269.469)" fill="#ffffff"/>
<use data-text="d" xlink:href="#font_1_9" transform="matrix(5.9776,0,0,-5.9776,53.93751,269.469)" fill="#ffffff"/>
<use data-text="i" xlink:href="#font_1_55" transform="matrix(5.9776,0,0,-5.9776,57.219217,269.469)" fill="#ffffff"/>
<use data-text="l" xlink:href="#font_1_24" transform="matrix(5.9776,0,0,-5.9776,58.737527,269.469)" fill="#ffffff"/>
<use data-text="(" xlink:href="#font_1_33" transform="matrix(5.9776,0,0,-5.9776,64.487979,269.469)" fill="#ffffff"/>
<use data-text="F" xlink:href="#font_1_12" transform="matrix(5.9776,0,0,-5.9776,66.956729,269.469)" fill="#ffffff"/>
<use data-text="I" xlink:href="#font_1_21" transform="matrix(5.9776,0,0,-5.9776,70.59111,269.469)" fill="#ffffff"/>
<use data-text="T" xlink:href="#font_1_43" transform="matrix(5.9776,0,0,-5.9776,72.3545,269.469)" fill="#ffffff"/>
<use data-text=")" xlink:href="#font_1_34" transform="matrix(5.9776,0,0,-5.9776,76.69424,269.469)" fill="#ffffff"/>
<path transform="matrix(1,0,0,-1,120.943,272.126)" d="M0 0H120.943V8.634H0Z" fill="#8585d1"/>
<use data-text="B" xlink:href="#font_1_3" transform="matrix(5.9776,0,0,-5.9776,147.59,269.469)" fill="#ffffff"/>
<use data-text="I" xlink:href="#font_1_21" transform="matrix(5.9776,0,0,-5.9776,151.82215,269.469)" fill="#ffffff"/>
<use data-text="-" xlink:href="#font_1_20" transform="matrix(5.9776,0,0,-5.9776,153.58554,269.469)" fill="#ffffff"/>
<use data-text="P" xlink:href="#font_1_31" transform="matrix(5.9776,0,0,-5.9776,155.70162,269.469)" fill="#ffffff"/>
<use data-text="G" xlink:href="#font_1_16" transform="matrix(5.9776,0,0,-5.9776,159.7604,269.469)" fill="#ffffff"/>
<use data-text="A" xlink:href="#font_1_1" transform="matrix(5.9776,0,0,-5.9776,163.99256,269.469)" fill="#ffffff"/>
<use data-text="," xlink:href="#font_1_7" transform="matrix(5.9776,0,0,-5.9776,168.2247,269.469)" fill="#ffffff"/>
<use data-text="P" xlink:href="#font_1_31" transform="matrix(5.9776,0,0,-5.9776,172.10417,269.469)" fill="#ffffff"/>
<use data-text="&#x0159;" xlink:href="#font_1_63" transform="matrix(5.9776,0,0,-5.9776,176.16297,269.469)" fill="#ffffff"/>
<use data-text="e" xlink:href="#font_1_10" transform="matrix(5.9776,0,0,-5.9776,178.33284,269.469)" fill="#ffffff"/>
<use data-text="d" xlink:href="#font_1_9" transform="matrix(5.9776,0,0,-5.9776,181.15427,269.469)" fill="#ffffff"/>
<use data-text="n" xlink:href="#font_1_26" transform="matrix(5.9776,0,0,-5.9776,184.43598,269.469)" fill="#ffffff"/>
<use data-text="&#x00e1;" xlink:href="#font_1_57" transform="matrix(5.9776,0,0,-5.9776,187.71768,269.469)" fill="#ffffff"/>
<use data-text="&#x0161;" xlink:href="#font_1_64" transform="matrix(5.9776,0,0,-5.9776,190.76627,269.469)" fill="#ffffff"/>
<use data-text="k" xlink:href="#font_1_23" transform="matrix(5.9776,0,0,-5.9776,193.19915,269.469)" fill="#ffffff"/>
<use data-text="a" xlink:href="#font_1_2" transform="matrix(5.9776,0,0,-5.9776,196.30152,269.469)" fill="#ffffff"/>
<use data-text="&#x010d;" xlink:href="#font_1_59" transform="matrix(5.9776,0,0,-5.9776,201.46617,269.469)" fill="#ffffff"/>
<use data-text="." xlink:href="#font_1_35" transform="matrix(5.9776,0,0,-5.9776,204.29358,269.469)" fill="#ffffff"/>
<use data-text="1" xlink:href="#font_1_30" transform="matrix(5.9776,0,0,-5.9776,208.8784,269.469)" fill="#ffffff"/>
<use data-text="0" xlink:href="#font_1_54" transform="matrix(5.9776,0,0,-5.9776,212.0525,269.469)" fill="#ffffff"/>
<path transform="matrix(1,0,0,-1,241.886,272.126)" d="M0 0H120.943V8.634H0Z" fill="#adade0"/>
<use data-text="Z" xlink:href="#font_1_52" transform="matrix(5.9776,0,0,-5.9776,271.131,269.469)"/>
<use data-text="S" xlink:href="#font_1_38" transform="matrix(5.9776,0,0,-5.9776,275.01048,269.469)"/>
<use data-text="2" xlink:href="#font_1_46" transform="matrix(5.9776,0,0,-5.9776,280.65333,269.469)"/>
<use data-text="0" xlink:href="#font_1_54" transform="matrix(5.9776,0,0,-5.9776,283.82743,269.469)"/>
<use data-text="2" xlink:href="#font_1_46" transform="matrix(5.9776,0,0,-5.9776,287.00154,269.469)"/>
<use data-text="4" xlink:href="#font_1_15" transform="matrix(5.9776,0,0,-5.9776,290.17564,269.469)"/>
<use data-text="/" xlink:href="#font_1_42" transform="matrix(5.9776,0,0,-5.9776,293.34974,269.469)"/>
<use data-text="2" xlink:href="#font_1_46" transform="matrix(5.9776,0,0,-5.9776,296.52384,269.469)"/>
<use data-text="0" xlink:href="#font_1_54" transform="matrix(5.9776,0,0,-5.9776,299.69795,269.469)"/>
<use data-text="2" xlink:href="#font_1_46" transform="matrix(5.9776,0,0,-5.9776,302.87205,269.469)"/>
<use data-text="5" xlink:href="#font_1_14" transform="matrix(5.9776,0,0,-5.9776,306.05213,269.469)"/>
<use data-text="6" xlink:href="#font_1_41" transform="matrix(5.9776,0,0,-5.9776,336.32868,269.469)"/>
<use data-text="0" xlink:href="#font_1_54" transform="matrix(5.9776,0,0,-5.9776,339.50279,269.469)"/>
<use data-text="/" xlink:href="#font_1_42" transform="matrix(5.9776,0,0,-5.9776,343.7409,269.469)"/>
<use data-text="1" xlink:href="#font_1_30" transform="matrix(5.9776,0,0,-5.9776,347.97306,269.469)"/>
<use data-text="5" xlink:href="#font_1_14" transform="matrix(5.9776,0,0,-5.9776,351.14717,269.469)"/>
<use data-text="5" xlink:href="#font_1_14" transform="matrix(5.9776,0,0,-5.9776,354.32127,269.469)"/>
</svg>
